<svg width="100" height="100" viewBox="0 0 100 100" fill="none" xmlns="http://www.w3.org/2000/svg">
<path d="M0 3C0 1.34314 1.34315 0 3 0H97C98.6569 0 100 1.34315 100 3V97C100 98.6569 98.6569 100 97 100H3C1.34314 100 0 98.6569 0 97V3Z" fill="#FF6262"/>
<g filter="url(#filter0_d)">
<path d="M8.23086 61.2227C8.29336 61.1445 8.35 61.0645 8.40078 60.9824C8.45156 60.8965 8.47695 60.7988 8.47695 60.6895C8.47695 60.5801 8.45742 60.4844 8.41836 60.4023C8.3793 60.3164 8.32461 60.2422 8.2543 60.1797C8.10195 60.043 7.90859 59.9746 7.67422 59.9746C7.43984 59.9746 7.2543 60.043 7.11758 60.1797C6.98476 60.3125 6.91836 60.4766 6.91836 60.6719L6.91836 65.4297C6.91836 65.6289 6.98281 65.7832 7.11172 65.8926C7.24453 65.998 7.40859 66.0508 7.6039 66.0508C7.80312 66.0508 7.96914 65.998 8.10195 65.8926C8.23476 65.7832 8.30117 65.6289 8.30117 65.4297V65.0488C8.30117 64.8535 8.35 64.707 8.44765 64.6094C8.61562 64.4414 8.77187 64.3574 8.9164 64.3574C9.06094 64.3574 9.17617 64.375 9.26211 64.4102C9.34805 64.4453 9.42226 64.4941 9.48476 64.5566C9.62148 64.6934 9.68984 64.8574 9.68984 65.0488V65.3945C9.68984 66.2109 9.2914 66.7422 8.49453 66.9883C8.23672 67.0703 7.9418 67.1113 7.60976 67.1113C7.28164 67.1113 6.98867 67.0723 6.73086 66.9941C6.47305 66.9121 6.25625 66.7969 6.08047 66.6484C5.71328 66.3359 5.52969 65.9121 5.52969 65.377V60.6426C5.52969 60.1152 5.70937 59.6992 6.06875 59.3945C6.44375 59.0781 6.95742 58.9199 7.60976 58.9199C8.28164 58.9199 8.80703 59.0781 9.18594 59.3945C9.56094 59.7031 9.74844 60.1211 9.74844 60.6484C9.74844 61.4727 9.5375 62.0293 9.11562 62.3184C8.98672 62.4082 8.85586 62.4531 8.72305 62.4531C8.59414 62.4531 8.48672 62.4355 8.40078 62.4004C8.31875 62.3652 8.24648 62.3164 8.18398 62.2539C8.05117 62.1289 7.98476 61.9863 7.98476 61.8262C7.98476 61.666 8.01015 61.5449 8.06094 61.4629C8.11172 61.377 8.16836 61.2969 8.23086 61.2227ZM13.3836 66.8652C13.2859 66.959 13.1941 67.0234 13.1082 67.0586C13.0262 67.0977 12.9363 67.1172 12.8387 67.1172C12.7449 67.1172 12.6551 67.0996 12.5691 67.0645C12.4832 67.0293 12.409 66.9805 12.3465 66.918C12.2098 66.7812 12.1414 66.6191 12.1414 66.4316V58.6797C12.1414 58.4883 12.1922 58.3438 12.2937 58.2461C12.4617 58.0742 12.618 57.9883 12.7625 57.9883C12.9109 57.9883 13.0262 58.0059 13.1082 58.041C13.1941 58.0762 13.2684 58.125 13.3309 58.1875C13.4676 58.3242 13.5359 58.4883 13.5359 58.6797V60.9941C13.5359 61.0684 13.5555 61.1191 13.5945 61.1465C13.6375 61.1699 13.6785 61.1816 13.7176 61.1816C13.7566 61.1816 13.7937 61.1641 13.8289 61.1289L13.9227 61.0352C14.1883 60.7695 14.4949 60.6367 14.8426 60.6367C15.2645 60.6367 15.6141 60.8086 15.8914 61.1523C16.1687 61.4922 16.3074 61.8984 16.3074 62.3711V66.4316C16.3074 66.7285 16.1687 66.9375 15.8914 67.0586C15.8055 67.0977 15.7137 67.1172 15.616 67.1172C15.5223 67.1172 15.4324 67.0996 15.3465 67.0645C15.2605 67.0293 15.1863 66.9805 15.1238 66.918C14.9871 66.7812 14.9187 66.6191 14.9187 66.4316V62.3887C14.9187 62.1934 14.8699 62.0469 14.7723 61.9492C14.6004 61.7773 14.4422 61.6914 14.2977 61.6914C14.157 61.6914 14.0457 61.707 13.9637 61.7383C13.8816 61.7656 13.8094 61.8066 13.7469 61.8613C13.6062 61.9785 13.5359 62.1309 13.5359 62.3184V66.4316C13.5359 66.623 13.4852 66.7676 13.3836 66.8652ZM21.6652 60.8945C21.7668 60.7969 21.8586 60.7305 21.9406 60.6953C22.0266 60.6562 22.1164 60.6367 22.2102 60.6367C22.3078 60.6367 22.3977 60.6543 22.4797 60.6895C22.5656 60.7246 22.6398 60.7734 22.7023 60.8359C22.8391 60.9727 22.9074 61.1348 22.9074 61.3223V66.4141C22.9074 66.6055 22.8586 66.7539 22.7609 66.8594C22.593 67.0312 22.4328 67.1172 22.2805 67.1172C22.132 67.1172 22.0207 67.0996 21.9465 67.0645C21.8723 67.0332 21.8117 66.9961 21.7648 66.9531C21.6906 66.8906 21.6379 66.8281 21.6066 66.7656C21.5793 66.6992 21.5539 66.6504 21.5305 66.6191C21.507 66.5879 21.4699 66.5723 21.4191 66.5723C21.3723 66.5723 21.3332 66.5898 21.302 66.625C21.2707 66.6562 21.2199 66.707 21.1496 66.7773C20.9152 67.0039 20.6574 67.1172 20.3762 67.1172C20.0988 67.1172 19.8664 67.0723 19.6789 66.9824C19.4914 66.8887 19.3273 66.7617 19.1867 66.6016C18.8898 66.2617 18.7414 65.8555 18.7414 65.3828V61.3223C18.7414 61.0254 18.882 60.8164 19.1633 60.6953C19.2453 60.6562 19.3332 60.6367 19.427 60.6367C19.5246 60.6367 19.6164 60.6543 19.7023 60.6895C19.7883 60.7246 19.8625 60.7734 19.925 60.8359C20.0617 60.9727 20.1301 61.1348 20.1301 61.3223V65.3652C20.1301 65.5605 20.1789 65.707 20.2766 65.8047C20.4484 65.9766 20.6281 66.0625 20.8156 66.0625C21.1242 66.0625 21.3391 65.9414 21.4602 65.6992C21.4992 65.6211 21.5187 65.5332 21.5187 65.4355V61.3223C21.5187 61.1309 21.5676 60.9883 21.6652 60.8945ZM28.0602 60.6367C28.1578 60.6367 28.2535 60.6504 28.3473 60.6777C28.441 60.7051 28.5289 60.748 28.6109 60.8066C28.7984 60.9434 28.8922 61.1328 28.8922 61.375C28.8922 61.5703 28.8414 61.7168 28.7398 61.8145C28.5641 61.9824 28.4 62.0664 28.2477 62.0664C28.0523 62.0664 27.8746 62.0039 27.7145 61.8789C27.5895 61.7969 27.4488 61.7559 27.2926 61.7559C27.1363 61.7559 27.0133 61.8066 26.9234 61.9082C26.8336 62.0059 26.7887 62.1309 26.7887 62.2832V66.4258C26.7887 66.6133 26.7398 66.7578 26.6422 66.8594C26.4664 67.0312 26.3062 67.1172 26.1617 67.1172C26.0211 67.1172 25.9078 67.0977 25.8219 67.0586C25.7398 67.0234 25.6676 66.9746 25.6051 66.9121C25.4684 66.7754 25.4 66.6133 25.4 66.4258V61.3398C25.4 61.1484 25.4508 61 25.5523 60.8945C25.7164 60.7227 25.8727 60.6367 26.0211 60.6367C26.1734 60.6367 26.2867 60.6543 26.3609 60.6895C26.4352 60.7207 26.4977 60.7578 26.5484 60.8008C26.6187 60.8633 26.6695 60.9277 26.7008 60.9941C26.732 61.0566 26.7574 61.1035 26.777 61.1348C26.8004 61.166 26.8355 61.1816 26.8824 61.1816C26.9332 61.1816 26.9742 61.166 27.0055 61.1348L27.1109 61.0352C27.4156 60.7695 27.732 60.6367 28.0602 60.6367ZM33.6523 60.6367C33.75 60.6367 33.8457 60.6504 33.9395 60.6777C34.0332 60.7051 34.1211 60.748 34.2031 60.8066C34.3906 60.9434 34.4844 61.1328 34.4844 61.375C34.4844 61.5703 34.4336 61.7168 34.332 61.8145C34.1562 61.9824 33.9922 62.0664 33.8398 62.0664C33.6445 62.0664 33.4668 62.0039 33.3066 61.8789C33.1816 61.7969 33.041 61.7559 32.8848 61.7559C32.7285 61.7559 32.6055 61.8066 32.5156 61.9082C32.4258 62.0059 32.3809 62.1309 32.3809 62.2832V66.4258C32.3809 66.6133 32.332 66.7578 32.2344 66.8594C32.0586 67.0312 31.8984 67.1172 31.7539 67.1172C31.6133 67.1172 31.5 67.0977 31.4141 67.0586C31.332 67.0234 31.2598 66.9746 31.1973 66.9121C31.0605 66.7754 30.9922 66.6133 30.9922 66.4258V61.3398C30.9922 61.1484 31.043 61 31.1445 60.8945C31.3086 60.7227 31.4648 60.6367 31.6133 60.6367C31.7656 60.6367 31.8789 60.6543 31.9531 60.6895C32.0273 60.7207 32.0898 60.7578 32.1406 60.8008C32.2109 60.8633 32.2617 60.9277 32.293 60.9941C32.3242 61.0566 32.3496 61.1035 32.3691 61.1348C32.3926 61.166 32.4277 61.1816 32.4746 61.1816C32.5254 61.1816 32.5664 61.166 32.5977 61.1348L32.7031 61.0352C33.0078 60.7695 33.3242 60.6367 33.6523 60.6367ZM37.0414 61.2871C37.0414 61.0527 37.1508 60.8887 37.3695 60.7949C37.432 60.7676 37.5004 60.7539 37.5746 60.7539H38.9574C39.434 60.7539 39.8422 60.9238 40.182 61.2637C40.5219 61.6035 40.6918 62.0117 40.6918 62.4883V66.4316C40.6918 66.7285 40.5512 66.9375 40.2699 67.0586C40.184 67.0977 40.0902 67.1172 39.9887 67.1172C39.8871 67.1172 39.7992 67.0996 39.725 67.0645C39.6547 67.0332 39.5941 66.9961 39.5434 66.9531C39.5004 66.9141 39.4574 66.8594 39.4145 66.7891C39.3715 66.7148 39.3383 66.6602 39.3148 66.625C39.2914 66.5898 39.2543 66.5723 39.2035 66.5723C39.1527 66.5723 39.1117 66.5898 39.0805 66.625L38.9867 66.7246C38.725 66.9863 38.4184 67.1172 38.0668 67.1172C37.6488 67.1172 37.2875 66.9453 36.9828 66.6016C36.6781 66.2617 36.5258 65.8555 36.5258 65.3828V64.5742C36.5258 64.0977 36.6957 63.6895 37.0355 63.3496C37.3715 63.0137 37.7797 62.8457 38.2602 62.8457H39.3031V62.5059C39.3031 62.3105 39.2543 62.1641 39.1566 62.0664C38.9848 61.8945 38.8031 61.8086 38.6117 61.8086H37.5746C37.4301 61.8086 37.3187 61.7715 37.2406 61.6973C37.1078 61.5723 37.0414 61.4355 37.0414 61.2871ZM37.9145 65.3711C37.9145 65.5703 37.9633 65.7168 38.0609 65.8105C38.2328 65.9746 38.391 66.0566 38.5355 66.0566C38.6801 66.0566 38.7934 66.043 38.8754 66.0156C38.9613 65.9883 39.0355 65.9492 39.098 65.8984C39.2348 65.7891 39.3031 65.6445 39.3031 65.4648V63.8945H38.6117C38.4125 63.8945 38.2641 63.9434 38.1664 64.041C37.9984 64.209 37.9145 64.3906 37.9145 64.5859V65.3711ZM43.8934 67C43.7488 67 43.6238 66.9492 43.5184 66.8477C43.4129 66.7461 43.3602 66.6406 43.3602 66.5312C43.3602 66.4219 43.3738 66.3359 43.4012 66.2734C43.4324 66.207 43.4734 66.1484 43.5242 66.0977C43.6297 65.9922 43.7527 65.9395 43.8934 65.9395H45.1883C45.4266 65.9395 45.618 65.873 45.7625 65.7402C45.907 65.6035 45.9793 65.4355 45.9793 65.2363C45.9793 65.0371 45.9246 64.877 45.8152 64.7559C45.7059 64.6309 45.5711 64.543 45.4109 64.4922L44.3562 64.1992C43.993 64.0898 43.7039 63.8867 43.4891 63.5898C43.2703 63.2891 43.1609 62.9707 43.1609 62.6348C43.1609 62.2988 43.2098 62.0215 43.3074 61.8027C43.409 61.584 43.5437 61.3965 43.7117 61.2402C44.0594 60.916 44.4891 60.7539 45.0008 60.7539H46.4305C46.5789 60.7539 46.702 60.8066 46.7996 60.9121C46.8973 61.0137 46.9461 61.1387 46.9461 61.2871C46.9461 61.4355 46.8973 61.5605 46.7996 61.6621C46.702 61.7598 46.5789 61.8086 46.4305 61.8086H45.1121C44.9129 61.8086 44.7566 61.8672 44.6434 61.9844C44.534 62.1016 44.4793 62.2402 44.4793 62.4004C44.4793 62.6504 44.618 62.8379 44.8953 62.9629L46.0437 63.2969C46.6609 63.5039 47.0711 63.8945 47.2742 64.4688C47.3406 64.6641 47.3738 64.8887 47.3738 65.1426C47.3738 65.3965 47.3211 65.6387 47.2156 65.8691C47.1141 66.0996 46.9773 66.2988 46.8055 66.4668C46.4422 66.8223 46.0145 67 45.5223 67H43.8934ZM52.4504 62.002C52.2824 61.7949 52.0773 61.6914 51.8352 61.6914C51.6242 61.6914 51.468 61.7422 51.3664 61.8438C51.1984 62.0117 51.1145 62.1934 51.1145 62.3887V65.2539C51.1145 65.4531 51.1633 65.5996 51.2609 65.6934C51.4328 65.8574 51.6145 65.9395 51.8059 65.9395H53.2473C53.4777 65.9395 53.6398 66.0508 53.7336 66.2734C53.7609 66.3359 53.7746 66.4043 53.7746 66.4785C53.7746 66.5488 53.7609 66.6172 53.7336 66.6836C53.7062 66.7461 53.6691 66.8008 53.6223 66.8477C53.5207 66.9492 53.3957 67 53.2473 67H51.4602C50.9836 67 50.5754 66.8301 50.2355 66.4902C49.8957 66.1504 49.7258 65.7422 49.7258 65.2656V62.3594C49.7258 61.8555 49.8957 61.4492 50.2355 61.1406C50.6066 60.8047 51.1301 60.6367 51.8059 60.6367C52.716 60.6367 53.3234 60.8477 53.6281 61.2695C53.7258 61.3984 53.7746 61.5293 53.7746 61.6621C53.7746 61.791 53.757 61.8984 53.7219 61.9844C53.6867 62.0664 53.6379 62.1387 53.5754 62.2012C53.4426 62.334 53.2922 62.4004 53.1242 62.4004C52.8508 62.4004 52.6262 62.2676 52.4504 62.002ZM56.3258 62.3594C56.3258 61.832 56.5055 61.4141 56.8648 61.1055C57.2398 60.793 57.7555 60.6367 58.4117 60.6367C59.0602 60.6367 59.5719 60.793 59.9469 61.1055C60.3102 61.418 60.4918 61.8398 60.4918 62.3711V65.4004C60.4918 66.2168 60.0934 66.75 59.2965 67C59.0387 67.0781 58.7437 67.1172 58.4117 67.1172C58.0836 67.1172 57.7906 67.0781 57.5328 67C57.275 66.918 57.0562 66.8008 56.8766 66.6484C56.5094 66.3438 56.3258 65.9219 56.3258 65.3828V62.3594ZM59.1031 62.3887C59.1031 62.1934 59.0543 62.0469 58.9566 61.9492C58.7848 61.7773 58.6031 61.6914 58.4117 61.6914C58.2164 61.6914 58.068 61.7422 57.9664 61.8438C57.7984 62.0117 57.7145 62.1934 57.7145 62.3887V65.4355C57.7145 65.6348 57.7809 65.7891 57.9137 65.8984C58.0465 66.0039 58.2105 66.0566 58.4059 66.0566C58.6051 66.0566 58.7711 66.0039 58.9039 65.8984C59.0367 65.7891 59.1031 65.6348 59.1031 65.4355V62.3887ZM59.7711 59.1133C59.8219 59.207 59.8473 59.2969 59.8473 59.3828C59.8473 59.4688 59.8141 59.5488 59.7477 59.623C59.6812 59.6973 59.609 59.7344 59.5309 59.7344C59.3746 59.7344 59.2574 59.6953 59.1793 59.6172L58.4117 58.832L57.6441 59.6172C57.566 59.6953 57.4684 59.7344 57.3512 59.7344C57.234 59.7344 57.1422 59.6973 57.0758 59.623C57.0094 59.5488 56.9762 59.4688 56.9762 59.3828C56.9762 59.2969 57.0016 59.207 57.0523 59.1133L57.7555 57.8652C57.9195 57.5684 58.1402 57.4199 58.4176 57.4199C58.6715 57.4199 58.8883 57.5684 59.068 57.8652L59.7711 59.1133ZM64.2734 66.8652C64.1758 66.959 64.084 67.0234 63.998 67.0586C63.916 67.0977 63.8262 67.1172 63.7285 67.1172C63.6348 67.1172 63.5449 67.0996 63.459 67.0645C63.377 67.0293 63.3047 66.9805 63.2422 66.918C63.1055 66.7812 63.0371 66.6191 63.0371 66.4316V61.3398C63.0371 61.1484 63.0859 61 63.1836 60.8945C63.3516 60.7227 63.5098 60.6367 63.6582 60.6367C63.8105 60.6367 63.9238 60.6523 63.998 60.6836C64.0723 60.7148 64.1348 60.7539 64.1855 60.8008C64.252 60.8594 64.3008 60.9219 64.332 60.9883C64.3672 61.0547 64.3945 61.1035 64.4141 61.1348C64.4375 61.166 64.4727 61.1816 64.5195 61.1816C64.5703 61.1816 64.6133 61.166 64.6484 61.1348L64.748 61.0352C65.0332 60.7695 65.3184 60.6367 65.6035 60.6367C66.1074 60.6367 66.5234 60.8438 66.8516 61.2578C66.8828 61.3008 66.9219 61.3223 66.9688 61.3223C67.0508 61.3223 67.1328 61.2598 67.2148 61.1348C67.3008 61.0059 67.4375 60.8906 67.625 60.7891C67.8125 60.6875 68.0312 60.6367 68.2812 60.6367C68.5312 60.6367 68.7578 60.6836 68.9609 60.7773C69.168 60.8672 69.3477 60.9922 69.5 61.1523C69.8203 61.4883 69.9805 61.8945 69.9805 62.3711V66.4316C69.9805 66.7285 69.8398 66.9375 69.5586 67.0586C69.4727 67.0977 69.3809 67.1172 69.2832 67.1172C69.1895 67.1172 69.0996 67.0996 69.0137 67.0645C68.9316 67.0293 68.8594 66.9805 68.7969 66.918C68.6641 66.7773 68.5977 66.6152 68.5977 66.4316V62.3887C68.5977 62.1934 68.5488 62.0469 68.4512 61.9492C68.2793 61.7773 68.1211 61.6914 67.9766 61.6914C67.832 61.6914 67.7188 61.7109 67.6367 61.75C67.5547 61.7852 67.4805 61.8359 67.4141 61.9023C67.2773 62.0391 67.209 62.1973 67.209 62.377V66.4316C67.209 66.7285 67.0703 66.9375 66.793 67.0586C66.707 67.0977 66.6152 67.1172 66.5176 67.1172C66.4238 67.1172 66.334 67.0996 66.248 67.0645C66.1621 67.0293 66.0879 66.9805 66.0254 66.918C65.8887 66.7812 65.8203 66.6191 65.8203 66.4316V62.3887C65.8203 62.1934 65.7715 62.0469 65.6738 61.9492C65.502 61.7773 65.3223 61.6914 65.1348 61.6914C64.8223 61.6914 64.6055 61.8125 64.4844 62.0547C64.4453 62.1328 64.4258 62.2207 64.4258 62.3184V66.4316C64.4258 66.623 64.375 66.7676 64.2734 66.8652ZM75.643 65.9395C75.7914 65.9395 75.9164 65.9922 76.018 66.0977C76.1195 66.2031 76.1703 66.3301 76.1703 66.4785C76.1703 66.623 76.1195 66.7461 76.018 66.8477C75.9164 66.9492 75.7914 67 75.643 67H74.2602C73.7836 67 73.3754 66.8301 73.0355 66.4902C72.6957 66.1504 72.5258 65.7422 72.5258 65.2656V62.3887C72.5258 61.8574 72.7055 61.4336 73.0648 61.1172C73.4398 60.7969 73.9555 60.6367 74.6117 60.6367C75.2602 60.6367 75.7719 60.7969 76.1469 61.1172C76.5102 61.4375 76.6918 61.8652 76.6918 62.4004V64.041C76.6918 64.2363 76.643 64.3828 76.5453 64.4805C76.3773 64.6484 76.1937 64.7324 75.9945 64.7324H73.9145V65.2539C73.9145 65.4531 73.9633 65.5996 74.0609 65.6934C74.2328 65.8574 74.4145 65.9395 74.6059 65.9395H75.643ZM75.3031 62.3887C75.3031 62.1934 75.2543 62.0469 75.1566 61.9492C74.9848 61.7773 74.8031 61.6914 74.6117 61.6914C74.4164 61.6914 74.268 61.7422 74.1664 61.8437C73.9984 62.0117 73.9145 62.1934 73.9145 62.3887V63.707H75.3031V62.3887ZM82.1434 65.9395C82.2918 65.9395 82.4148 65.9922 82.5125 66.0977C82.6102 66.2031 82.659 66.3301 82.659 66.4785C82.659 66.623 82.6102 66.7461 82.5125 66.8477C82.4148 66.9492 82.2918 67 82.1434 67H81.4402C80.9637 67 80.5555 66.8301 80.2156 66.4902C79.8797 66.1543 79.7117 65.7461 79.7117 65.2656V61.7852H79.0203C78.7977 61.7852 78.6395 61.6797 78.5457 61.4687C78.5184 61.4062 78.5047 61.3398 78.5047 61.2695C78.5047 61.0469 78.6102 60.8887 78.8211 60.7949C78.8836 60.7676 78.95 60.7539 79.0203 60.7539H79.7117V59.5352C79.7117 59.2266 79.8523 59.0117 80.1336 58.8906C80.2156 58.8516 80.3055 58.832 80.4031 58.832C80.5945 58.832 80.7391 58.8828 80.8367 58.9844C81.0086 59.1523 81.0945 59.3359 81.0945 59.5352V60.7539H82.1551C82.2918 60.7539 82.3973 60.791 82.4715 60.8652C82.5965 60.9902 82.659 61.125 82.659 61.2695C82.659 61.4102 82.6102 61.5312 82.5125 61.6328C82.4148 61.7344 82.2957 61.7852 82.1551 61.7852H81.0945V65.2539C81.0945 65.4492 81.1453 65.5938 81.2469 65.6875C81.4187 65.8555 81.5984 65.9395 81.7859 65.9395H82.1434ZM87.425 60.6367C87.5227 60.6367 87.6184 60.6504 87.7121 60.6777C87.8059 60.7051 87.8937 60.748 87.9758 60.8066C88.1633 60.9434 88.257 61.1328 88.257 61.375C88.257 61.5703 88.2062 61.7168 88.1047 61.8145C87.9289 61.9824 87.7648 62.0664 87.6125 62.0664C87.4172 62.0664 87.2394 62.0039 87.0793 61.8789C86.9543 61.7969 86.8137 61.7559 86.6574 61.7559C86.5012 61.7559 86.3781 61.8066 86.2883 61.9082C86.1984 62.0059 86.1535 62.1309 86.1535 62.2832V66.4258C86.1535 66.6133 86.1047 66.7578 86.007 66.8594C85.8312 67.0312 85.6711 67.1172 85.5266 67.1172C85.3859 67.1172 85.2727 67.0977 85.1867 67.0586C85.1047 67.0234 85.0324 66.9746 84.9699 66.9121C84.8332 66.7754 84.7648 66.6133 84.7648 66.4258V61.3398C84.7648 61.1484 84.8156 61 84.9172 60.8945C85.0812 60.7227 85.2375 60.6367 85.3859 60.6367C85.5383 60.6367 85.6516 60.6543 85.7258 60.6895C85.8 60.7207 85.8625 60.7578 85.9133 60.8008C85.9836 60.8633 86.0344 60.9277 86.0656 60.9941C86.0969 61.0566 86.1223 61.1035 86.1418 61.1348C86.1652 61.166 86.2004 61.1816 86.2473 61.1816C86.298 61.1816 86.3391 61.166 86.3703 61.1348L86.4758 61.0352C86.7805 60.7695 87.0969 60.6367 87.425 60.6367ZM90.2984 62.3594C90.2984 61.832 90.4781 61.4141 90.8375 61.1055C91.2125 60.793 91.7281 60.6367 92.3844 60.6367C93.0328 60.6367 93.5445 60.793 93.9195 61.1055C94.2828 61.418 94.4645 61.8398 94.4645 62.3711V65.4004C94.4645 66.2168 94.066 66.75 93.2691 67C93.0113 67.0781 92.7164 67.1172 92.3844 67.1172C92.0563 67.1172 91.7633 67.0781 91.5055 67C91.2477 66.918 91.0289 66.8008 90.8492 66.6484C90.482 66.3438 90.2984 65.9219 90.2984 65.3828V62.3594ZM93.0758 62.3887C93.0758 62.1934 93.027 62.0469 92.9293 61.9492C92.7574 61.7773 92.5758 61.6914 92.3844 61.6914C92.1891 61.6914 92.0406 61.7422 91.9391 61.8437C91.7711 62.0117 91.6871 62.1934 91.6871 62.3887V65.4355C91.6871 65.6348 91.7535 65.7891 91.8863 65.8984C92.0191 66.0039 92.1832 66.0566 92.3785 66.0566C92.5777 66.0566 92.7438 66.0039 92.8766 65.8984C93.0094 65.7891 93.0758 65.6348 93.0758 65.4355V62.3887Z" fill="#F7B267"/>
</g>
<g filter="url(#filter1_d)">
<path d="M17.5884 45.9437C16.9253 45.2806 16.5145 44.3651 16.5145 43.3553C16.5145 41.336 18.1574 39.6932 20.1767 39.6932C20.5813 39.6931 20.9092 40.0211 20.9092 40.4255C20.9092 40.83 20.5812 41.158 20.1768 41.1579C18.9652 41.158 17.9795 42.1437 17.9795 43.3552C17.9795 44.5668 18.9652 45.5525 20.1768 45.5525C20.6562 45.5525 21.1115 45.4009 21.4938 45.1142L23.8403 43.3543C24.478 42.8759 25.2374 42.6229 26.0363 42.6229L84.6749 42.6228C85.0795 42.623 85.4073 42.9509 85.4073 43.3553C85.4073 43.7599 85.0794 44.0878 84.6749 44.0878L26.0363 44.0878C25.557 44.0878 25.1016 44.2394 24.7194 44.5261L22.3729 46.2862C21.7351 46.7647 20.9757 47.0175 20.1768 47.0176C19.1671 47.0176 18.2515 46.6069 17.5884 45.9437Z" fill="#999999"/>
<path d="M49.5175 50.6799C51.1357 50.6799 52.4474 49.3682 52.4473 47.7502L52.4473 44.8204L43.6579 44.8204L43.6579 47.7502C43.6579 49.3683 44.9696 50.68 46.5877 50.6799C47.1215 50.6799 47.6216 50.5364 48.0526 50.287C48.4836 50.5364 48.9837 50.6799 49.5175 50.6799Z" fill="#A44129"/>
<path d="M46.5876 47.7501C47.1214 47.7501 47.6215 47.6066 48.0526 47.3572C48.4836 47.6066 48.9836 47.7501 49.5175 47.7501C51.1357 47.7501 52.4474 46.4384 52.4473 44.8203L52.4473 38.9608C52.4473 37.3427 51.1356 36.031 49.5176 36.0311C48.9838 36.0311 48.4837 36.1746 48.0526 36.424C47.6216 36.1746 47.1216 36.0311 46.5877 36.0311C44.9695 36.0311 43.6578 37.3428 43.6579 38.9608L43.6579 44.8204C43.6579 46.4385 44.9696 47.7502 46.5876 47.7501Z" fill="#B6502F"/>
<path d="M48.9996 48.2679C49.2856 48.554 49.7493 48.554 50.0354 48.2679C50.3214 47.9819 50.3214 47.5182 50.0354 47.2321C49.7493 46.9461 49.2856 46.9461 48.9996 47.2321C48.7135 47.5182 48.7135 47.9819 48.9996 48.2679Z" fill="#913122"/>
<path d="M46.0699 45.3382C46.3559 45.6243 46.8196 45.6243 47.1057 45.3382C47.3917 45.0522 47.3917 44.5885 47.1057 44.3024C46.8196 44.0164 46.3559 44.0164 46.0699 44.3024C45.7838 44.5885 45.7838 45.0522 46.0699 45.3382Z" fill="#A44129"/>
<path d="M70.026 47.7501L67.0962 46.2853L64.1664 47.7501L64.1664 49.9475C64.1664 50.352 64.4943 50.68 64.8988 50.68L69.2935 50.68C69.6981 50.68 70.026 50.352 70.026 49.9475L70.026 47.7501Z" fill="#1DA575"/>
<path d="M70.0261 47.7501L70.0261 38.9607L64.1665 44.8203L64.1666 47.7501L70.0261 47.7501Z" fill="#0ABF52"/>
<path d="M70.026 38.9607L70.026 36.7634C70.026 36.3588 69.6981 36.0309 69.2935 36.0309L64.8988 36.0309C64.4943 36.0309 64.1664 36.3589 64.1664 36.7634L64.1663 44.8203C67.4026 44.8203 70.026 42.197 70.026 38.9607Z" fill="#5CC563"/>
<path d="M29.0872 50.2508C29.9178 49.4202 30.5669 48.4758 31.0347 47.4673L28.3782 46.2312C28.051 46.9369 27.5968 47.5978 27.0157 48.1792C26.4436 48.7512 26.4436 49.6788 27.0157 50.2508C27.5876 50.823 28.5151 50.823 29.0872 50.2508Z" fill="#DB2116"/>
<path d="M31.0346 47.4674C31.6374 46.1677 31.9389 44.7617 31.9389 43.3556C31.9389 40.8584 30.9883 38.3613 29.0872 36.4602C28.5152 35.888 27.5877 35.888 27.0156 36.4602C26.4435 37.0322 26.4435 37.9598 27.0156 38.5318C28.3454 39.8618 29.0103 41.6087 29.0104 43.3556C29.0104 44.3389 28.7996 45.3223 28.3781 46.2314C28.0374 46.9644 28.3549 47.8352 29.0878 48.1767C29.8211 48.5183 30.693 48.2007 31.0346 47.4674Z" fill="#FF3A2F"/>
<path d="M40.728 47.7503L37.7982 46.2854L34.8684 47.7503L34.8684 49.9476C34.8684 50.3521 35.1963 50.6801 35.6009 50.6801L39.9956 50.6801C40.4001 50.6801 40.728 50.3521 40.728 49.9476L40.728 47.7503Z" fill="#0ABF52"/>
<path d="M40.7281 47.7502L40.728 36.7635C40.728 36.359 40.4001 36.031 39.9956 36.031L35.6009 36.031C35.1963 36.031 34.8684 36.359 34.8684 36.7635L34.8684 41.8906L40.728 47.7503L40.7281 47.7502Z" fill="#ADCB74"/>
<path d="M34.8686 41.8906L34.8686 47.7501L40.7281 47.7501C40.7281 44.5139 38.1048 41.8906 34.8686 41.8906Z" fill="#5CC563"/>
<path d="M81.7452 43.3554L72.9558 43.3554C72.9557 45.7826 74.9233 47.7501 77.3505 47.7501C79.7776 47.7501 81.7452 45.7826 81.7452 43.3554Z" fill="#FF3A2F"/>
<path d="M77.3505 44.8202C79.7777 44.8202 81.7452 44.1643 81.7452 43.3553C81.7452 40.9282 79.7776 38.9606 77.3505 38.9606C74.9233 38.9606 72.9558 40.9282 72.9557 43.3553C72.9558 44.1643 74.9234 44.8202 77.3505 44.8202Z" fill="#FF5A35"/>
<path d="M58.3069 36.031C56.6888 36.031 55.3771 37.3427 55.3771 38.9607L55.3771 41.8905L61.2366 41.8905L61.2366 38.9607C61.2367 37.3427 59.925 36.031 58.3069 36.031Z" fill="#FFE8C2"/>
<path d="M61.2366 47.7501L61.2366 44.8203L55.3771 44.8203L55.3771 47.7501C55.3771 49.3682 56.6888 50.6799 58.3069 50.6798C59.9249 50.6798 61.2366 49.3682 61.2366 47.7501Z" fill="#FFBA48"/>
<path d="M58.3069 45.7969C59.925 45.7969 61.2366 45.3597 61.2366 44.8203L61.2366 41.8906C61.2366 41.3512 59.9249 40.9139 58.3069 40.914C56.6888 40.9141 55.3771 41.3513 55.3771 41.8906L55.3771 44.8203C55.377 45.3597 56.6888 45.7969 58.3069 45.7969Z" fill="#FFD185"/>
</g>
<defs>
<filter id="filter0_d" x="1.52966" y="57.4199" width="96.9348" height="17.6973" filterUnits="userSpaceOnUse" color-interpolation-filters="sRGB">
<feFlood flood-opacity="0" result="BackgroundImageFix"/>
<feColorMatrix in="SourceAlpha" type="matrix" values="0 0 0 0 0 0 0 0 0 0 0 0 0 0 0 0 0 0 127 0" result="hardAlpha"/>
<feOffset dy="4"/>
<feGaussianBlur stdDeviation="2"/>
<feColorMatrix type="matrix" values="0 0 0 0 0 0 0 0 0 0 0 0 0 0 0 0 0 0 0.25 0"/>
<feBlend mode="normal" in2="BackgroundImageFix" result="effect1_dropShadow"/>
<feBlend mode="normal" in="SourceGraphic" in2="effect1_dropShadow" result="shape"/>
</filter>
<filter id="filter1_d" x="11" y="8" width="78.7107" height="78.7107" filterUnits="userSpaceOnUse" color-interpolation-filters="sRGB">
<feFlood flood-opacity="0" result="BackgroundImageFix"/>
<feColorMatrix in="SourceAlpha" type="matrix" values="0 0 0 0 0 0 0 0 0 0 0 0 0 0 0 0 0 0 127 0" result="hardAlpha"/>
<feOffset dy="4"/>
<feGaussianBlur stdDeviation="2"/>
<feColorMatrix type="matrix" values="0 0 0 0 0 0 0 0 0 0 0 0 0 0 0 0 0 0 0.25 0"/>
<feBlend mode="normal" in2="BackgroundImageFix" result="effect1_dropShadow"/>
<feBlend mode="normal" in="SourceGraphic" in2="effect1_dropShadow" result="shape"/>
</filter>
</defs>
</svg>
