<svg width="201" height="100" viewBox="0 0 201 100" fill="none" xmlns="http://www.w3.org/2000/svg">
<path d="M0.0135498 3C0.0135498 1.34314 1.3567 0 3.01355 0H197.014C198.67 0 200.014 1.34315 200.014 3V97C200.014 98.6569 198.67 100 197.014 100H3.01355C1.35669 100 0.0135498 98.6569 0.0135498 97V3Z" fill="#FF6262"/>
<g filter="url(#filter0_d)">
<path d="M30.3983 64.3711C30.5025 64.2409 30.5969 64.1074 30.6815 63.9707C30.7662 63.8275 30.8085 63.6647 30.8085 63.4824C30.8085 63.3001 30.7759 63.1406 30.7108 63.0039C30.6457 62.8607 30.5546 62.737 30.4374 62.6328C30.1835 62.4049 29.8612 62.291 29.4706 62.291C29.08 62.291 28.7707 62.4049 28.5428 62.6328C28.3215 62.8542 28.2108 63.1276 28.2108 63.4531V71.3828C28.2108 71.7148 28.3182 71.972 28.5331 72.1543C28.7544 72.3301 29.0279 72.418 29.3534 72.418C29.6854 72.418 29.9621 72.3301 30.1835 72.1543C30.4048 71.972 30.5155 71.7148 30.5155 71.3828V70.748C30.5155 70.4225 30.5969 70.1784 30.7596 70.0156C31.0396 69.7357 31.3 69.5957 31.5409 69.5957C31.7818 69.5957 31.9738 69.625 32.1171 69.6836C32.2603 69.7422 32.384 69.8236 32.4882 69.9277C32.716 70.1556 32.83 70.429 32.83 70.748V71.3242C32.83 72.6849 32.1659 73.5703 30.8378 73.9805C30.4081 74.1172 29.9165 74.1855 29.3632 74.1855C28.8163 74.1855 28.328 74.1204 27.8983 73.9902C27.4686 73.8535 27.1073 73.6615 26.8143 73.4141C26.2024 72.8932 25.8964 72.1868 25.8964 71.2949V63.4043C25.8964 62.5254 26.1958 61.832 26.7948 61.3242C27.4198 60.7969 28.2759 60.5332 29.3632 60.5332C30.483 60.5332 31.3586 60.7969 31.9901 61.3242C32.6151 61.8385 32.9276 62.5352 32.9276 63.4141C32.9276 64.7878 32.576 65.7155 31.8729 66.1973C31.6581 66.347 31.44 66.4219 31.2186 66.4219C31.0038 66.4219 30.8247 66.3926 30.6815 66.334C30.5448 66.2754 30.4244 66.194 30.3202 66.0898C30.0988 65.8815 29.9882 65.6439 29.9882 65.377C29.9882 65.11 30.0305 64.9082 30.1151 64.7715C30.1997 64.6283 30.2941 64.4948 30.3983 64.3711ZM38.9862 73.7754C38.8234 73.9316 38.6705 74.0391 38.5272 74.0977C38.3905 74.1628 38.2408 74.1953 38.078 74.1953C37.9218 74.1953 37.772 74.166 37.6288 74.1074C37.4856 74.0488 37.3619 73.9674 37.2577 73.8633C37.0298 73.6354 36.9159 73.3652 36.9159 73.0527V60.1328C36.9159 59.8138 37.0005 59.5729 37.1698 59.4102C37.4497 59.1237 37.7102 58.9805 37.951 58.9805C38.1984 58.9805 38.3905 59.0098 38.5272 59.0684C38.6705 59.127 38.7941 59.2083 38.8983 59.3125C39.1262 59.5404 39.2401 59.8138 39.2401 60.1328V63.9902C39.2401 64.1139 39.2727 64.1986 39.3378 64.2441C39.4094 64.2832 39.4777 64.3027 39.5428 64.3027C39.608 64.3027 39.6698 64.2734 39.7284 64.2148L39.8846 64.0586C40.3274 63.6159 40.8384 63.3945 41.4178 63.3945C42.121 63.3945 42.7037 63.681 43.1659 64.2539C43.6281 64.8203 43.8593 65.4974 43.8593 66.2852V73.0527C43.8593 73.5475 43.6281 73.8958 43.1659 74.0977C43.0227 74.1628 42.8697 74.1953 42.7069 74.1953C42.5507 74.1953 42.4009 74.166 42.2577 74.1074C42.1145 74.0488 41.9908 73.9674 41.8866 73.8633C41.6587 73.6354 41.5448 73.3652 41.5448 73.0527V66.3145C41.5448 65.9889 41.4634 65.7448 41.3007 65.582C41.0142 65.2956 40.7505 65.1523 40.5096 65.1523C40.2753 65.1523 40.0897 65.1784 39.953 65.2305C39.8163 65.276 39.6958 65.3444 39.5917 65.4355C39.3573 65.6309 39.2401 65.8848 39.2401 66.1973V73.0527C39.2401 73.3717 39.1555 73.6126 38.9862 73.7754ZM52.7889 63.8242C52.9582 63.6615 53.1112 63.5508 53.2479 63.4922C53.3912 63.4271 53.5409 63.3945 53.6971 63.3945C53.8599 63.3945 54.0096 63.4238 54.1464 63.4824C54.2896 63.541 54.4133 63.6224 54.5175 63.7266C54.7453 63.9544 54.8593 64.2246 54.8593 64.5371V73.0234C54.8593 73.3424 54.7779 73.5898 54.6151 73.7656C54.3352 74.0521 54.0682 74.1953 53.8143 74.1953C53.5669 74.1953 53.3814 74.166 53.2577 74.1074C53.134 74.0553 53.0331 73.9935 52.955 73.9219C52.8313 73.8177 52.7434 73.7135 52.6913 73.6094C52.6457 73.4987 52.6034 73.4173 52.5643 73.3652C52.5253 73.3132 52.4634 73.2871 52.3788 73.2871C52.3007 73.2871 52.2356 73.3164 52.1835 73.375C52.1314 73.4271 52.0468 73.5117 51.9296 73.6289C51.5389 74.0065 51.1093 74.1953 50.6405 74.1953C50.1783 74.1953 49.7909 74.1204 49.4784 73.9707C49.1659 73.8145 48.8925 73.6029 48.6581 73.3359C48.1633 72.7695 47.9159 72.0924 47.9159 71.3047V64.5371C47.9159 64.0423 48.1503 63.694 48.619 63.4922C48.7557 63.4271 48.9022 63.3945 49.0585 63.3945C49.2212 63.3945 49.3742 63.4238 49.5175 63.4824C49.6607 63.541 49.7844 63.6224 49.8885 63.7266C50.1164 63.9544 50.2303 64.2246 50.2303 64.5371V71.2754C50.2303 71.6009 50.3117 71.8451 50.4745 72.0078C50.7609 72.2943 51.0604 72.4375 51.3729 72.4375C51.8872 72.4375 52.2453 72.2357 52.4471 71.832C52.5122 71.7018 52.5448 71.5553 52.5448 71.3926V64.5371C52.5448 64.2181 52.6262 63.9805 52.7889 63.8242ZM63.4471 63.3945C63.6099 63.3945 63.7694 63.4173 63.9257 63.4629C64.0819 63.5085 64.2284 63.5801 64.3651 63.6777C64.6776 63.9056 64.8339 64.2214 64.8339 64.625C64.8339 64.9505 64.7492 65.1947 64.58 65.3574C64.287 65.6374 64.0135 65.7773 63.7596 65.7773C63.4341 65.7773 63.1379 65.6732 62.871 65.4648C62.6626 65.3281 62.4283 65.2598 62.1678 65.2598C61.9074 65.2598 61.7024 65.3444 61.5526 65.5137C61.4029 65.6764 61.328 65.8848 61.328 66.1387V73.043C61.328 73.3555 61.2466 73.5964 61.0839 73.7656C60.7909 74.0521 60.524 74.1953 60.2831 74.1953C60.0487 74.1953 59.8599 74.1628 59.7167 74.0977C59.58 74.0391 59.4595 73.9577 59.3553 73.8535C59.1275 73.6257 59.0135 73.3555 59.0135 73.043V64.5664C59.0135 64.2474 59.0982 64 59.2675 63.8242C59.5409 63.5378 59.8013 63.3945 60.0487 63.3945C60.3026 63.3945 60.4914 63.4238 60.6151 63.4824C60.7388 63.5345 60.843 63.5964 60.9276 63.668C61.0448 63.7721 61.1294 63.8796 61.1815 63.9902C61.2336 64.0944 61.2759 64.1725 61.3085 64.2246C61.3475 64.2767 61.4061 64.3027 61.4843 64.3027C61.5689 64.3027 61.6372 64.2767 61.6893 64.2246L61.8651 64.0586C62.3729 63.6159 62.9003 63.3945 63.4471 63.3945ZM72.7675 63.3945C72.9302 63.3945 73.0897 63.4173 73.246 63.4629C73.4022 63.5085 73.5487 63.5801 73.6854 63.6777C73.9979 63.9056 74.1542 64.2214 74.1542 64.625C74.1542 64.9505 74.0695 65.1947 73.9003 65.3574C73.6073 65.6374 73.3339 65.7773 73.08 65.7773C72.7544 65.7773 72.4582 65.6732 72.1913 65.4648C71.983 65.3281 71.7486 65.2598 71.4882 65.2598C71.2277 65.2598 71.0227 65.3444 70.8729 65.5137C70.7232 65.6764 70.6483 65.8848 70.6483 66.1387V73.043C70.6483 73.3555 70.5669 73.5964 70.4042 73.7656C70.1112 74.0521 69.8443 74.1953 69.6034 74.1953C69.369 74.1953 69.1802 74.1628 69.037 74.0977C68.9003 74.0391 68.7798 73.9577 68.6757 73.8535C68.4478 73.6257 68.3339 73.3555 68.3339 73.043V64.5664C68.3339 64.2474 68.4185 64 68.5878 63.8242C68.8612 63.5378 69.1216 63.3945 69.369 63.3945C69.6229 63.3945 69.8117 63.4238 69.9354 63.4824C70.0591 63.5345 70.1633 63.5964 70.2479 63.668C70.3651 63.7721 70.4497 63.8796 70.5018 63.9902C70.5539 64.0944 70.5962 64.1725 70.6288 64.2246C70.6678 64.2767 70.7264 64.3027 70.8046 64.3027C70.8892 64.3027 70.9576 64.2767 71.0096 64.2246L71.1854 64.0586C71.6932 63.6159 72.2206 63.3945 72.7675 63.3945ZM78.4159 64.4785C78.4159 64.0879 78.5982 63.8145 78.9628 63.6582C79.0669 63.6126 79.1809 63.5898 79.3046 63.5898H81.6093C82.4035 63.5898 83.0839 63.873 83.6503 64.4395C84.2167 65.0059 84.4999 65.6862 84.4999 66.4805V73.0527C84.4999 73.5475 84.2655 73.8958 83.7968 74.0977C83.6535 74.1628 83.4973 74.1953 83.328 74.1953C83.1587 74.1953 83.0122 74.166 82.8885 74.1074C82.7714 74.0553 82.6705 73.9935 82.5858 73.9219C82.5142 73.8568 82.4426 73.7656 82.371 73.6484C82.2994 73.5247 82.244 73.4336 82.205 73.375C82.1659 73.3164 82.104 73.2871 82.0194 73.2871C81.9348 73.2871 81.8664 73.3164 81.8143 73.375L81.6581 73.541C81.2219 73.9772 80.7108 74.1953 80.1249 74.1953C79.4283 74.1953 78.826 73.9089 78.3182 73.3359C77.8104 72.7695 77.5565 72.0924 77.5565 71.3047V69.957C77.5565 69.1628 77.8397 68.4824 78.4061 67.916C78.966 67.3561 79.6464 67.0762 80.4471 67.0762H82.1854V66.5098C82.1854 66.1842 82.104 65.9401 81.9413 65.7773C81.6548 65.4909 81.3521 65.3477 81.0331 65.3477H79.3046C79.0637 65.3477 78.8781 65.2858 78.7479 65.1621C78.5266 64.9538 78.4159 64.7259 78.4159 64.4785ZM79.871 71.2852C79.871 71.6172 79.9524 71.8613 80.1151 72.0176C80.4016 72.291 80.6652 72.4277 80.9061 72.4277C81.147 72.4277 81.3358 72.4049 81.4725 72.3594C81.6158 72.3138 81.7395 72.2487 81.8436 72.1641C82.0715 71.9818 82.1854 71.7409 82.1854 71.4414V68.8242H81.0331C80.701 68.8242 80.4537 68.9056 80.2909 69.0684C80.0109 69.3483 79.871 69.651 79.871 69.9766V71.2852ZM89.8358 74C89.5949 74 89.3866 73.9154 89.2108 73.7461C89.035 73.5768 88.9471 73.401 88.9471 73.2188C88.9471 73.0365 88.9699 72.8932 89.0155 72.7891C89.0676 72.6784 89.1359 72.5807 89.2206 72.4961C89.3964 72.3203 89.6014 72.2324 89.8358 72.2324H91.994C92.3912 72.2324 92.7102 72.1217 92.951 71.9004C93.1919 71.6725 93.3124 71.3926 93.3124 71.0605C93.3124 70.7285 93.2212 70.4616 93.0389 70.2598C92.8566 70.0514 92.632 69.9049 92.3651 69.8203L90.6073 69.332C90.0018 69.1497 89.5201 68.8112 89.162 68.3164C88.7974 67.8151 88.6151 67.2845 88.6151 66.7246C88.6151 66.1647 88.6965 65.7025 88.8593 65.3379C89.0285 64.9733 89.2531 64.6608 89.5331 64.4004C90.1125 63.86 90.8287 63.5898 91.6815 63.5898L94.0643 63.5898C94.3117 63.5898 94.5168 63.6777 94.6796 63.8535C94.8423 64.0228 94.9237 64.2311 94.9237 64.4785C94.9237 64.7259 94.8423 64.9342 94.6796 65.1035C94.5168 65.2663 94.3117 65.3477 94.0643 65.3477H91.8671C91.535 65.3477 91.2746 65.4453 91.0858 65.6406C90.9035 65.8359 90.8124 66.0671 90.8124 66.334C90.8124 66.7507 91.0435 67.0632 91.5057 67.2715L93.4198 67.8281C94.4484 68.1732 95.132 68.8242 95.4706 69.7812C95.5813 70.1068 95.6366 70.4811 95.6366 70.9043C95.6366 71.3275 95.5487 71.7311 95.3729 72.1152C95.2037 72.4993 94.9758 72.8314 94.6893 73.1113C94.0839 73.7038 93.371 74 92.5507 74H89.8358ZM104.098 65.6699C103.818 65.3249 103.476 65.1523 103.072 65.1523C102.721 65.1523 102.46 65.237 102.291 65.4062C102.011 65.6862 101.871 65.9889 101.871 66.3145V71.0898C101.871 71.4219 101.952 71.666 102.115 71.8223C102.402 72.0957 102.704 72.2324 103.023 72.2324H105.426C105.81 72.2324 106.08 72.418 106.236 72.7891C106.282 72.8932 106.305 73.0072 106.305 73.1309C106.305 73.248 106.282 73.362 106.236 73.4727C106.191 73.5768 106.129 73.668 106.051 73.7461C105.881 73.9154 105.673 74 105.426 74H102.447C101.653 74 100.973 73.7168 100.406 73.1504C99.8397 72.584 99.5565 71.9036 99.5565 71.1094V66.2656C99.5565 65.4258 99.8397 64.7487 100.406 64.2344C101.025 63.6745 101.897 63.3945 103.023 63.3945C104.54 63.3945 105.553 63.7461 106.06 64.4492C106.223 64.6641 106.305 64.8822 106.305 65.1035C106.305 65.3184 106.275 65.4974 106.217 65.6406C106.158 65.7773 106.077 65.8978 105.973 66.002C105.751 66.2233 105.501 66.334 105.221 66.334C104.765 66.334 104.391 66.1126 104.098 65.6699ZM110.557 66.2656C110.557 65.3867 110.856 64.6901 111.455 64.1758C112.08 63.6549 112.939 63.3945 114.033 63.3945C115.114 63.3945 115.967 63.6549 116.592 64.1758C117.197 64.6966 117.5 65.3997 117.5 66.2852V71.334C117.5 72.6947 116.836 73.5833 115.508 74C115.078 74.1302 114.586 74.1953 114.033 74.1953C113.486 74.1953 112.998 74.1302 112.568 74C112.139 73.8633 111.774 73.668 111.474 73.4141C110.863 72.9062 110.557 72.2031 110.557 71.3047V66.2656ZM115.185 66.3145C115.185 65.9889 115.104 65.7448 114.941 65.582C114.655 65.2956 114.352 65.1523 114.033 65.1523C113.708 65.1523 113.46 65.237 113.291 65.4062C113.011 65.6862 112.871 65.9889 112.871 66.3145V71.3926C112.871 71.7246 112.982 71.9818 113.203 72.1641C113.424 72.3398 113.698 72.4277 114.023 72.4277C114.355 72.4277 114.632 72.3398 114.853 72.1641C115.075 71.9818 115.185 71.7246 115.185 71.3926V66.3145ZM116.299 60.8555C116.383 61.0117 116.426 61.1615 116.426 61.3047C116.426 61.4479 116.37 61.5814 116.26 61.7051C116.149 61.8288 116.029 61.8906 115.898 61.8906C115.638 61.8906 115.443 61.8255 115.312 61.6953L114.033 60.3867L112.754 61.6953C112.624 61.8255 112.461 61.8906 112.266 61.8906C112.07 61.8906 111.917 61.8288 111.807 61.7051C111.696 61.5814 111.641 61.4479 111.641 61.3047C111.641 61.1615 111.683 61.0117 111.767 60.8555L112.939 58.7754C113.213 58.2806 113.581 58.0332 114.043 58.0332C114.466 58.0332 114.827 58.2806 115.127 58.7754L116.299 60.8555ZM123.803 73.7754C123.64 73.9316 123.487 74.0391 123.344 74.0977C123.207 74.1628 123.057 74.1953 122.894 74.1953C122.738 74.1953 122.588 74.166 122.445 74.1074C122.308 74.0488 122.188 73.9674 122.084 73.8633C121.856 73.6354 121.742 73.3652 121.742 73.0527V64.5664C121.742 64.2474 121.823 64 121.986 63.8242C122.266 63.5378 122.53 63.3945 122.777 63.3945C123.031 63.3945 123.22 63.4206 123.344 63.4727C123.467 63.5247 123.571 63.5898 123.656 63.668C123.767 63.7656 123.848 63.8698 123.9 63.9805C123.959 64.0911 124.004 64.1725 124.037 64.2246C124.076 64.2767 124.135 64.3027 124.213 64.3027C124.297 64.3027 124.369 64.2767 124.428 64.2246L124.594 64.0586C125.069 63.6159 125.544 63.3945 126.019 63.3945C126.859 63.3945 127.553 63.7396 128.099 64.4297C128.152 64.5013 128.217 64.5371 128.295 64.5371C128.432 64.5371 128.568 64.4329 128.705 64.2246C128.848 64.0098 129.076 63.8177 129.389 63.6484C129.701 63.4792 130.066 63.3945 130.482 63.3945C130.899 63.3945 131.277 63.4727 131.615 63.6289C131.96 63.7786 132.26 63.987 132.514 64.2539C133.047 64.8138 133.314 65.4909 133.314 66.2852V73.0527C133.314 73.5475 133.08 73.8958 132.611 74.0977C132.468 74.1628 132.315 74.1953 132.152 74.1953C131.996 74.1953 131.846 74.166 131.703 74.1074C131.566 74.0488 131.446 73.9674 131.342 73.8633C131.12 73.6289 131.01 73.3587 131.01 73.0527V66.3145C131.01 65.9889 130.928 65.7448 130.766 65.582C130.479 65.2956 130.215 65.1523 129.974 65.1523C129.734 65.1523 129.545 65.1849 129.408 65.25C129.271 65.3086 129.148 65.3932 129.037 65.5039C128.809 65.7318 128.695 65.9954 128.695 66.2949V73.0527C128.695 73.5475 128.464 73.8958 128.002 74.0977C127.859 74.1628 127.706 74.1953 127.543 74.1953C127.387 74.1953 127.237 74.166 127.094 74.1074C126.95 74.0488 126.827 73.9674 126.723 73.8633C126.495 73.6354 126.381 73.3652 126.381 73.0527V66.3145C126.381 65.9889 126.299 65.7448 126.137 65.582C125.85 65.2956 125.551 65.1523 125.238 65.1523C124.717 65.1523 124.356 65.3542 124.154 65.7578C124.089 65.888 124.057 66.0345 124.057 66.1973V73.0527C124.057 73.3717 123.972 73.6126 123.803 73.7754ZM142.752 72.2324C142.999 72.2324 143.208 72.3203 143.377 72.4961C143.546 72.6719 143.631 72.8835 143.631 73.1309C143.631 73.3717 143.546 73.5768 143.377 73.7461C143.208 73.9154 142.999 74 142.752 74H140.447C139.653 74 138.973 73.7168 138.406 73.1504C137.84 72.584 137.557 71.9036 137.557 71.1094V66.3145C137.557 65.429 137.856 64.7227 138.455 64.1953C139.08 63.6615 139.939 63.3945 141.033 63.3945C142.114 63.3945 142.967 63.6615 143.592 64.1953C144.197 64.7292 144.5 65.4421 144.5 66.334V69.0684C144.5 69.3939 144.418 69.638 144.256 69.8008C143.976 70.0807 143.67 70.2207 143.338 70.2207H139.871V71.0898C139.871 71.4219 139.952 71.666 140.115 71.8223C140.402 72.0957 140.704 72.2324 141.023 72.2324H142.752ZM142.185 66.3145C142.185 65.9889 142.104 65.7448 141.941 65.582C141.655 65.2956 141.352 65.1523 141.033 65.1523C140.708 65.1523 140.46 65.237 140.291 65.4062C140.011 65.6862 139.871 65.9889 139.871 66.3145V68.5117H142.185V66.3145ZM153.586 72.2324C153.833 72.2324 154.038 72.3203 154.201 72.4961C154.364 72.6719 154.445 72.8835 154.445 73.1309C154.445 73.3717 154.364 73.5768 154.201 73.7461C154.038 73.9154 153.833 74 153.586 74H152.414C151.62 74 150.939 73.7168 150.373 73.1504C149.813 72.5905 149.533 71.9102 149.533 71.1094V65.3086H148.381C148.01 65.3086 147.746 65.1328 147.59 64.7812C147.544 64.6771 147.521 64.5664 147.521 64.4492C147.521 64.0781 147.697 63.8145 148.049 63.6582C148.153 63.6126 148.264 63.5898 148.381 63.5898H149.533V61.5586C149.533 61.0443 149.767 60.6862 150.236 60.4844C150.373 60.4193 150.523 60.3867 150.685 60.3867C151.004 60.3867 151.245 60.4714 151.408 60.6406C151.695 60.9206 151.838 61.2266 151.838 61.5586V63.5898H153.605C153.833 63.5898 154.009 63.6517 154.133 63.7754C154.341 63.9837 154.445 64.2083 154.445 64.4492C154.445 64.6836 154.364 64.8854 154.201 65.0547C154.038 65.224 153.84 65.3086 153.605 65.3086H151.838V71.0898C151.838 71.4154 151.922 71.6562 152.092 71.8125C152.378 72.0924 152.678 72.2324 152.99 72.2324H153.586ZM162.389 63.3945C162.551 63.3945 162.711 63.4173 162.867 63.4629C163.023 63.5085 163.17 63.5801 163.307 63.6777C163.619 63.9056 163.775 64.2214 163.775 64.625C163.775 64.9505 163.691 65.1947 163.521 65.3574C163.228 65.6374 162.955 65.7773 162.701 65.7773C162.376 65.7773 162.079 65.6732 161.812 65.4648C161.604 65.3281 161.37 65.2598 161.109 65.2598C160.849 65.2598 160.644 65.3444 160.494 65.5137C160.344 65.6764 160.269 65.8848 160.269 66.1387V73.043C160.269 73.3555 160.188 73.5964 160.025 73.7656C159.732 74.0521 159.465 74.1953 159.224 74.1953C158.99 74.1953 158.801 74.1628 158.658 74.0977C158.521 74.0391 158.401 73.9577 158.297 73.8535C158.069 73.6257 157.955 73.3555 157.955 73.043V64.5664C157.955 64.2474 158.04 64 158.209 63.8242C158.482 63.5378 158.743 63.3945 158.99 63.3945C159.244 63.3945 159.433 63.4238 159.557 63.4824C159.68 63.5345 159.784 63.5964 159.869 63.668C159.986 63.7721 160.071 63.8796 160.123 63.9902C160.175 64.0944 160.217 64.1725 160.25 64.2246C160.289 64.2767 160.348 64.3027 160.426 64.3027C160.51 64.3027 160.579 64.2767 160.631 64.2246L160.807 64.0586C161.314 63.6159 161.842 63.3945 162.389 63.3945ZM167.178 66.2656C167.178 65.3867 167.477 64.6901 168.076 64.1758C168.701 63.6549 169.56 63.3945 170.654 63.3945C171.735 63.3945 172.588 63.6549 173.213 64.1758C173.818 64.6966 174.121 65.3997 174.121 66.2852V71.334C174.121 72.6947 173.457 73.5833 172.129 74C171.699 74.1302 171.208 74.1953 170.654 74.1953C170.107 74.1953 169.619 74.1302 169.189 74C168.76 73.8633 168.395 73.668 168.096 73.4141C167.484 72.9062 167.178 72.2031 167.178 71.3047V66.2656ZM171.807 66.3145C171.807 65.9889 171.725 65.7448 171.562 65.582C171.276 65.2956 170.973 65.1523 170.654 65.1523C170.329 65.1523 170.081 65.237 169.912 65.4062C169.632 65.6862 169.492 65.9889 169.492 66.3145V71.3926C169.492 71.7246 169.603 71.9818 169.824 72.1641C170.045 72.3398 170.319 72.4277 170.644 72.4277C170.976 72.4277 171.253 72.3398 171.474 72.1641C171.696 71.9818 171.807 71.7246 171.807 71.3926V66.3145Z" fill="#F7B267"/>
</g>
<g filter="url(#filter1_d)">
<path d="M67.602 45.9437C66.9388 45.2806 66.5281 44.3651 66.5281 43.3553C66.5281 41.336 68.1709 39.6932 70.1902 39.6932C70.5948 39.6931 70.9227 40.0211 70.9227 40.4255C70.9227 40.83 70.5948 41.158 70.1903 41.1579C68.9787 41.158 67.993 42.1437 67.993 43.3552C67.993 44.5668 68.9787 45.5525 70.1904 45.5525C70.6698 45.5525 71.125 45.4009 71.5073 45.1142L73.8538 43.3543C74.4915 42.8759 75.2509 42.6229 76.0499 42.6229L134.688 42.6228C135.093 42.623 135.421 42.9509 135.421 43.3553C135.421 43.7599 135.093 44.0878 134.688 44.0878L76.0499 44.0878C75.5705 44.0878 75.1151 44.2394 74.7329 44.5261L72.3864 46.2862C71.7487 46.7647 70.9893 47.0175 70.1904 47.0176C69.1806 47.0176 68.2651 46.6069 67.602 45.9437Z" fill="#999999"/>
<path d="M99.5311 50.6799C101.149 50.6799 102.461 49.3682 102.461 47.7502L102.461 44.8204L93.6714 44.8204L93.6714 47.7502C93.6714 49.3683 94.9832 50.68 96.6012 50.6799C97.135 50.6799 97.6351 50.5364 98.0661 50.287C98.4972 50.5364 98.9972 50.6799 99.5311 50.6799Z" fill="#A44129"/>
<path d="M96.6012 47.7501C97.135 47.7501 97.6351 47.6066 98.0661 47.3572C98.4972 47.6066 98.9971 47.7501 99.5311 47.7501C101.149 47.7501 102.461 46.4384 102.461 44.8203L102.461 38.9608C102.461 37.3427 101.149 36.031 99.5311 36.0311C98.9973 36.0311 98.4972 36.1746 98.0662 36.424C97.6351 36.1746 97.1351 36.0311 96.6012 36.0311C94.9831 36.0311 93.6714 37.3428 93.6714 38.9608L93.6714 44.8204C93.6714 46.4385 94.9831 47.7502 96.6012 47.7501Z" fill="#B6502F"/>
<path d="M99.0131 48.2679C99.2991 48.554 99.7629 48.554 100.049 48.2679C100.335 47.9819 100.335 47.5182 100.049 47.2321C99.7629 46.9461 99.2991 46.9461 99.0131 47.2321C98.7271 47.5182 98.7271 47.9819 99.0131 48.2679Z" fill="#913122"/>
<path d="M96.0834 45.3382C96.3694 45.6243 96.8332 45.6243 97.1192 45.3382C97.4052 45.0522 97.4052 44.5885 97.1192 44.3024C96.8332 44.0164 96.3694 44.0164 96.0834 44.3024C95.7974 44.5885 95.7974 45.0522 96.0834 45.3382Z" fill="#A44129"/>
<path d="M120.04 47.7501L117.11 46.2853L114.18 47.7501L114.18 49.9475C114.18 50.352 114.508 50.68 114.912 50.68L119.307 50.68C119.712 50.68 120.04 50.352 120.04 49.9475L120.04 47.7501Z" fill="#1DA575"/>
<path d="M120.04 47.7501L120.04 38.9607L114.18 44.8203L114.18 47.7501L120.04 47.7501Z" fill="#0ABF52"/>
<path d="M120.04 38.9607L120.04 36.7634C120.04 36.3588 119.712 36.0309 119.307 36.0309L114.912 36.0309C114.508 36.0309 114.18 36.3589 114.18 36.7634L114.18 44.8203C117.416 44.8203 120.04 42.197 120.04 38.9607Z" fill="#5CC563"/>
<path d="M79.1007 50.2508C79.9314 49.4202 80.5805 48.4758 81.0483 47.4673L78.3918 46.2312C78.0646 46.9369 77.6104 47.5979 77.0292 48.1792C76.4572 48.7512 76.4572 49.6788 77.0292 50.2508C77.6011 50.823 78.5287 50.823 79.1007 50.2508Z" fill="#DB2116"/>
<path d="M81.0482 47.4674C81.651 46.1677 81.9524 44.7617 81.9524 43.3556C81.9524 40.8584 81.0019 38.3613 79.1008 36.4602C78.5288 35.888 77.6012 35.888 77.0291 36.4602C76.457 37.0322 76.457 37.9598 77.0291 38.5318C78.3589 39.8618 79.0238 41.6087 79.0239 43.3556C79.0239 44.3389 78.8131 45.3223 78.3917 46.2314C78.0509 46.9644 78.3684 47.8352 79.1013 48.1767C79.8346 48.5183 80.7066 48.2007 81.0482 47.4674Z" fill="#FF3A2F"/>
<path d="M90.7416 47.7503L87.8118 46.2854L84.8819 47.7503L84.8819 49.9476C84.8819 50.3521 85.2099 50.6801 85.6144 50.6801L90.0091 50.6801C90.4136 50.6801 90.7416 50.3521 90.7416 49.9476L90.7416 47.7503Z" fill="#0ABF52"/>
<path d="M90.7416 47.7502L90.7416 36.7635C90.7416 36.359 90.4136 36.031 90.0091 36.031L85.6144 36.031C85.2099 36.031 84.8819 36.359 84.8819 36.7635L84.8819 41.8906L90.7416 47.7503L90.7416 47.7502Z" fill="#ADCB74"/>
<path d="M84.8821 41.8906L84.8821 47.7501L90.7416 47.7501C90.7417 44.5139 88.1183 41.8906 84.8821 41.8906Z" fill="#5CC563"/>
<path d="M131.759 43.3554L122.969 43.3554C122.969 45.7826 124.937 47.7501 127.364 47.7501C129.791 47.7501 131.759 45.7826 131.759 43.3554Z" fill="#FF3A2F"/>
<path d="M127.364 44.8202C129.791 44.8202 131.759 44.1643 131.759 43.3553C131.759 40.9282 129.791 38.9606 127.364 38.9606C124.937 38.9606 122.969 40.9282 122.969 43.3553C122.969 44.1643 124.937 44.8202 127.364 44.8202Z" fill="#FF5A35"/>
<path d="M108.32 36.031C106.702 36.031 105.391 37.3427 105.391 38.9607L105.391 41.8905L111.25 41.8905L111.25 38.9607C111.25 37.3427 109.939 36.031 108.32 36.031Z" fill="#FFE8C2"/>
<path d="M111.25 47.7501L111.25 44.8203L105.391 44.8203L105.391 47.7501C105.391 49.3682 106.702 50.6799 108.32 50.6798C109.938 50.6798 111.25 49.3682 111.25 47.7501Z" fill="#FFBA48"/>
<path d="M108.32 45.7969C109.939 45.7969 111.25 45.3597 111.25 44.8203L111.25 41.8906C111.25 41.3512 109.938 40.9139 108.32 40.914C106.702 40.9141 105.391 41.3513 105.391 41.8906L105.391 44.8203C105.391 45.3597 106.702 45.7969 108.32 45.7969Z" fill="#FFD185"/>
</g>
<defs>
<filter id="filter0_d" x="21.8964" y="58.0332" width="156.225" height="24.1621" filterUnits="userSpaceOnUse" color-interpolation-filters="sRGB">
<feFlood flood-opacity="0" result="BackgroundImageFix"/>
<feColorMatrix in="SourceAlpha" type="matrix" values="0 0 0 0 0 0 0 0 0 0 0 0 0 0 0 0 0 0 127 0" result="hardAlpha"/>
<feOffset dy="4"/>
<feGaussianBlur stdDeviation="2"/>
<feColorMatrix type="matrix" values="0 0 0 0 0 0 0 0 0 0 0 0 0 0 0 0 0 0 0.25 0"/>
<feBlend mode="normal" in2="BackgroundImageFix" result="effect1_dropShadow"/>
<feBlend mode="normal" in="SourceGraphic" in2="effect1_dropShadow" result="shape"/>
</filter>
<filter id="filter1_d" x="61.0135" y="8" width="78.7107" height="78.7107" filterUnits="userSpaceOnUse" color-interpolation-filters="sRGB">
<feFlood flood-opacity="0" result="BackgroundImageFix"/>
<feColorMatrix in="SourceAlpha" type="matrix" values="0 0 0 0 0 0 0 0 0 0 0 0 0 0 0 0 0 0 127 0" result="hardAlpha"/>
<feOffset dy="4"/>
<feGaussianBlur stdDeviation="2"/>
<feColorMatrix type="matrix" values="0 0 0 0 0 0 0 0 0 0 0 0 0 0 0 0 0 0 0.25 0"/>
<feBlend mode="normal" in2="BackgroundImageFix" result="effect1_dropShadow"/>
<feBlend mode="normal" in="SourceGraphic" in2="effect1_dropShadow" result="shape"/>
</filter>
</defs>
</svg>
