<svg width="400" height="219" viewBox="0 0 400 219" fill="none" xmlns="http://www.w3.org/2000/svg">
<path d="M0 39H400V219H0V39Z" fill="#FF6262"/>
<g filter="url(#filter0_d)">
<path d="M60.7695 154.742C60.9779 154.482 61.1667 154.215 61.3359 153.941C61.5052 153.655 61.5898 153.329 61.5898 152.965C61.5898 152.6 61.5247 152.281 61.3945 152.008C61.2643 151.721 61.082 151.474 60.8477 151.266C60.3398 150.81 59.6953 150.582 58.9141 150.582C58.1328 150.582 57.5143 150.81 57.0586 151.266C56.6159 151.708 56.3945 152.255 56.3945 152.906V168.766C56.3945 169.43 56.6094 169.944 57.0391 170.309C57.4818 170.66 58.0286 170.836 58.6797 170.836C59.3438 170.836 59.8971 170.66 60.3398 170.309C60.7826 169.944 61.0039 169.43 61.0039 168.766V167.496C61.0039 166.845 61.1667 166.357 61.4922 166.031C62.0521 165.471 62.5729 165.191 63.0547 165.191C63.5365 165.191 63.9206 165.25 64.207 165.367C64.4935 165.484 64.7409 165.647 64.9492 165.855C65.4049 166.311 65.6328 166.858 65.6328 167.496V168.648C65.6328 171.37 64.3047 173.141 61.6484 173.961C60.7891 174.234 59.806 174.371 58.6992 174.371C57.6055 174.371 56.6289 174.241 55.7695 173.98C54.9102 173.707 54.1875 173.323 53.6016 172.828C52.3776 171.786 51.7656 170.374 51.7656 168.59V152.809C51.7656 151.051 52.3646 149.664 53.5625 148.648C54.8125 147.594 56.5247 147.066 58.6992 147.066C60.9388 147.066 62.6901 147.594 63.9531 148.648C65.2031 149.677 65.8281 151.07 65.8281 152.828C65.8281 155.576 65.125 157.431 63.7188 158.395C63.2891 158.694 62.8529 158.844 62.4102 158.844C61.9805 158.844 61.6224 158.785 61.3359 158.668C61.0625 158.551 60.8216 158.388 60.6133 158.18C60.1706 157.763 59.9492 157.288 59.9492 156.754C59.9492 156.22 60.0339 155.816 60.2031 155.543C60.3724 155.257 60.5612 154.99 60.7695 154.742ZM77.9453 173.551C77.6198 173.863 77.3138 174.078 77.0273 174.195C76.7539 174.326 76.4544 174.391 76.1289 174.391C75.8164 174.391 75.5169 174.332 75.2305 174.215C74.944 174.098 74.6966 173.935 74.4883 173.727C74.0326 173.271 73.8047 172.73 73.8047 172.105V146.266C73.8047 145.628 73.974 145.146 74.3125 144.82C74.8724 144.247 75.3932 143.961 75.875 143.961C76.3698 143.961 76.7539 144.02 77.0273 144.137C77.3138 144.254 77.5612 144.417 77.7695 144.625C78.2253 145.081 78.4531 145.628 78.4531 146.266V153.98C78.4531 154.228 78.5182 154.397 78.6484 154.488C78.7917 154.566 78.9284 154.605 79.0586 154.605C79.1888 154.605 79.3125 154.547 79.4297 154.43L79.7422 154.117C80.6276 153.232 81.6497 152.789 82.8086 152.789C84.2148 152.789 85.3802 153.362 86.3047 154.508C87.2292 155.641 87.6914 156.995 87.6914 158.57V172.105C87.6914 173.095 87.2292 173.792 86.3047 174.195C86.0182 174.326 85.7122 174.391 85.3867 174.391C85.0742 174.391 84.7747 174.332 84.4883 174.215C84.2018 174.098 83.9544 173.935 83.7461 173.727C83.2904 173.271 83.0625 172.73 83.0625 172.105V158.629C83.0625 157.978 82.8997 157.49 82.5742 157.164C82.0013 156.591 81.474 156.305 80.9922 156.305C80.5234 156.305 80.1523 156.357 79.8789 156.461C79.6055 156.552 79.3646 156.689 79.1562 156.871C78.6875 157.262 78.4531 157.77 78.4531 158.395V172.105C78.4531 172.743 78.2839 173.225 77.9453 173.551ZM105.551 153.648C105.889 153.323 106.195 153.102 106.469 152.984C106.755 152.854 107.055 152.789 107.367 152.789C107.693 152.789 107.992 152.848 108.266 152.965C108.552 153.082 108.799 153.245 109.008 153.453C109.464 153.909 109.691 154.449 109.691 155.074V172.047C109.691 172.685 109.529 173.18 109.203 173.531C108.643 174.104 108.109 174.391 107.602 174.391C107.107 174.391 106.736 174.332 106.488 174.215C106.241 174.111 106.039 173.987 105.883 173.844C105.635 173.635 105.46 173.427 105.355 173.219C105.264 172.997 105.18 172.835 105.102 172.73C105.023 172.626 104.9 172.574 104.73 172.574C104.574 172.574 104.444 172.633 104.34 172.75C104.236 172.854 104.066 173.023 103.832 173.258C103.051 174.013 102.191 174.391 101.254 174.391C100.329 174.391 99.5547 174.241 98.9297 173.941C98.3047 173.629 97.7578 173.206 97.2891 172.672C96.2995 171.539 95.8047 170.185 95.8047 168.609V155.074C95.8047 154.085 96.2734 153.388 97.2109 152.984C97.4844 152.854 97.7773 152.789 98.0898 152.789C98.4154 152.789 98.7214 152.848 99.0078 152.965C99.2943 153.082 99.5417 153.245 99.75 153.453C100.206 153.909 100.434 154.449 100.434 155.074V168.551C100.434 169.202 100.596 169.69 100.922 170.016C101.495 170.589 102.094 170.875 102.719 170.875C103.747 170.875 104.464 170.471 104.867 169.664C104.997 169.404 105.062 169.111 105.062 168.785V155.074C105.062 154.436 105.225 153.961 105.551 153.648ZM126.867 152.789C127.193 152.789 127.512 152.835 127.824 152.926C128.137 153.017 128.43 153.16 128.703 153.355C129.328 153.811 129.641 154.443 129.641 155.25C129.641 155.901 129.471 156.389 129.133 156.715C128.547 157.275 128 157.555 127.492 157.555C126.841 157.555 126.249 157.346 125.715 156.93C125.298 156.656 124.829 156.52 124.309 156.52C123.788 156.52 123.378 156.689 123.078 157.027C122.779 157.353 122.629 157.77 122.629 158.277V172.086C122.629 172.711 122.466 173.193 122.141 173.531C121.555 174.104 121.021 174.391 120.539 174.391C120.07 174.391 119.693 174.326 119.406 174.195C119.133 174.078 118.892 173.915 118.684 173.707C118.228 173.251 118 172.711 118 172.086V155.133C118 154.495 118.169 154 118.508 153.648C119.055 153.076 119.576 152.789 120.07 152.789C120.578 152.789 120.956 152.848 121.203 152.965C121.451 153.069 121.659 153.193 121.828 153.336C122.062 153.544 122.232 153.759 122.336 153.98C122.44 154.189 122.525 154.345 122.59 154.449C122.668 154.553 122.785 154.605 122.941 154.605C123.111 154.605 123.247 154.553 123.352 154.449L123.703 154.117C124.719 153.232 125.773 152.789 126.867 152.789ZM145.508 152.789C145.833 152.789 146.152 152.835 146.465 152.926C146.777 153.017 147.07 153.16 147.344 153.355C147.969 153.811 148.281 154.443 148.281 155.25C148.281 155.901 148.112 156.389 147.773 156.715C147.188 157.275 146.641 157.555 146.133 157.555C145.482 157.555 144.889 157.346 144.355 156.93C143.939 156.656 143.47 156.52 142.949 156.52C142.428 156.52 142.018 156.689 141.719 157.027C141.419 157.353 141.27 157.77 141.27 158.277V172.086C141.27 172.711 141.107 173.193 140.781 173.531C140.195 174.104 139.661 174.391 139.18 174.391C138.711 174.391 138.333 174.326 138.047 174.195C137.773 174.078 137.533 173.915 137.324 173.707C136.868 173.251 136.641 172.711 136.641 172.086V155.133C136.641 154.495 136.81 154 137.148 153.648C137.695 153.076 138.216 152.789 138.711 152.789C139.219 152.789 139.596 152.848 139.844 152.965C140.091 153.069 140.299 153.193 140.469 153.336C140.703 153.544 140.872 153.759 140.977 153.98C141.081 154.189 141.165 154.345 141.23 154.449C141.309 154.553 141.426 154.605 141.582 154.605C141.751 154.605 141.888 154.553 141.992 154.449L142.344 154.117C143.359 153.232 144.414 152.789 145.508 152.789ZM156.805 154.957C156.805 154.176 157.169 153.629 157.898 153.316C158.107 153.225 158.335 153.18 158.582 153.18H163.191C164.78 153.18 166.141 153.746 167.273 154.879C168.406 156.012 168.973 157.372 168.973 158.961V172.105C168.973 173.095 168.504 173.792 167.566 174.195C167.28 174.326 166.967 174.391 166.629 174.391C166.29 174.391 165.997 174.332 165.75 174.215C165.516 174.111 165.314 173.987 165.145 173.844C165.001 173.714 164.858 173.531 164.715 173.297C164.572 173.049 164.461 172.867 164.383 172.75C164.305 172.633 164.181 172.574 164.012 172.574C163.842 172.574 163.706 172.633 163.602 172.75L163.289 173.082C162.417 173.954 161.395 174.391 160.223 174.391C158.829 174.391 157.625 173.818 156.609 172.672C155.594 171.539 155.086 170.185 155.086 168.609V165.914C155.086 164.326 155.652 162.965 156.785 161.832C157.905 160.712 159.266 160.152 160.867 160.152H164.344V159.02C164.344 158.368 164.181 157.88 163.855 157.555C163.283 156.982 162.677 156.695 162.039 156.695H158.582C158.1 156.695 157.729 156.572 157.469 156.324C157.026 155.908 156.805 155.452 156.805 154.957ZM159.715 168.57C159.715 169.234 159.878 169.723 160.203 170.035C160.776 170.582 161.303 170.855 161.785 170.855C162.267 170.855 162.645 170.81 162.918 170.719C163.204 170.628 163.452 170.497 163.66 170.328C164.116 169.964 164.344 169.482 164.344 168.883V163.648H162.039C161.375 163.648 160.88 163.811 160.555 164.137C159.995 164.697 159.715 165.302 159.715 165.953V168.57ZM179.645 174C179.163 174 178.746 173.831 178.395 173.492C178.043 173.154 177.867 172.802 177.867 172.438C177.867 172.073 177.913 171.786 178.004 171.578C178.108 171.357 178.245 171.161 178.414 170.992C178.766 170.641 179.176 170.465 179.645 170.465H183.961C184.755 170.465 185.393 170.243 185.875 169.801C186.357 169.345 186.598 168.785 186.598 168.121C186.598 167.457 186.415 166.923 186.051 166.52C185.686 166.103 185.237 165.81 184.703 165.641L181.188 164.664C179.977 164.299 179.013 163.622 178.297 162.633C177.568 161.63 177.203 160.569 177.203 159.449C177.203 158.329 177.366 157.405 177.691 156.676C178.03 155.947 178.479 155.322 179.039 154.801C180.198 153.72 181.63 153.18 183.336 153.18H188.102C188.596 153.18 189.007 153.355 189.332 153.707C189.658 154.046 189.82 154.462 189.82 154.957C189.82 155.452 189.658 155.868 189.332 156.207C189.007 156.533 188.596 156.695 188.102 156.695H183.707C183.043 156.695 182.522 156.891 182.145 157.281C181.78 157.672 181.598 158.134 181.598 158.668C181.598 159.501 182.06 160.126 182.984 160.543L186.812 161.656C188.87 162.346 190.237 163.648 190.914 165.562C191.135 166.214 191.246 166.962 191.246 167.809C191.246 168.655 191.07 169.462 190.719 170.23C190.38 170.999 189.924 171.663 189.352 172.223C188.141 173.408 186.715 174 185.074 174H179.645ZM208.168 157.34C207.608 156.65 206.924 156.305 206.117 156.305C205.414 156.305 204.893 156.474 204.555 156.812C203.995 157.372 203.715 157.978 203.715 158.629V168.18C203.715 168.844 203.878 169.332 204.203 169.645C204.776 170.191 205.382 170.465 206.02 170.465H210.824C211.592 170.465 212.133 170.836 212.445 171.578C212.536 171.786 212.582 172.014 212.582 172.262C212.582 172.496 212.536 172.724 212.445 172.945C212.354 173.154 212.23 173.336 212.074 173.492C211.736 173.831 211.319 174 210.824 174H204.867C203.279 174 201.918 173.434 200.785 172.301C199.652 171.168 199.086 169.807 199.086 168.219V158.531C199.086 156.852 199.652 155.497 200.785 154.469C202.022 153.349 203.767 152.789 206.02 152.789C209.053 152.789 211.078 153.492 212.094 154.898C212.419 155.328 212.582 155.764 212.582 156.207C212.582 156.637 212.523 156.995 212.406 157.281C212.289 157.555 212.126 157.796 211.918 158.004C211.475 158.447 210.974 158.668 210.414 158.668C209.503 158.668 208.754 158.225 208.168 157.34ZM221.086 158.531C221.086 156.773 221.685 155.38 222.883 154.352C224.133 153.31 225.852 152.789 228.039 152.789C230.201 152.789 231.906 153.31 233.156 154.352C234.367 155.393 234.973 156.799 234.973 158.57V168.668C234.973 171.389 233.645 173.167 230.988 174C230.129 174.26 229.146 174.391 228.039 174.391C226.945 174.391 225.969 174.26 225.109 174C224.25 173.727 223.521 173.336 222.922 172.828C221.698 171.812 221.086 170.406 221.086 168.609V158.531ZM230.344 158.629C230.344 157.978 230.181 157.49 229.855 157.164C229.283 156.591 228.677 156.305 228.039 156.305C227.388 156.305 226.893 156.474 226.555 156.812C225.995 157.372 225.715 157.978 225.715 158.629V168.785C225.715 169.449 225.936 169.964 226.379 170.328C226.822 170.68 227.368 170.855 228.02 170.855C228.684 170.855 229.237 170.68 229.68 170.328C230.122 169.964 230.344 169.449 230.344 168.785V158.629ZM232.57 147.711C232.74 148.023 232.824 148.323 232.824 148.609C232.824 148.896 232.714 149.163 232.492 149.41C232.271 149.658 232.03 149.781 231.77 149.781C231.249 149.781 230.858 149.651 230.598 149.391L228.039 146.773L225.48 149.391C225.22 149.651 224.895 149.781 224.504 149.781C224.113 149.781 223.807 149.658 223.586 149.41C223.365 149.163 223.254 148.896 223.254 148.609C223.254 148.323 223.339 148.023 223.508 147.711L225.852 143.551C226.398 142.561 227.134 142.066 228.059 142.066C228.905 142.066 229.628 142.561 230.227 143.551L232.57 147.711ZM247.578 173.551C247.253 173.863 246.947 174.078 246.66 174.195C246.387 174.326 246.087 174.391 245.762 174.391C245.449 174.391 245.15 174.332 244.863 174.215C244.59 174.098 244.349 173.935 244.141 173.727C243.685 173.271 243.457 172.73 243.457 172.105V155.133C243.457 154.495 243.62 154 243.945 153.648C244.505 153.076 245.033 152.789 245.527 152.789C246.035 152.789 246.413 152.841 246.66 152.945C246.908 153.049 247.116 153.18 247.285 153.336C247.507 153.531 247.669 153.74 247.773 153.961C247.891 154.182 247.982 154.345 248.047 154.449C248.125 154.553 248.242 154.605 248.398 154.605C248.568 154.605 248.711 154.553 248.828 154.449L249.16 154.117C250.111 153.232 251.061 152.789 252.012 152.789C253.691 152.789 255.078 153.479 256.172 154.859C256.276 155.003 256.406 155.074 256.562 155.074C256.836 155.074 257.109 154.866 257.383 154.449C257.669 154.02 258.125 153.635 258.75 153.297C259.375 152.958 260.104 152.789 260.938 152.789C261.771 152.789 262.526 152.945 263.203 153.258C263.893 153.557 264.492 153.974 265 154.508C266.068 155.628 266.602 156.982 266.602 158.57V172.105C266.602 173.095 266.133 173.792 265.195 174.195C264.909 174.326 264.603 174.391 264.277 174.391C263.965 174.391 263.665 174.332 263.379 174.215C263.105 174.098 262.865 173.935 262.656 173.727C262.214 173.258 261.992 172.717 261.992 172.105V158.629C261.992 157.978 261.829 157.49 261.504 157.164C260.931 156.591 260.404 156.305 259.922 156.305C259.44 156.305 259.062 156.37 258.789 156.5C258.516 156.617 258.268 156.786 258.047 157.008C257.591 157.464 257.363 157.991 257.363 158.59V172.105C257.363 173.095 256.901 173.792 255.977 174.195C255.69 174.326 255.384 174.391 255.059 174.391C254.746 174.391 254.447 174.332 254.16 174.215C253.874 174.098 253.626 173.935 253.418 173.727C252.962 173.271 252.734 172.73 252.734 172.105V158.629C252.734 157.978 252.572 157.49 252.246 157.164C251.673 156.591 251.074 156.305 250.449 156.305C249.408 156.305 248.685 156.708 248.281 157.516C248.151 157.776 248.086 158.069 248.086 158.395V172.105C248.086 172.743 247.917 173.225 247.578 173.551ZM285.477 170.465C285.971 170.465 286.388 170.641 286.727 170.992C287.065 171.344 287.234 171.767 287.234 172.262C287.234 172.743 287.065 173.154 286.727 173.492C286.388 173.831 285.971 174 285.477 174H280.867C279.279 174 277.918 173.434 276.785 172.301C275.652 171.168 275.086 169.807 275.086 168.219V158.629C275.086 156.858 275.685 155.445 276.883 154.391C278.133 153.323 279.852 152.789 282.039 152.789C284.201 152.789 285.906 153.323 287.156 154.391C288.367 155.458 288.973 156.884 288.973 158.668V164.137C288.973 164.788 288.81 165.276 288.484 165.602C287.924 166.161 287.312 166.441 286.648 166.441H279.715V168.18C279.715 168.844 279.878 169.332 280.203 169.645C280.776 170.191 281.382 170.465 282.02 170.465H285.477ZM284.344 158.629C284.344 157.978 284.181 157.49 283.855 157.164C283.283 156.591 282.677 156.305 282.039 156.305C281.388 156.305 280.893 156.474 280.555 156.812C279.995 157.372 279.715 157.978 279.715 158.629V163.023H284.344V158.629ZM307.145 170.465C307.639 170.465 308.049 170.641 308.375 170.992C308.701 171.344 308.863 171.767 308.863 172.262C308.863 172.743 308.701 173.154 308.375 173.492C308.049 173.831 307.639 174 307.145 174H304.801C303.212 174 301.852 173.434 300.719 172.301C299.599 171.181 299.039 169.82 299.039 168.219V156.617H296.734C295.992 156.617 295.465 156.266 295.152 155.562C295.061 155.354 295.016 155.133 295.016 154.898C295.016 154.156 295.367 153.629 296.07 153.316C296.279 153.225 296.5 153.18 296.734 153.18H299.039V149.117C299.039 148.089 299.508 147.372 300.445 146.969C300.719 146.839 301.018 146.773 301.344 146.773C301.982 146.773 302.464 146.943 302.789 147.281C303.362 147.841 303.648 148.453 303.648 149.117V153.18H307.184C307.639 153.18 307.991 153.303 308.238 153.551C308.655 153.967 308.863 154.417 308.863 154.898C308.863 155.367 308.701 155.771 308.375 156.109C308.049 156.448 307.652 156.617 307.184 156.617H303.648V168.18C303.648 168.831 303.818 169.312 304.156 169.625C304.729 170.185 305.328 170.465 305.953 170.465H307.145ZM324.75 152.789C325.076 152.789 325.395 152.835 325.707 152.926C326.02 153.017 326.312 153.16 326.586 153.355C327.211 153.811 327.523 154.443 327.523 155.25C327.523 155.901 327.354 156.389 327.016 156.715C326.43 157.275 325.883 157.555 325.375 157.555C324.724 157.555 324.132 157.346 323.598 156.93C323.181 156.656 322.712 156.52 322.191 156.52C321.671 156.52 321.26 156.689 320.961 157.027C320.661 157.353 320.512 157.77 320.512 158.277V172.086C320.512 172.711 320.349 173.193 320.023 173.531C319.438 174.104 318.904 174.391 318.422 174.391C317.953 174.391 317.576 174.326 317.289 174.195C317.016 174.078 316.775 173.915 316.566 173.707C316.111 173.251 315.883 172.711 315.883 172.086V155.133C315.883 154.495 316.052 154 316.391 153.648C316.938 153.076 317.458 152.789 317.953 152.789C318.461 152.789 318.839 152.848 319.086 152.965C319.333 153.069 319.542 153.193 319.711 153.336C319.945 153.544 320.115 153.759 320.219 153.98C320.323 154.189 320.408 154.345 320.473 154.449C320.551 154.553 320.668 154.605 320.824 154.605C320.993 154.605 321.13 154.553 321.234 154.449L321.586 154.117C322.602 153.232 323.656 152.789 324.75 152.789ZM334.328 158.531C334.328 156.773 334.927 155.38 336.125 154.352C337.375 153.31 339.094 152.789 341.281 152.789C343.443 152.789 345.148 153.31 346.398 154.352C347.609 155.393 348.215 156.799 348.215 158.57V168.668C348.215 171.389 346.887 173.167 344.23 174C343.371 174.26 342.388 174.391 341.281 174.391C340.188 174.391 339.211 174.26 338.352 174C337.492 173.727 336.763 173.336 336.164 172.828C334.94 171.812 334.328 170.406 334.328 168.609V158.531ZM343.586 158.629C343.586 157.978 343.423 157.49 343.098 157.164C342.525 156.591 341.919 156.305 341.281 156.305C340.63 156.305 340.135 156.474 339.797 156.812C339.237 157.372 338.957 157.978 338.957 158.629V168.785C338.957 169.449 339.178 169.964 339.621 170.328C340.064 170.68 340.611 170.855 341.262 170.855C341.926 170.855 342.479 170.68 342.922 170.328C343.365 169.964 343.586 169.449 343.586 168.785V158.629Z" fill="#F7B267"/>
</g>
<g filter="url(#filter1_d)">
<path d="M101.765 113.831C99.7758 111.842 98.5436 109.095 98.5436 106.066C98.5436 100.008 103.472 95.0795 109.53 95.0795C110.744 95.0792 111.727 96.0633 111.727 97.2765C111.727 98.49 110.744 99.4739 109.53 99.4737C105.896 99.4739 102.938 102.431 102.938 106.066C102.938 109.7 105.895 112.658 109.53 112.658C110.969 112.658 112.334 112.203 113.481 111.343L120.521 106.063C122.434 104.628 124.712 103.869 127.109 103.869L303.025 103.868C304.238 103.869 305.222 104.853 305.222 106.066C305.222 107.28 304.238 108.263 303.025 108.263L127.109 108.264C125.671 108.264 124.305 108.718 123.158 109.578L116.119 114.859C114.205 116.294 111.927 117.053 109.53 117.053C106.501 117.053 103.755 115.821 101.765 113.831V113.831Z" fill="#999999"/>
<path d="M197.553 128.04C202.407 128.04 206.342 124.105 206.342 119.25L206.342 110.461L179.974 110.461L179.974 119.251C179.974 124.105 183.909 128.04 188.763 128.04C190.364 128.04 191.865 127.609 193.158 126.861C194.451 127.609 195.951 128.04 197.553 128.04V128.04Z" fill="#A44129"/>
<path d="M188.763 119.25C190.364 119.25 191.865 118.82 193.158 118.072C194.451 118.82 195.951 119.25 197.553 119.25C202.407 119.25 206.342 115.315 206.342 110.461L206.342 92.8825C206.342 88.0281 202.407 84.093 197.553 84.0932C195.951 84.0932 194.451 84.5237 193.158 85.272C191.865 84.5237 190.365 84.0932 188.763 84.0932C183.909 84.0932 179.974 88.0284 179.974 92.8825L179.974 110.461C179.974 115.315 183.909 119.251 188.763 119.25Z" fill="#B6502F"/>
<path d="M195.999 120.804C196.857 121.662 198.248 121.662 199.106 120.804C199.964 119.946 199.964 118.555 199.106 117.697C198.248 116.838 196.857 116.838 195.999 117.697C195.141 118.555 195.141 119.946 195.999 120.804Z" fill="#913122"/>
<path d="M187.209 112.015C188.067 112.873 189.459 112.873 190.317 112.015C191.175 111.157 191.175 109.765 190.317 108.907C189.459 108.049 188.067 108.049 187.209 108.907C186.351 109.765 186.351 111.157 187.209 112.015Z" fill="#A44129"/>
<path d="M259.078 119.25L250.289 114.856L241.499 119.25L241.499 125.842C241.499 127.056 242.483 128.04 243.696 128.04L256.881 128.04C258.094 128.04 259.078 127.056 259.078 125.842L259.078 119.25Z" fill="#1DA575"/>
<path d="M259.078 119.25L259.078 92.8821L241.499 110.461L241.5 119.25L259.078 119.25Z" fill="#0ABF52"/>
<path d="M259.078 92.8823L259.078 86.2902C259.078 85.0766 258.094 84.0928 256.881 84.0928L243.696 84.0928C242.483 84.0928 241.499 85.0767 241.499 86.2903L241.499 110.461C251.208 110.461 259.078 102.591 259.078 92.8823V92.8823Z" fill="#5CC563"/>
<path d="M136.261 126.752C138.753 124.261 140.701 121.427 142.104 118.402L134.135 114.693C133.153 116.811 131.79 118.794 130.047 120.537C128.331 122.254 128.331 125.036 130.047 126.752C131.763 128.469 134.545 128.469 136.261 126.752V126.752Z" fill="#DB2116"/>
<path d="M142.104 118.402C143.912 114.503 144.816 110.285 144.816 106.067C144.816 98.5751 141.965 91.0838 136.261 85.3805C134.545 83.6641 131.763 83.6641 130.046 85.3805C128.33 87.0966 128.33 89.8793 130.046 91.5955C134.036 95.5853 136.031 100.826 136.031 106.067C136.031 109.017 135.399 111.967 134.134 114.694C133.112 116.893 134.064 119.506 136.263 120.53C138.463 121.555 141.079 120.602 142.104 118.402V118.402Z" fill="#FF3A2F"/>
<path d="M171.184 119.251L162.395 114.856L153.605 119.251L153.605 125.843C153.605 127.056 154.589 128.04 155.803 128.04L168.987 128.04C170.201 128.04 171.184 127.056 171.184 125.843L171.184 119.251Z" fill="#0ABF52"/>
<path d="M171.184 119.251L171.184 86.2905C171.184 85.0769 170.2 84.0931 168.987 84.0931L155.803 84.0931C154.589 84.0931 153.605 85.0769 153.605 86.2905L153.605 101.672L171.184 119.251L171.184 119.251Z" fill="#ADCB74"/>
<path d="M153.606 101.672L153.606 119.25L171.184 119.25C171.184 109.542 163.314 101.672 153.606 101.672Z" fill="#5CC563"/>
<path d="M294.235 106.066L267.867 106.066C267.867 113.348 273.77 119.25 281.051 119.25C288.333 119.25 294.235 113.348 294.235 106.066V106.066Z" fill="#FF3A2F"/>
<path d="M281.052 110.461C288.333 110.461 294.236 108.493 294.235 106.066C294.235 98.7846 288.333 92.882 281.051 92.882C273.77 92.882 267.867 98.7847 267.867 106.066C267.867 108.493 273.77 110.461 281.052 110.461V110.461Z" fill="#FF5A35"/>
<path d="M223.921 84.0929C219.066 84.0929 215.131 88.0281 215.131 92.8822L215.131 101.671L232.71 101.671L232.71 92.8822C232.71 88.028 228.775 84.0929 223.921 84.0929Z" fill="#FFE8C2"/>
<path d="M232.71 119.25L232.71 110.461L215.131 110.461L215.131 119.25C215.131 124.105 219.067 128.04 223.921 128.039C228.775 128.039 232.71 124.105 232.71 119.25V119.25Z" fill="#FFBA48"/>
<path d="M223.921 113.391C228.775 113.391 232.71 112.079 232.71 110.461L232.71 101.672C232.71 100.054 228.775 98.7418 223.921 98.742C219.067 98.7422 215.131 100.054 215.131 101.672L215.131 110.461C215.131 112.079 219.066 113.391 223.921 113.391Z" fill="#FFD185"/>
</g>
<defs>
<filter id="filter0_d" x="47.7656" y="142.066" width="304.449" height="40.3242" filterUnits="userSpaceOnUse" color-interpolation-filters="sRGB">
<feFlood flood-opacity="0" result="BackgroundImageFix"/>
<feColorMatrix in="SourceAlpha" type="matrix" values="0 0 0 0 0 0 0 0 0 0 0 0 0 0 0 0 0 0 127 0"/>
<feOffset dy="4"/>
<feGaussianBlur stdDeviation="2"/>
<feColorMatrix type="matrix" values="0 0 0 0 0 0 0 0 0 0 0 0 0 0 0 0 0 0 0.25 0"/>
<feBlend mode="normal" in2="BackgroundImageFix" result="effect1_dropShadow"/>
<feBlend mode="normal" in="SourceGraphic" in2="effect1_dropShadow" result="shape"/>
</filter>
<filter id="filter1_d" x="94.5436" y="84.0928" width="214.678" height="51.9473" filterUnits="userSpaceOnUse" color-interpolation-filters="sRGB">
<feFlood flood-opacity="0" result="BackgroundImageFix"/>
<feColorMatrix in="SourceAlpha" type="matrix" values="0 0 0 0 0 0 0 0 0 0 0 0 0 0 0 0 0 0 127 0"/>
<feOffset dy="4"/>
<feGaussianBlur stdDeviation="2"/>
<feColorMatrix type="matrix" values="0 0 0 0 0 0 0 0 0 0 0 0 0 0 0 0 0 0 0.25 0"/>
<feBlend mode="normal" in2="BackgroundImageFix" result="effect1_dropShadow"/>
<feBlend mode="normal" in="SourceGraphic" in2="effect1_dropShadow" result="shape"/>
</filter>
</defs>
</svg>
