<svg width="400" height="180" viewBox="0 0 400 180" fill="none" xmlns="http://www.w3.org/2000/svg">
<path d="M0 0H400V180H0V0Z" fill="#FF6262"/>
<g filter="url(#filter0_d)">
<path d="M60.7695 115.742C60.9779 115.482 61.1667 115.215 61.3359 114.941C61.5052 114.655 61.5898 114.329 61.5898 113.965C61.5898 113.6 61.5247 113.281 61.3945 113.008C61.2643 112.721 61.082 112.474 60.8477 112.266C60.3398 111.81 59.6953 111.582 58.9141 111.582C58.1328 111.582 57.5143 111.81 57.0586 112.266C56.6159 112.708 56.3945 113.255 56.3945 113.906V129.766C56.3945 130.43 56.6094 130.944 57.0391 131.309C57.4818 131.66 58.0286 131.836 58.6797 131.836C59.3438 131.836 59.8971 131.66 60.3398 131.309C60.7826 130.944 61.0039 130.43 61.0039 129.766V128.496C61.0039 127.845 61.1667 127.357 61.4922 127.031C62.0521 126.471 62.5729 126.191 63.0547 126.191C63.5365 126.191 63.9206 126.25 64.207 126.367C64.4935 126.484 64.7409 126.647 64.9492 126.855C65.4049 127.311 65.6328 127.858 65.6328 128.496V129.648C65.6328 132.37 64.3047 134.141 61.6484 134.961C60.7891 135.234 59.806 135.371 58.6992 135.371C57.6055 135.371 56.6289 135.241 55.7695 134.98C54.9102 134.707 54.1875 134.323 53.6016 133.828C52.3776 132.786 51.7656 131.374 51.7656 129.59V113.809C51.7656 112.051 52.3646 110.664 53.5625 109.648C54.8125 108.594 56.5247 108.066 58.6992 108.066C60.9388 108.066 62.6901 108.594 63.9531 109.648C65.2031 110.677 65.8281 112.07 65.8281 113.828C65.8281 116.576 65.125 118.431 63.7188 119.395C63.2891 119.694 62.8529 119.844 62.4102 119.844C61.9805 119.844 61.6224 119.785 61.3359 119.668C61.0625 119.551 60.8216 119.388 60.6133 119.18C60.1706 118.763 59.9492 118.288 59.9492 117.754C59.9492 117.22 60.0339 116.816 60.2031 116.543C60.3724 116.257 60.5612 115.99 60.7695 115.742ZM77.9453 134.551C77.6198 134.863 77.3138 135.078 77.0273 135.195C76.7539 135.326 76.4544 135.391 76.1289 135.391C75.8164 135.391 75.5169 135.332 75.2305 135.215C74.944 135.098 74.6966 134.935 74.4883 134.727C74.0326 134.271 73.8047 133.73 73.8047 133.105V107.266C73.8047 106.628 73.974 106.146 74.3125 105.82C74.8724 105.247 75.3932 104.961 75.875 104.961C76.3698 104.961 76.7539 105.02 77.0273 105.137C77.3138 105.254 77.5612 105.417 77.7695 105.625C78.2253 106.081 78.4531 106.628 78.4531 107.266V114.98C78.4531 115.228 78.5182 115.397 78.6484 115.488C78.7917 115.566 78.9284 115.605 79.0586 115.605C79.1888 115.605 79.3125 115.547 79.4297 115.43L79.7422 115.117C80.6276 114.232 81.6497 113.789 82.8086 113.789C84.2148 113.789 85.3802 114.362 86.3047 115.508C87.2292 116.641 87.6914 117.995 87.6914 119.57V133.105C87.6914 134.095 87.2292 134.792 86.3047 135.195C86.0182 135.326 85.7122 135.391 85.3867 135.391C85.0742 135.391 84.7747 135.332 84.4883 135.215C84.2018 135.098 83.9544 134.935 83.7461 134.727C83.2904 134.271 83.0625 133.73 83.0625 133.105V119.629C83.0625 118.978 82.8997 118.49 82.5742 118.164C82.0013 117.591 81.474 117.305 80.9922 117.305C80.5234 117.305 80.1523 117.357 79.8789 117.461C79.6055 117.552 79.3646 117.689 79.1562 117.871C78.6875 118.262 78.4531 118.77 78.4531 119.395V133.105C78.4531 133.743 78.2839 134.225 77.9453 134.551ZM105.551 114.648C105.889 114.323 106.195 114.102 106.469 113.984C106.755 113.854 107.055 113.789 107.367 113.789C107.693 113.789 107.992 113.848 108.266 113.965C108.552 114.082 108.799 114.245 109.008 114.453C109.464 114.909 109.691 115.449 109.691 116.074V133.047C109.691 133.685 109.529 134.18 109.203 134.531C108.643 135.104 108.109 135.391 107.602 135.391C107.107 135.391 106.736 135.332 106.488 135.215C106.241 135.111 106.039 134.987 105.883 134.844C105.635 134.635 105.46 134.427 105.355 134.219C105.264 133.997 105.18 133.835 105.102 133.73C105.023 133.626 104.9 133.574 104.73 133.574C104.574 133.574 104.444 133.633 104.34 133.75C104.236 133.854 104.066 134.023 103.832 134.258C103.051 135.013 102.191 135.391 101.254 135.391C100.329 135.391 99.5547 135.241 98.9297 134.941C98.3047 134.629 97.7578 134.206 97.2891 133.672C96.2995 132.539 95.8047 131.185 95.8047 129.609V116.074C95.8047 115.085 96.2734 114.388 97.2109 113.984C97.4844 113.854 97.7773 113.789 98.0898 113.789C98.4154 113.789 98.7214 113.848 99.0078 113.965C99.2943 114.082 99.5417 114.245 99.75 114.453C100.206 114.909 100.434 115.449 100.434 116.074V129.551C100.434 130.202 100.596 130.69 100.922 131.016C101.495 131.589 102.094 131.875 102.719 131.875C103.747 131.875 104.464 131.471 104.867 130.664C104.997 130.404 105.062 130.111 105.062 129.785V116.074C105.062 115.436 105.225 114.961 105.551 114.648ZM126.867 113.789C127.193 113.789 127.512 113.835 127.824 113.926C128.137 114.017 128.43 114.16 128.703 114.355C129.328 114.811 129.641 115.443 129.641 116.25C129.641 116.901 129.471 117.389 129.133 117.715C128.547 118.275 128 118.555 127.492 118.555C126.841 118.555 126.249 118.346 125.715 117.93C125.298 117.656 124.829 117.52 124.309 117.52C123.788 117.52 123.378 117.689 123.078 118.027C122.779 118.353 122.629 118.77 122.629 119.277V133.086C122.629 133.711 122.466 134.193 122.141 134.531C121.555 135.104 121.021 135.391 120.539 135.391C120.07 135.391 119.693 135.326 119.406 135.195C119.133 135.078 118.892 134.915 118.684 134.707C118.228 134.251 118 133.711 118 133.086V116.133C118 115.495 118.169 115 118.508 114.648C119.055 114.076 119.576 113.789 120.07 113.789C120.578 113.789 120.956 113.848 121.203 113.965C121.451 114.069 121.659 114.193 121.828 114.336C122.062 114.544 122.232 114.759 122.336 114.98C122.44 115.189 122.525 115.345 122.59 115.449C122.668 115.553 122.785 115.605 122.941 115.605C123.111 115.605 123.247 115.553 123.352 115.449L123.703 115.117C124.719 114.232 125.773 113.789 126.867 113.789ZM145.508 113.789C145.833 113.789 146.152 113.835 146.465 113.926C146.777 114.017 147.07 114.16 147.344 114.355C147.969 114.811 148.281 115.443 148.281 116.25C148.281 116.901 148.112 117.389 147.773 117.715C147.188 118.275 146.641 118.555 146.133 118.555C145.482 118.555 144.889 118.346 144.355 117.93C143.939 117.656 143.47 117.52 142.949 117.52C142.428 117.52 142.018 117.689 141.719 118.027C141.419 118.353 141.27 118.77 141.27 119.277V133.086C141.27 133.711 141.107 134.193 140.781 134.531C140.195 135.104 139.661 135.391 139.18 135.391C138.711 135.391 138.333 135.326 138.047 135.195C137.773 135.078 137.533 134.915 137.324 134.707C136.868 134.251 136.641 133.711 136.641 133.086V116.133C136.641 115.495 136.81 115 137.148 114.648C137.695 114.076 138.216 113.789 138.711 113.789C139.219 113.789 139.596 113.848 139.844 113.965C140.091 114.069 140.299 114.193 140.469 114.336C140.703 114.544 140.872 114.759 140.977 114.98C141.081 115.189 141.165 115.345 141.23 115.449C141.309 115.553 141.426 115.605 141.582 115.605C141.751 115.605 141.888 115.553 141.992 115.449L142.344 115.117C143.359 114.232 144.414 113.789 145.508 113.789ZM156.805 115.957C156.805 115.176 157.169 114.629 157.898 114.316C158.107 114.225 158.335 114.18 158.582 114.18H163.191C164.78 114.18 166.141 114.746 167.273 115.879C168.406 117.012 168.973 118.372 168.973 119.961V133.105C168.973 134.095 168.504 134.792 167.566 135.195C167.28 135.326 166.967 135.391 166.629 135.391C166.29 135.391 165.997 135.332 165.75 135.215C165.516 135.111 165.314 134.987 165.145 134.844C165.001 134.714 164.858 134.531 164.715 134.297C164.572 134.049 164.461 133.867 164.383 133.75C164.305 133.633 164.181 133.574 164.012 133.574C163.842 133.574 163.706 133.633 163.602 133.75L163.289 134.082C162.417 134.954 161.395 135.391 160.223 135.391C158.829 135.391 157.625 134.818 156.609 133.672C155.594 132.539 155.086 131.185 155.086 129.609V126.914C155.086 125.326 155.652 123.965 156.785 122.832C157.905 121.712 159.266 121.152 160.867 121.152H164.344V120.02C164.344 119.368 164.181 118.88 163.855 118.555C163.283 117.982 162.677 117.695 162.039 117.695H158.582C158.1 117.695 157.729 117.572 157.469 117.324C157.026 116.908 156.805 116.452 156.805 115.957ZM159.715 129.57C159.715 130.234 159.878 130.723 160.203 131.035C160.776 131.582 161.303 131.855 161.785 131.855C162.267 131.855 162.645 131.81 162.918 131.719C163.204 131.628 163.452 131.497 163.66 131.328C164.116 130.964 164.344 130.482 164.344 129.883V124.648H162.039C161.375 124.648 160.88 124.811 160.555 125.137C159.995 125.697 159.715 126.302 159.715 126.953V129.57ZM179.645 135C179.163 135 178.746 134.831 178.395 134.492C178.043 134.154 177.867 133.802 177.867 133.438C177.867 133.073 177.913 132.786 178.004 132.578C178.108 132.357 178.245 132.161 178.414 131.992C178.766 131.641 179.176 131.465 179.645 131.465H183.961C184.755 131.465 185.393 131.243 185.875 130.801C186.357 130.345 186.598 129.785 186.598 129.121C186.598 128.457 186.415 127.923 186.051 127.52C185.686 127.103 185.237 126.81 184.703 126.641L181.188 125.664C179.977 125.299 179.013 124.622 178.297 123.633C177.568 122.63 177.203 121.569 177.203 120.449C177.203 119.329 177.366 118.405 177.691 117.676C178.03 116.947 178.479 116.322 179.039 115.801C180.198 114.72 181.63 114.18 183.336 114.18H188.102C188.596 114.18 189.007 114.355 189.332 114.707C189.658 115.046 189.82 115.462 189.82 115.957C189.82 116.452 189.658 116.868 189.332 117.207C189.007 117.533 188.596 117.695 188.102 117.695H183.707C183.043 117.695 182.522 117.891 182.145 118.281C181.78 118.672 181.598 119.134 181.598 119.668C181.598 120.501 182.06 121.126 182.984 121.543L186.812 122.656C188.87 123.346 190.237 124.648 190.914 126.562C191.135 127.214 191.246 127.962 191.246 128.809C191.246 129.655 191.07 130.462 190.719 131.23C190.38 131.999 189.924 132.663 189.352 133.223C188.141 134.408 186.715 135 185.074 135H179.645ZM208.168 118.34C207.608 117.65 206.924 117.305 206.117 117.305C205.414 117.305 204.893 117.474 204.555 117.812C203.995 118.372 203.715 118.978 203.715 119.629V129.18C203.715 129.844 203.878 130.332 204.203 130.645C204.776 131.191 205.382 131.465 206.02 131.465H210.824C211.592 131.465 212.133 131.836 212.445 132.578C212.536 132.786 212.582 133.014 212.582 133.262C212.582 133.496 212.536 133.724 212.445 133.945C212.354 134.154 212.23 134.336 212.074 134.492C211.736 134.831 211.319 135 210.824 135H204.867C203.279 135 201.918 134.434 200.785 133.301C199.652 132.168 199.086 130.807 199.086 129.219V119.531C199.086 117.852 199.652 116.497 200.785 115.469C202.022 114.349 203.767 113.789 206.02 113.789C209.053 113.789 211.078 114.492 212.094 115.898C212.419 116.328 212.582 116.764 212.582 117.207C212.582 117.637 212.523 117.995 212.406 118.281C212.289 118.555 212.126 118.796 211.918 119.004C211.475 119.447 210.974 119.668 210.414 119.668C209.503 119.668 208.754 119.225 208.168 118.34ZM221.086 119.531C221.086 117.773 221.685 116.38 222.883 115.352C224.133 114.31 225.852 113.789 228.039 113.789C230.201 113.789 231.906 114.31 233.156 115.352C234.367 116.393 234.973 117.799 234.973 119.57V129.668C234.973 132.389 233.645 134.167 230.988 135C230.129 135.26 229.146 135.391 228.039 135.391C226.945 135.391 225.969 135.26 225.109 135C224.25 134.727 223.521 134.336 222.922 133.828C221.698 132.812 221.086 131.406 221.086 129.609V119.531ZM230.344 119.629C230.344 118.978 230.181 118.49 229.855 118.164C229.283 117.591 228.677 117.305 228.039 117.305C227.388 117.305 226.893 117.474 226.555 117.812C225.995 118.372 225.715 118.978 225.715 119.629V129.785C225.715 130.449 225.936 130.964 226.379 131.328C226.822 131.68 227.368 131.855 228.02 131.855C228.684 131.855 229.237 131.68 229.68 131.328C230.122 130.964 230.344 130.449 230.344 129.785V119.629ZM232.57 108.711C232.74 109.023 232.824 109.323 232.824 109.609C232.824 109.896 232.714 110.163 232.492 110.41C232.271 110.658 232.03 110.781 231.77 110.781C231.249 110.781 230.858 110.651 230.598 110.391L228.039 107.773L225.48 110.391C225.22 110.651 224.895 110.781 224.504 110.781C224.113 110.781 223.807 110.658 223.586 110.41C223.365 110.163 223.254 109.896 223.254 109.609C223.254 109.323 223.339 109.023 223.508 108.711L225.852 104.551C226.398 103.561 227.134 103.066 228.059 103.066C228.905 103.066 229.628 103.561 230.227 104.551L232.57 108.711ZM247.578 134.551C247.253 134.863 246.947 135.078 246.66 135.195C246.387 135.326 246.087 135.391 245.762 135.391C245.449 135.391 245.15 135.332 244.863 135.215C244.59 135.098 244.349 134.935 244.141 134.727C243.685 134.271 243.457 133.73 243.457 133.105V116.133C243.457 115.495 243.62 115 243.945 114.648C244.505 114.076 245.033 113.789 245.527 113.789C246.035 113.789 246.413 113.841 246.66 113.945C246.908 114.049 247.116 114.18 247.285 114.336C247.507 114.531 247.669 114.74 247.773 114.961C247.891 115.182 247.982 115.345 248.047 115.449C248.125 115.553 248.242 115.605 248.398 115.605C248.568 115.605 248.711 115.553 248.828 115.449L249.16 115.117C250.111 114.232 251.061 113.789 252.012 113.789C253.691 113.789 255.078 114.479 256.172 115.859C256.276 116.003 256.406 116.074 256.562 116.074C256.836 116.074 257.109 115.866 257.383 115.449C257.669 115.02 258.125 114.635 258.75 114.297C259.375 113.958 260.104 113.789 260.938 113.789C261.771 113.789 262.526 113.945 263.203 114.258C263.893 114.557 264.492 114.974 265 115.508C266.068 116.628 266.602 117.982 266.602 119.57V133.105C266.602 134.095 266.133 134.792 265.195 135.195C264.909 135.326 264.603 135.391 264.277 135.391C263.965 135.391 263.665 135.332 263.379 135.215C263.105 135.098 262.865 134.935 262.656 134.727C262.214 134.258 261.992 133.717 261.992 133.105V119.629C261.992 118.978 261.829 118.49 261.504 118.164C260.931 117.591 260.404 117.305 259.922 117.305C259.44 117.305 259.062 117.37 258.789 117.5C258.516 117.617 258.268 117.786 258.047 118.008C257.591 118.464 257.363 118.991 257.363 119.59V133.105C257.363 134.095 256.901 134.792 255.977 135.195C255.69 135.326 255.384 135.391 255.059 135.391C254.746 135.391 254.447 135.332 254.16 135.215C253.874 135.098 253.626 134.935 253.418 134.727C252.962 134.271 252.734 133.73 252.734 133.105V119.629C252.734 118.978 252.572 118.49 252.246 118.164C251.673 117.591 251.074 117.305 250.449 117.305C249.408 117.305 248.685 117.708 248.281 118.516C248.151 118.776 248.086 119.069 248.086 119.395V133.105C248.086 133.743 247.917 134.225 247.578 134.551ZM285.477 131.465C285.971 131.465 286.388 131.641 286.727 131.992C287.065 132.344 287.234 132.767 287.234 133.262C287.234 133.743 287.065 134.154 286.727 134.492C286.388 134.831 285.971 135 285.477 135H280.867C279.279 135 277.918 134.434 276.785 133.301C275.652 132.168 275.086 130.807 275.086 129.219V119.629C275.086 117.858 275.685 116.445 276.883 115.391C278.133 114.323 279.852 113.789 282.039 113.789C284.201 113.789 285.906 114.323 287.156 115.391C288.367 116.458 288.973 117.884 288.973 119.668V125.137C288.973 125.788 288.81 126.276 288.484 126.602C287.924 127.161 287.312 127.441 286.648 127.441H279.715V129.18C279.715 129.844 279.878 130.332 280.203 130.645C280.776 131.191 281.382 131.465 282.02 131.465H285.477ZM284.344 119.629C284.344 118.978 284.181 118.49 283.855 118.164C283.283 117.591 282.677 117.305 282.039 117.305C281.388 117.305 280.893 117.474 280.555 117.812C279.995 118.372 279.715 118.978 279.715 119.629V124.023H284.344V119.629ZM307.145 131.465C307.639 131.465 308.049 131.641 308.375 131.992C308.701 132.344 308.863 132.767 308.863 133.262C308.863 133.743 308.701 134.154 308.375 134.492C308.049 134.831 307.639 135 307.145 135H304.801C303.212 135 301.852 134.434 300.719 133.301C299.599 132.181 299.039 130.82 299.039 129.219V117.617H296.734C295.992 117.617 295.465 117.266 295.152 116.562C295.061 116.354 295.016 116.133 295.016 115.898C295.016 115.156 295.367 114.629 296.07 114.316C296.279 114.225 296.5 114.18 296.734 114.18H299.039V110.117C299.039 109.089 299.508 108.372 300.445 107.969C300.719 107.839 301.018 107.773 301.344 107.773C301.982 107.773 302.464 107.943 302.789 108.281C303.362 108.841 303.648 109.453 303.648 110.117V114.18H307.184C307.639 114.18 307.991 114.303 308.238 114.551C308.655 114.967 308.863 115.417 308.863 115.898C308.863 116.367 308.701 116.771 308.375 117.109C308.049 117.448 307.652 117.617 307.184 117.617H303.648V129.18C303.648 129.831 303.818 130.312 304.156 130.625C304.729 131.185 305.328 131.465 305.953 131.465H307.145ZM324.75 113.789C325.076 113.789 325.395 113.835 325.707 113.926C326.02 114.017 326.312 114.16 326.586 114.355C327.211 114.811 327.523 115.443 327.523 116.25C327.523 116.901 327.354 117.389 327.016 117.715C326.43 118.275 325.883 118.555 325.375 118.555C324.724 118.555 324.132 118.346 323.598 117.93C323.181 117.656 322.712 117.52 322.191 117.52C321.671 117.52 321.26 117.689 320.961 118.027C320.661 118.353 320.512 118.77 320.512 119.277V133.086C320.512 133.711 320.349 134.193 320.023 134.531C319.438 135.104 318.904 135.391 318.422 135.391C317.953 135.391 317.576 135.326 317.289 135.195C317.016 135.078 316.775 134.915 316.566 134.707C316.111 134.251 315.883 133.711 315.883 133.086V116.133C315.883 115.495 316.052 115 316.391 114.648C316.938 114.076 317.458 113.789 317.953 113.789C318.461 113.789 318.839 113.848 319.086 113.965C319.333 114.069 319.542 114.193 319.711 114.336C319.945 114.544 320.115 114.759 320.219 114.98C320.323 115.189 320.408 115.345 320.473 115.449C320.551 115.553 320.668 115.605 320.824 115.605C320.993 115.605 321.13 115.553 321.234 115.449L321.586 115.117C322.602 114.232 323.656 113.789 324.75 113.789ZM334.328 119.531C334.328 117.773 334.927 116.38 336.125 115.352C337.375 114.31 339.094 113.789 341.281 113.789C343.443 113.789 345.148 114.31 346.398 115.352C347.609 116.393 348.215 117.799 348.215 119.57V129.668C348.215 132.389 346.887 134.167 344.23 135C343.371 135.26 342.388 135.391 341.281 135.391C340.188 135.391 339.211 135.26 338.352 135C337.492 134.727 336.763 134.336 336.164 133.828C334.94 132.812 334.328 131.406 334.328 129.609V119.531ZM343.586 119.629C343.586 118.978 343.423 118.49 343.098 118.164C342.525 117.591 341.919 117.305 341.281 117.305C340.63 117.305 340.135 117.474 339.797 117.812C339.237 118.372 338.957 118.978 338.957 119.629V129.785C338.957 130.449 339.178 130.964 339.621 131.328C340.064 131.68 340.611 131.855 341.262 131.855C341.926 131.855 342.479 131.68 342.922 131.328C343.365 130.964 343.586 130.449 343.586 129.785V119.629Z" fill="#F7B267"/>
</g>
<g filter="url(#filter1_d)">
<path d="M130.177 77.8875C128.851 76.5612 128.029 74.7301 128.029 72.7106C128.029 68.672 131.315 65.3863 135.353 65.3863C136.163 65.3862 136.818 66.0422 136.818 66.851C136.818 67.66 136.162 68.3159 135.354 68.3158C132.93 68.3159 130.959 70.2873 130.959 72.7104C130.959 75.1337 132.93 77.1051 135.354 77.1051C136.312 77.1051 137.223 76.8019 137.988 76.2285L142.681 72.7085C143.956 71.7517 145.475 71.2458 147.073 71.2458L264.35 71.2456C265.159 71.246 265.815 71.9018 265.815 72.7106C265.815 73.5198 265.159 74.1755 264.35 74.1755L147.073 74.1757C146.114 74.1757 145.203 74.4787 144.439 75.0523L139.746 78.5725C138.47 79.5295 136.951 80.0351 135.354 80.0352C133.334 80.0352 131.503 79.2137 130.177 77.8875V77.8875Z" fill="#999999"/>
<path d="M194.035 87.3598C197.271 87.3597 199.895 84.7363 199.895 81.5002L199.895 75.6407L182.316 75.6407L182.316 81.5003C182.316 84.7365 184.939 87.3599 188.175 87.3598C189.243 87.3598 190.243 87.0728 191.105 86.5739C191.967 87.0728 192.967 87.3596 194.035 87.3598V87.3598Z" fill="#A44129"/>
<path d="M188.175 81.5002C189.243 81.5002 190.243 81.2132 191.105 80.7144C191.967 81.2132 192.967 81.5002 194.035 81.5002C197.271 81.5002 199.895 78.8768 199.895 75.6407L199.895 63.9216C199.895 60.6854 197.271 58.062 194.035 58.0621C192.968 58.0621 191.967 58.3491 191.105 58.848C190.243 58.3491 189.243 58.0621 188.175 58.0621C184.939 58.0622 182.316 60.6856 182.316 63.9217L182.316 75.6407C182.316 78.8769 184.939 81.5004 188.175 81.5002Z" fill="#B6502F"/>
<path d="M192.999 82.5359C193.571 83.1079 194.499 83.1079 195.071 82.5359C195.643 81.9638 195.643 81.0363 195.071 80.4643C194.499 79.8922 193.571 79.8922 192.999 80.4643C192.427 81.0363 192.427 81.9638 192.999 82.5359Z" fill="#913122"/>
<path d="M187.14 76.6765C187.712 77.2485 188.639 77.2485 189.211 76.6765C189.783 76.1044 189.783 75.1769 189.211 74.6049C188.639 74.0328 187.712 74.0328 187.14 74.6049C186.568 75.1769 186.568 76.1044 187.14 76.6765Z" fill="#A44129"/>
<path d="M235.052 81.5003L229.192 78.5705L223.333 81.5003L223.333 85.895C223.333 86.7041 223.989 87.3599 224.798 87.3599L233.587 87.3599C234.396 87.3599 235.052 86.704 235.052 85.895L235.052 81.5003Z" fill="#1DA575"/>
<path d="M235.052 81.5002L235.052 63.9214L223.333 75.6406L223.333 81.5002L235.052 81.5002Z" fill="#0ABF52"/>
<path d="M235.052 63.9214L235.052 59.5267C235.052 58.7177 234.396 58.0618 233.587 58.0618L224.798 58.0618C223.989 58.0618 223.333 58.7177 223.333 59.5268L223.333 75.6405C229.805 75.6406 235.052 70.3939 235.052 63.9214V63.9214Z" fill="#5CC563"/>
<path d="M153.174 86.5017C154.835 84.8405 156.134 82.9516 157.069 80.9347L151.756 78.4623C151.102 79.8738 150.194 81.1957 149.031 82.3583C147.887 83.5024 147.887 85.3576 149.031 86.5017C150.175 87.6461 152.03 87.6461 153.174 86.5017V86.5017Z" fill="#DB2116"/>
<path d="M157.069 80.9348C158.275 78.3354 158.878 75.5234 158.878 72.7111C158.878 67.7168 156.977 62.7225 153.174 58.9203C152.03 57.776 150.175 57.7761 149.031 58.9203C147.887 60.0644 147.887 61.9195 149.031 63.0637C151.691 65.7235 153.02 69.2173 153.021 72.7111C153.021 74.6778 152.599 76.6446 151.756 78.4628C151.075 79.9288 151.71 81.6704 153.175 82.3534C154.642 83.0366 156.386 82.4015 157.069 80.9348V80.9348Z" fill="#FF3A2F"/>
<path d="M176.456 81.5005L170.597 78.5708L164.737 81.5005L164.737 85.8952C164.737 86.7043 165.393 87.3602 166.202 87.3602L174.991 87.3602C175.8 87.3602 176.456 86.7043 176.456 85.8952L176.456 81.5005Z" fill="#0ABF52"/>
<path d="M176.456 81.5004L176.456 59.527C176.456 58.7179 175.8 58.062 174.991 58.062L166.202 58.0621C165.393 58.0621 164.737 58.7179 164.737 59.527L164.737 69.7812L176.456 81.5005L176.456 81.5004Z" fill="#ADCB74"/>
<path d="M164.737 69.7812L164.737 81.5002L176.456 81.5002C176.456 75.0279 171.209 69.7812 164.737 69.7812Z" fill="#5CC563"/>
<path d="M258.49 72.7108L240.912 72.7108C240.911 77.5652 244.847 81.5002 249.701 81.5002C254.555 81.5002 258.49 77.5651 258.49 72.7108V72.7108Z" fill="#FF3A2F"/>
<path d="M249.701 75.6404C254.555 75.6404 258.49 74.3286 258.49 72.7107C258.49 67.8563 254.555 63.9213 249.701 63.9213C244.847 63.9213 240.912 67.8564 240.911 72.7107C240.912 74.3287 244.847 75.6404 249.701 75.6404V75.6404Z" fill="#FF5A35"/>
<path d="M211.614 58.0619C208.377 58.0619 205.754 60.6854 205.754 63.9215L205.754 69.781L217.473 69.781L217.473 63.9214C217.473 60.6854 214.85 58.0619 211.614 58.0619Z" fill="#FFE8C2"/>
<path d="M217.473 81.5L217.473 75.6405L205.754 75.6405L205.754 81.5C205.754 84.7363 208.378 87.3597 211.614 87.3596C214.85 87.3594 217.473 84.7363 217.473 81.5V81.5Z" fill="#FFBA48"/>
<path d="M211.614 77.5938C214.85 77.5938 217.473 76.7193 217.473 75.6407L217.473 69.7811C217.473 68.7025 214.85 67.8278 211.614 67.828C208.378 67.8281 205.754 68.7025 205.754 69.7812L205.754 75.6407C205.754 76.7195 208.378 77.5938 211.614 77.5938Z" fill="#FFD185"/>
</g>
<defs>
<filter id="filter0_d" x="47.7656" y="103.066" width="304.449" height="40.3242" filterUnits="userSpaceOnUse" color-interpolation-filters="sRGB">
<feFlood flood-opacity="0" result="BackgroundImageFix"/>
<feColorMatrix in="SourceAlpha" type="matrix" values="0 0 0 0 0 0 0 0 0 0 0 0 0 0 0 0 0 0 127 0"/>
<feOffset dy="4"/>
<feGaussianBlur stdDeviation="2"/>
<feColorMatrix type="matrix" values="0 0 0 0 0 0 0 0 0 0 0 0 0 0 0 0 0 0 0.25 0"/>
<feBlend mode="normal" in2="BackgroundImageFix" result="effect1_dropShadow"/>
<feBlend mode="normal" in="SourceGraphic" in2="effect1_dropShadow" result="shape"/>
</filter>
<filter id="filter1_d" x="121" y="2" width="149.421" height="149.421" filterUnits="userSpaceOnUse" color-interpolation-filters="sRGB">
<feFlood flood-opacity="0" result="BackgroundImageFix"/>
<feColorMatrix in="SourceAlpha" type="matrix" values="0 0 0 0 0 0 0 0 0 0 0 0 0 0 0 0 0 0 127 0"/>
<feOffset dy="4"/>
<feGaussianBlur stdDeviation="2"/>
<feColorMatrix type="matrix" values="0 0 0 0 0 0 0 0 0 0 0 0 0 0 0 0 0 0 0.25 0"/>
<feBlend mode="normal" in2="BackgroundImageFix" result="effect1_dropShadow"/>
<feBlend mode="normal" in="SourceGraphic" in2="effect1_dropShadow" result="shape"/>
</filter>
</defs>
</svg>
