<svg width="120" height="90" viewBox="0 0 120 90" fill="none" xmlns="http://www.w3.org/2000/svg">
<path d="M109.453 0H10.5469C8.92334 0 7.40342 0.392999 6.02834 1.04077L59.7656 53.9511L71.8099 42.5542C71.8099 42.5542 71.8109 42.553 71.8111 42.5525C71.8113 42.5521 71.8123 42.5516 71.8123 42.5516L113.973 1.04169C112.598 0.39346 111.077 0 109.453 0Z" fill="#283618"/>
<path d="M118.944 5.93701L79.2687 45.0001L118.943 84.0639C119.601 82.71 120 81.2134 120 79.6149V10.3844C120 8.78677 119.602 7.29047 118.944 5.93701Z" fill="#283618"/>
<path d="M1.05703 5.93555C0.399141 7.28947 0 8.786 0 10.3845V79.6151C0 81.2127 0.398672 82.7094 1.05609 84.0629L40.7318 44.9998L1.05703 5.93555Z" fill="#283618"/>
<path d="M74.2974 49.8955L62.2514 61.2938C61.5647 61.97 60.6652 62.3081 59.7659 62.3081C58.8666 62.3081 57.9668 61.97 57.2803 61.2938L45.7031 49.895L6.02673 88.9583C7.40205 89.6066 8.92291 90 10.5469 90H109.453C111.077 90 112.597 89.607 113.972 88.9593L74.2974 49.8955Z" fill="#283618"/>
</svg>
