<svg width="25" height="18" viewBox="0 0 25 18" fill="none" xmlns="http://www.w3.org/2000/svg">
<path d="M14.0625 8.59375H18.4266L19.7594 9.92813C19.8321 10.0006 19.9183 10.0581 20.0132 10.0972C20.1081 10.1364 20.2098 10.1564 20.3125 10.1563H21.875C22.0822 10.1563 22.2809 10.0739 22.4274 9.92743C22.5739 9.78092 22.6562 9.5822 22.6562 9.375V7.8125C22.6562 7.6053 22.5739 7.40659 22.4274 7.26007C22.2809 7.11356 22.0822 7.03125 21.875 7.03125H14.0625V8.59375Z" fill="black"/>
<path d="M18.75 0H6.25C4.5924 0 3.00269 0.65848 1.83058 1.83058C0.65848 3.00268 0 4.5924 0 6.25L0 15.625C0 16.0394 0.16462 16.4368 0.457646 16.7299C0.750671 17.0229 1.1481 17.1875 1.5625 17.1875H23.4375C23.8519 17.1875 24.2493 17.0229 24.5424 16.7299C24.8354 16.4368 25 16.0394 25 15.625V6.25C25 4.5924 24.3415 3.00268 23.1694 1.83058C21.9973 0.65848 20.4076 0 18.75 0ZM12.5 6.25C12.5011 5.36315 12.3129 4.48627 11.9481 3.67794C11.5832 2.8696 11.0501 2.1484 10.3844 1.5625H18.75C19.9932 1.5625 21.1855 2.05636 22.0646 2.93544C22.9436 3.81451 23.4375 5.0068 23.4375 6.25V15.625H12.5V6.25ZM7.16406 6.49531C6.90625 6.38594 6.59062 6.25 6.25 6.25C5.90938 6.25 5.59375 6.38438 5.33594 6.49531C4.94375 6.6625 4.6875 6.77187 4.6875 6.25C4.6875 5.8356 4.85212 5.43817 5.14515 5.14515C5.43817 4.85212 5.8356 4.6875 6.25 4.6875C6.6644 4.6875 7.06183 4.85212 7.35485 5.14515C7.64788 5.43817 7.8125 5.8356 7.8125 6.25C7.8125 6.77187 7.55625 6.6625 7.16406 6.49531Z" fill="black"/>
</svg>
