<svg width="120" height="122" viewBox="0 0 120 122" fill="none" xmlns="http://www.w3.org/2000/svg">
<path d="M116.876 0H3.1253C1.39903 0 0 1.39903 0 3.1253V117.889C0 119.615 1.39903 121.014 3.1253 121.014H40.9395V120.987C42.6462 120.967 43.9538 120.011 44.0139 118.395C44.169 114.193 44.0595 109.981 44.0595 105.919C41.0139 106.061 38.1063 106.446 35.2315 106.28C28.891 105.915 24.0188 103.209 21.4919 97.0006C19.9951 93.3225 17.7396 90.1765 14.227 88.0772C13.5711 87.6848 12.9976 87.107 12.4957 86.5203C11.8397 85.7551 11.9624 84.9689 12.9989 84.7589C14.0445 84.5463 15.1868 84.3978 16.2179 84.5906C20.2676 85.3507 23.068 87.8906 25.2116 91.2688C29.4502 97.952 35.9746 99.9979 43.3149 96.9116C43.7242 96.7394 44.2444 96.3223 44.3215 95.9416C44.9133 92.9831 46.019 90.2856 48.2472 87.9206C45.77 87.4617 43.4753 87.1241 41.225 86.6023C34.7449 85.1029 28.9236 82.4054 24.6666 77.0479C21.1935 72.6776 19.6052 67.5616 18.8751 62.1168C17.7318 53.5886 18.7552 45.6055 24.6119 38.7904C24.9078 38.4461 25.0682 37.7407 24.9366 37.3119C23.4698 32.5191 23.6939 27.7666 25.1477 23.0273C25.9106 20.5384 26.123 20.4144 28.6629 20.7612C28.8182 20.7821 28.9692 20.8211 29.1232 20.8473C34.2145 21.6896 38.5967 24.1549 42.9135 26.8017C43.4939 27.1577 44.3778 27.3793 45.0154 27.2242C55.3259 24.7222 65.6168 24.7327 75.926 27.2334C76.5245 27.378 77.3238 27.172 77.896 26.8722C80.2429 25.6453 82.4894 24.219 84.8663 23.0558C87.6315 21.7039 90.5442 20.6868 93.6799 20.7429C94.2287 20.7533 95.0777 21.2774 95.2613 21.7625C97.148 26.7613 97.5458 31.8553 96.0423 37.0575C95.8819 37.6129 96.1205 38.4043 96.4192 38.9518C97.903 41.6743 99.9746 44.1867 100.914 47.0744C103.775 55.8764 102.732 64.5925 98.8366 72.8651C95.2667 80.448 88.646 84.2904 80.8089 86.2723C78.1621 86.9413 75.4503 87.348 72.5949 87.9087C76.3368 91.8175 76.9235 96.5879 76.857 101.584C76.788 106.738 76.8063 111.893 76.8035 117.049C76.8023 119.545 77.8922 120.925 79.7944 121.006C79.7931 121.013 120 121.013 120 121.013V3.1253C120 1.39903 118.601 0 116.876 0Z" fill="#283618"/>
</svg>
