<svg width="120" height="120" viewBox="0 0 120 120" fill="none" xmlns="http://www.w3.org/2000/svg">
<path fill-rule="evenodd" clip-rule="evenodd" d="M64.9846 53.8946V53.7192C64.9487 53.7781 64.8992 53.8369 64.868 53.8946H64.9846Z" fill="#283618"/>
<path fill-rule="evenodd" clip-rule="evenodd" d="M0 0V120H120V0H0ZM37.3245 99.6928H19.5207V46.1291H37.3245V99.6928ZM28.4226 38.8183H28.305C22.3327 38.8183 18.4615 34.7037 18.4615 29.5609C18.4615 24.3051 22.4458 20.3072 28.5392 20.3072C34.6338 20.3072 38.3792 24.3051 38.4957 29.5609C38.4957 34.7037 34.6338 38.8183 28.4226 38.8183ZM101.538 99.6928H83.7299V71.036C83.7299 63.8384 81.1569 58.9253 74.7115 58.9253C69.7891 58.9253 66.864 62.2333 65.5754 65.4377C65.107 66.5823 64.9846 68.1735 64.9846 69.7785V99.6931H47.1727C47.1727 99.6931 47.4113 51.1543 47.1727 46.1293H64.9846V53.7194C67.3511 50.078 71.5743 44.8718 81.0346 44.8718C92.7542 44.8718 101.538 52.5255 101.538 68.9768V99.6928Z" fill="#283618"/>
</svg>
