<svg width="200" height="200" viewBox="0 0 200 200" fill="none" xmlns="http://www.w3.org/2000/svg">
<path d="M0 58.1338V116.268H47.6149C77.2593 116.268 95.2298 116.334 95.2298 116.416C95.2298 116.515 95.1605 116.614 95.0737 116.68C94.6054 116.945 91.1882 122.296 90.2168 124.277C89.0893 126.573 88.7945 127.184 88.3781 128.241C87.0425 131.561 85.8803 135.607 85.3426 138.893C83.608 149.348 85.3079 160.066 90.2515 169.678C93.9809 176.945 99.7225 183.567 106.592 188.538C110.425 191.313 114.796 193.757 118.647 195.293C119.271 195.541 120.017 195.838 120.295 195.954C126.435 198.481 134.744 200 142.411 200C151.795 200 160.659 198.018 168.951 194.071C174.814 191.28 179.271 188.208 183.972 183.732C186.678 181.156 187.719 180 187.06 180.264C186.401 180.528 183.92 180.859 181.804 180.958C179.653 181.057 175.507 180.661 175.126 180.314C175.022 180.248 174.744 180.182 174.484 180.182C174.224 180.182 173.946 180.099 173.894 180.017C173.842 179.917 173.599 179.851 173.374 179.851C173.148 179.851 172.905 179.769 172.853 179.686C172.801 179.587 172.593 179.521 172.42 179.521C171.778 179.521 168.205 177.969 166.036 176.763C165.325 176.367 164.683 176.053 164.597 176.053C164.51 176.053 164.441 175.97 164.441 175.888C164.441 175.789 164.371 175.723 164.267 175.723C164.128 175.723 161.023 173.708 160.312 173.163C159.653 172.651 157.693 171.148 157.086 170.685C156.722 170.405 156.253 170.058 156.045 169.893C155.351 169.315 152.489 167.465 152.316 167.465C152.212 167.465 152.125 167.415 152.125 167.333C152.125 167.267 151.622 166.986 150.997 166.722C150.373 166.441 149.87 166.177 149.87 166.094C149.87 166.028 149.731 165.979 149.558 165.979C149.384 165.979 149.176 165.912 149.089 165.846C148.794 165.599 147.216 165.136 145.134 164.674C144.076 164.443 141.44 164.443 140.382 164.674C138.526 165.07 136.513 165.764 135.126 166.457C133.686 167.168 131.171 168.654 130.512 169.166C129.679 169.827 128.118 170.933 128.031 170.933C127.979 170.933 127.303 170.025 126.539 168.918C125.776 167.828 125.048 166.821 124.944 166.705C124.822 166.59 124.718 166.457 124.718 166.391C124.718 166.342 124.527 166.045 124.302 165.764C124.094 165.467 123.851 165.153 123.799 165.054C123.625 164.773 128.083 161.668 130.356 160.446C131.414 159.884 132.559 159.339 133.478 158.96C133.86 158.811 134.397 158.58 134.675 158.448C134.935 158.332 135.421 158.183 135.75 158.117C136.08 158.068 136.392 157.952 136.444 157.87C136.496 157.787 136.756 157.721 137.016 157.721C137.277 157.721 137.554 157.655 137.641 157.572C137.936 157.341 140.85 156.994 142.585 156.978C144.371 156.978 147.754 157.358 147.892 157.589C147.944 157.655 148.205 157.721 148.482 157.721C148.76 157.721 149.02 157.787 149.072 157.87C149.124 157.952 149.454 158.068 149.801 158.134C150.425 158.233 150.598 158.299 151.379 158.679C151.605 158.794 151.899 158.877 152.038 158.877C152.177 158.877 152.298 158.943 152.298 159.042C152.298 159.125 152.402 159.207 152.541 159.207C152.836 159.207 154.623 160.066 154.692 160.231C154.727 160.314 154.831 160.363 154.918 160.363C155.022 160.363 155.525 160.628 156.045 160.941C156.565 161.255 157.069 161.519 157.155 161.519C157.259 161.519 157.329 161.585 157.329 161.652C157.329 161.718 157.589 161.916 157.901 162.097C158.612 162.51 160.191 163.633 161.839 164.905C162.845 165.698 165.776 167.828 167.129 168.753C168.205 169.496 172.177 171.594 172.507 171.594C172.611 171.594 172.767 171.66 172.871 171.726C172.958 171.808 173.426 172.007 173.894 172.155C174.38 172.32 174.918 172.502 175.108 172.585C177.814 173.658 183.938 173.658 186.73 172.585C186.921 172.519 187.355 172.353 187.684 172.254C189.506 171.627 191.761 170.553 193.773 169.348C195.403 168.357 195.386 168.39 196.618 165.318C198.023 161.8 198.907 158.629 199.566 154.748C199.948 152.453 199.965 152.502 199.185 152.948C198.82 153.163 198.422 153.427 198.3 153.543C198.179 153.658 198.005 153.757 197.918 153.757C197.832 153.757 197.658 153.856 197.537 153.955C197.398 154.071 197.138 154.253 196.964 154.352C196.461 154.616 195.091 155.343 194.206 155.822C193.773 156.053 193.304 156.235 193.166 156.235C193.01 156.235 192.888 156.284 192.888 156.367C192.888 156.433 192.628 156.581 192.333 156.697C192.021 156.829 191.605 156.994 191.414 157.077C191.032 157.242 189.107 157.836 188.291 158.051C188.014 158.134 187.32 158.315 186.748 158.448C184.527 159.026 180.989 159.257 178.317 158.976C176.565 158.794 173.738 158.2 173.079 157.87C172.905 157.787 172.611 157.721 172.437 157.721C172.246 157.721 172.056 157.655 172.003 157.572C171.951 157.506 171.657 157.391 171.362 157.325C170.841 157.225 167.389 155.656 165.828 154.814C164.944 154.335 162.324 152.733 162.186 152.601C162.134 152.552 161.665 152.221 161.145 151.858C160.624 151.495 160.156 151.164 160.104 151.115C160.052 151.065 159.705 150.818 159.324 150.537C158.942 150.272 158.595 150.008 158.543 149.959C158.491 149.909 158.075 149.562 157.589 149.216C157.121 148.852 156.635 148.472 156.531 148.39C156.427 148.291 156.132 148.076 155.854 147.894C155.594 147.713 155.178 147.415 154.918 147.217C153.426 146.078 149.592 144.046 147.892 143.501C146.088 142.923 145.186 142.808 142.758 142.791C139.67 142.791 137.381 143.336 134.866 144.707C134.397 144.971 133.86 145.235 133.703 145.285C133.53 145.334 133.391 145.434 133.391 145.516C133.391 145.599 133.304 145.665 133.218 145.665C133.044 145.665 131.674 146.457 131.483 146.672C131.431 146.722 131.032 147.002 130.581 147.283C130.147 147.581 129.679 147.911 129.54 148.01C129.419 148.126 129.02 148.439 128.638 148.704C127.997 149.166 127.962 149.166 127.788 148.869C127.684 148.704 126.73 147.316 125.655 145.797L123.695 143.039L124.319 142.576C124.666 142.329 125.239 141.883 125.585 141.602C125.95 141.338 126.661 140.842 127.164 140.545C127.684 140.231 128.257 139.835 128.43 139.686C128.621 139.521 128.829 139.389 128.899 139.389C128.985 139.389 129.315 139.207 129.644 138.993C130.199 138.629 133.877 136.862 134.692 136.565C135.768 136.168 136.947 135.855 138.942 135.409C140.208 135.128 145.308 135.128 146.574 135.409C149.454 136.053 150.321 136.317 151.934 137.027C152.663 137.341 153.669 137.787 154.189 138.018C155.525 138.613 159.081 140.925 161.509 142.808C166.487 146.639 170.841 149.298 173.547 150.14C173.929 150.256 174.31 150.421 174.415 150.487C174.501 150.553 174.744 150.619 174.935 150.619C175.143 150.619 175.369 150.669 175.438 150.735C175.663 150.966 177.19 151.263 178.994 151.445C181.44 151.693 185.846 151.263 186.401 150.735C186.47 150.669 186.713 150.619 186.921 150.619C187.147 150.619 187.355 150.553 187.407 150.471C187.459 150.405 187.754 150.289 188.049 150.223C188.708 150.107 191.657 148.753 192.663 148.109C193.062 147.861 193.426 147.647 193.478 147.647C193.582 147.647 194.761 146.92 195.091 146.656C195.195 146.573 195.525 146.375 195.785 146.21C196.062 146.045 197.121 145.285 198.144 144.525C199.549 143.485 200 143.055 200 142.758C200 141.338 199.115 136.482 198.369 133.774C198.127 132.915 197.918 132.155 197.918 132.073C197.918 131.941 197.537 132.122 196.097 132.948C195.629 133.212 194.536 133.774 193.669 134.17C192.316 134.798 191.709 135.045 189.853 135.756C189.662 135.822 189.072 136.003 188.552 136.152C187.615 136.4 187.077 136.515 184.996 136.928C183.677 137.176 178.387 137.176 177.016 136.928C174.38 136.433 173.062 136.119 172.16 135.756C171.969 135.69 171.535 135.524 171.206 135.425C169.801 134.946 166.106 133.13 164.146 131.924C162.22 130.768 158.82 128.406 157.936 127.614C157.745 127.448 156.843 126.771 155.941 126.127C155.039 125.467 154.154 124.822 153.981 124.674C153.807 124.525 153.374 124.261 152.992 124.096C152.611 123.931 152.298 123.732 152.298 123.65C152.298 123.584 152.194 123.534 152.056 123.534C151.917 123.534 151.778 123.468 151.743 123.402C151.691 123.287 149.61 122.279 148.569 121.866C148.205 121.718 146.696 121.288 145.707 121.057C143.781 120.595 140 120.842 137.745 121.602C135.941 122.18 130.963 124.905 129.922 125.863C129.783 125.995 129.35 126.309 128.968 126.573C128.586 126.854 128.222 127.135 128.17 127.201C128.083 127.333 126.973 125.945 126.973 125.698C126.973 125.615 126.904 125.516 126.834 125.483C126.748 125.45 126.297 124.872 125.828 124.195C125.36 123.518 124.857 122.824 124.718 122.675C124.579 122.527 124.302 122.13 124.128 121.8L123.781 121.206L124.302 120.76C124.579 120.512 125.117 120.099 125.499 119.835C125.88 119.554 126.227 119.29 126.279 119.24C126.331 119.191 126.956 118.778 127.667 118.332C128.378 117.886 129.003 117.49 129.055 117.424C129.263 117.209 133.322 115.227 134.519 114.765C137.589 113.559 142.186 112.948 145.186 113.361C146.869 113.592 149.853 114.302 150.997 114.765C151.188 114.847 151.657 115.029 152.038 115.194C153.166 115.64 153.53 115.822 154.866 116.548C155.577 116.945 156.184 117.258 156.236 117.258C156.34 117.258 158.855 118.927 159.67 119.521C160.468 120.099 160.399 120.05 162.706 121.833C165.048 123.617 168.309 125.846 168.604 125.846C168.69 125.846 168.777 125.896 168.777 125.962C168.777 126.045 168.951 126.177 169.176 126.276C169.384 126.375 170.217 126.788 171.032 127.184C172.663 127.993 173.547 128.357 174.588 128.654C174.97 128.77 175.473 128.918 175.716 129.001C176.982 129.397 178.474 129.562 180.833 129.546C183.729 129.546 185.481 129.298 187.251 128.637C187.441 128.571 188.187 128.307 188.899 128.059C189.61 127.795 190.234 127.547 190.286 127.498C190.338 127.448 190.963 127.118 191.674 126.771C192.385 126.408 193.426 125.83 193.964 125.483L194.97 124.839L194.363 123.683C192.819 120.793 190.321 117.11 187.979 114.335C185.447 111.313 180.729 107.052 177.103 104.525C172.264 101.156 165.585 97.9851 159.931 96.3832C154.727 94.9133 150.703 94.2527 145.395 93.9884C134.068 93.4104 122.411 96.0859 112.749 101.437L111.101 102.362L111.049 51.1808L111.015 -8.41916e-06H55.5074H0V58.1338ZM38.8899 18.6953C38.9419 19.1742 39.0113 19.2403 39.497 19.2898C39.9827 19.3394 40.052 19.4054 40.1041 19.8679C40.1561 20.3468 40.2255 20.3964 40.7632 20.4459L41.3703 20.4955V26.4244V32.3534L40.7632 32.403C40.2255 32.4525 40.1561 32.5021 40.1041 32.981C40.052 33.4104 39.9653 33.526 39.6704 33.526C39.098 33.526 38.8899 33.7242 38.8205 34.2692L38.7684 34.7647H35.1258H31.4831L31.3964 34.1866C31.327 33.6746 31.2402 33.6086 30.7546 33.559C30.2689 33.5095 30.1995 33.4434 30.1474 32.981C30.0954 32.5186 30.026 32.4525 29.5403 32.403L28.9679 32.3534V26.4079V20.4789H29.575C30.1474 20.4789 30.1821 20.4459 30.1821 19.9009C30.1821 19.3559 30.2168 19.3229 30.7892 19.3229C31.3617 19.3229 31.3964 19.2898 31.3964 18.7448V18.1668H35.1084H38.8378L38.8899 18.6953ZM51.5178 25.3509V32.5186L52.7494 32.5681L53.9809 32.6177V33.6912V34.7647L50.3209 34.8142L46.6609 34.8472V33.7077V32.5516L47.8751 32.5021L49.1067 32.4525V27.6961C49.1067 25.0867 49.0546 22.8737 49.0026 22.7911C48.9332 22.692 48.3955 22.6259 47.771 22.6259H46.6609V21.5524V20.4789H47.268C47.8404 20.4789 47.8751 20.4459 47.8751 19.9009C47.8751 19.3559 47.9098 19.3229 48.4822 19.3229C49.0546 19.3229 49.0893 19.2898 49.0893 18.7448V18.1668H50.3036H51.5178V25.3509ZM69.2454 18.6953C69.2975 19.1742 69.3669 19.2403 69.8526 19.2898C70.3383 19.3394 70.4076 19.4054 70.4597 19.8679C70.5117 20.3468 70.5637 20.3964 71.1709 20.4459L71.8127 20.4955V26.4244V32.3534L71.1709 32.403C70.5637 32.4525 70.5117 32.5021 70.4597 32.981C70.4076 33.4104 70.3209 33.526 70.026 33.526C69.4536 33.526 69.2454 33.7242 69.1761 34.2692L69.124 34.7647H65.4814H61.8387L61.8213 34.3518C61.8213 33.7407 61.6132 33.526 61.0408 33.526C60.5724 33.526 60.5377 33.4765 60.5377 32.948C60.5377 32.403 60.503 32.3699 59.9306 32.3699H59.3235V26.4244V20.4789H59.9306C60.503 20.4789 60.5377 20.4459 60.5377 19.9009C60.5377 19.3559 60.5724 19.3229 61.1448 19.3229C61.752 19.3229 61.8213 19.2403 61.752 18.5301L61.7346 18.1668H65.464H69.1934L69.2454 18.6953ZM82.2203 25.3509V32.5351H83.4345H84.6661L84.6141 33.6416L84.562 34.7647L80.9714 34.8142L77.3634 34.8472V33.6912V32.5351H78.5776H79.7918L79.7572 27.6135L79.7051 22.7085L78.5429 22.659L77.3634 22.6094V21.5524V20.4789H77.9705C78.5429 20.4789 78.5776 20.4459 78.5776 19.9009C78.5776 19.3559 78.6123 19.3229 79.1847 19.3229C79.7572 19.3229 79.7918 19.2898 79.7918 18.7448V18.1668H81.0061H82.2203V25.3509ZM38.8205 48.1751C38.8725 48.6375 38.9419 48.7035 39.4276 48.7531C39.8959 48.8026 40 48.8687 40.0347 49.2981C40.1041 49.8596 40.3122 50.0413 40.9367 50.0413H41.3703L41.3356 55.9372L41.2836 61.8497L40.7285 61.9323C40.2428 61.9983 40.1561 62.0809 40.1041 62.5433C40.052 63.0058 39.9827 63.0718 39.497 63.1214C39.0113 63.1709 38.9419 63.237 38.8899 63.6994L38.8378 64.2444H35.1084H31.3964V63.6664C31.3964 63.1214 31.3617 63.0884 30.7892 63.0884C30.2168 63.0884 30.1821 63.0553 30.1821 62.5103C30.1821 61.9653 30.1474 61.9323 29.575 61.9323H28.9679V56.0033V50.0578L29.5403 50.0083C30.026 49.9587 30.1128 49.8926 30.1821 49.3807C30.2515 48.8687 30.3382 48.8026 30.8413 48.7531C31.327 48.7035 31.3964 48.6375 31.3964 48.2411C31.3964 47.9934 31.4484 47.7291 31.5178 47.6631C31.5872 47.6135 33.235 47.5805 35.1951 47.597L38.7684 47.6466L38.8205 48.1751ZM51.5178 54.8307L51.6045 62.0149L52.8187 62.0644L54.033 62.1139V63.1709V64.2444H50.3556H46.6609V63.1709V62.0974H47.8751H49.0893V57.1429V52.1883H47.8751H46.6609V51.1313V50.0578L47.2333 50.0083C47.719 49.9587 47.8057 49.8926 47.8751 49.3807C47.9445 48.8687 48.0312 48.7861 48.569 48.7201C49.0373 48.654 49.1587 48.5714 49.124 48.3237C49.0026 47.6631 49.2108 47.5475 50.3382 47.597L51.4311 47.6466L51.5178 54.8307ZM69.1761 48.1751C69.2281 48.6375 69.2975 48.7035 69.7832 48.7531C70.2515 48.8026 70.3556 48.8687 70.3903 49.2981C70.4597 49.8761 70.6678 50.0413 71.3443 50.0413H71.8127V55.9703V61.9158L71.1709 61.9653C70.5637 62.0149 70.5117 62.0644 70.4597 62.5433C70.4076 63.0058 70.3383 63.0718 69.8526 63.1214C69.3669 63.1709 69.2975 63.237 69.2454 63.6994L69.1934 64.2444H65.464H61.7346L61.752 63.8646C61.8213 63.1709 61.752 63.0884 61.1448 63.0884C60.5724 63.0884 60.5377 63.0553 60.5377 62.5103C60.5377 61.9653 60.503 61.9323 59.9306 61.9323H59.3235V56.0033V50.0578L59.8959 50.0083C60.3816 49.9587 60.4683 49.8926 60.5377 49.3807C60.6071 48.9017 60.6938 48.8026 61.0581 48.7861C61.6479 48.7861 61.9254 48.6045 61.804 48.3072C61.752 48.1751 61.752 47.9438 61.8213 47.8117C61.9081 47.597 62.4284 47.564 65.516 47.597L69.124 47.6466L69.1761 48.1751ZM81.5611 54.7812L81.6132 62.0149L82.8794 62.0644L84.1284 62.1139V63.1709V64.2444H80.399H76.6696V63.1709V62.1139L77.9358 62.0644L79.1847 62.0149V57.1429V52.2708L77.9358 52.2213L76.6696 52.1718V51.1148C76.6696 50.0578 76.6696 50.0413 77.1552 50.0413C77.8491 50.0413 78.1266 49.8101 78.0226 49.3311C77.9358 48.8687 78.1266 48.7201 78.8552 48.7201C79.2194 48.7201 79.2715 48.6375 79.2715 48.142V47.564H80.399H81.5265L81.5611 54.7812ZM38.8552 77.7044C38.8552 78.2494 38.8899 78.2824 39.4623 78.2824C40.0347 78.2824 40.0694 78.3154 40.0694 78.8439C40.0694 79.3724 40.1041 79.422 40.6765 79.4715L41.2836 79.5211L41.3356 85.417C41.3703 91.7424 41.405 91.4946 40.503 91.4946C40.1735 91.4946 40.0867 91.5937 40.0347 92.0231C39.9827 92.5021 39.9133 92.5681 39.4276 92.6177C38.9072 92.6672 38.8552 92.7168 38.8552 93.2452V93.8068H35.1258H31.3964V93.2452C31.3964 92.7168 31.3443 92.6672 30.8413 92.6177C30.3382 92.5681 30.2689 92.5021 30.2168 92.0231C30.1648 91.5442 30.1128 91.4946 29.5577 91.4946H28.9679V85.4666V79.4385H29.575C30.1474 79.4385 30.1821 79.4054 30.1821 78.8604C30.1821 78.3154 30.2168 78.2824 30.7892 78.2824C31.3617 78.2824 31.3964 78.2494 31.3964 77.7044V77.1263H35.1258H38.8552V77.7044ZM51.5178 84.3105V91.4946H52.5412C54.0156 91.4946 54.033 91.5111 54.0156 92.7002L53.9809 93.7242L50.3209 93.7737L46.6609 93.8068V92.6672V91.5111L47.8751 91.4616L49.1067 91.4121V86.6226V81.8332L47.8751 81.7836L46.6609 81.7341V80.5945V79.4385H47.268C47.8404 79.4385 47.8751 79.4054 47.8751 78.8604C47.8751 78.3154 47.9098 78.2824 48.4822 78.2824C49.0546 78.2824 49.0893 78.2494 49.0893 77.7044V77.1263H50.3036H51.5178V84.3105ZM69.2108 77.7044C69.2108 78.2494 69.2454 78.2824 69.8179 78.2824C70.3903 78.2824 70.425 78.3154 70.425 78.8439C70.425 79.3889 70.4597 79.422 71.0841 79.4715L71.7259 79.5211L71.778 85.3675C71.8127 91.6763 71.8474 91.4946 70.9107 91.4946C70.477 91.4946 70.425 91.5607 70.425 92.0727C70.425 92.6177 70.3903 92.6507 69.8179 92.6507C69.2454 92.6507 69.2108 92.6837 69.2108 93.2287V93.8068L65.5334 93.7737L61.8387 93.7242V93.2287C61.8213 92.7828 61.752 92.7168 61.2316 92.6507C60.6938 92.5846 60.6245 92.5021 60.5724 92.0231C60.5204 91.5442 60.4683 91.4946 59.9133 91.4946H59.3235V85.4666V79.4385H59.9306C60.503 79.4385 60.5377 79.4054 60.5377 78.877C60.5377 78.332 60.5724 78.2989 61.1969 78.2494C61.804 78.1998 61.8387 78.1833 61.7866 77.6548L61.7173 77.1263H65.464H69.2108V77.7044ZM82.2203 84.3105V91.4781L83.3998 91.5277L84.562 91.5772L84.6141 92.6837L84.6661 93.8068H81.0061H77.3634V92.6507V91.4946H78.5776H79.7918V86.6226V81.7506H78.5776H77.3634V80.5945V79.4385H77.9705C78.5429 79.4385 78.5776 79.4054 78.5776 78.8604C78.5776 78.3154 78.6123 78.2824 79.1847 78.2824C79.7572 78.2824 79.7918 78.2494 79.7918 77.7044V77.1263H81.0061H82.2203V84.3105Z" fill="#FEFAE0"/>
<path d="M32.6106 20.8753C32.6106 21.4203 32.5759 21.4533 31.9688 21.5029L31.3096 21.5524L31.2576 24.2775C31.2056 27.7126 31.2056 27.7787 32.0555 27.7126C32.6626 27.6631 32.6973 27.6301 32.7494 27.052C32.8014 26.507 32.8534 26.441 33.3565 26.3914C33.8422 26.3419 33.9116 26.2758 33.9636 25.8134C34.0156 25.351 34.085 25.2849 34.5707 25.2353C35.0564 25.1858 35.1431 25.1197 35.2125 24.6078C35.2819 24.0958 35.3686 24.0132 35.9064 23.9472C36.4441 23.8811 36.5135 23.815 36.5135 23.3691L36.5308 22.8737L37.7797 22.8241L39.046 22.7746L38.9939 22.1635C38.9419 21.602 38.8899 21.5524 38.3868 21.5029C37.9011 21.4533 37.8318 21.3873 37.7797 20.9249L37.7277 20.3964L35.1778 20.3468L32.6106 20.2973V20.8753Z" fill="#FEFAE0"/>
<path d="M37.7103 25.4666C37.6236 25.5822 37.5716 25.8629 37.5716 26.0941C37.5542 26.441 37.4501 26.5235 36.9471 26.5896C36.4094 26.6557 36.34 26.7217 36.34 27.1676C36.3226 27.6135 36.2533 27.6796 35.7329 27.7457C35.1951 27.8117 35.1258 27.8943 35.0737 28.3567C35.0217 28.8522 34.9696 28.9017 34.4146 28.9017C33.8595 28.9017 33.8248 28.9348 33.8248 29.4798V30.0413L32.5759 30.0908L31.3096 30.1404V30.7184C31.3096 31.2634 31.3443 31.2964 31.9688 31.346C32.5759 31.3955 32.6106 31.4286 32.6106 31.9736V32.5516L35.1778 32.5021L37.7277 32.4525L37.7797 31.9075C37.8317 31.4286 37.8838 31.379 38.4389 31.379H39.0286V28.4228C39.0286 25.8794 38.9939 25.45 38.7511 25.3675C38.3174 25.2023 37.8491 25.2519 37.7103 25.4666Z" fill="#FEFAE0"/>
<path d="M62.9662 20.8753C62.9662 21.4203 62.9315 21.4533 62.3244 21.5029L61.6652 21.5524L61.6132 24.2775C61.5612 27.7126 61.5612 27.7787 62.4111 27.7126C63.0182 27.6631 63.0529 27.6301 63.105 27.052C63.157 26.507 63.209 26.441 63.7121 26.3914C64.1978 26.3419 64.2671 26.2758 64.3192 25.8134C64.3712 25.351 64.4406 25.2849 64.9263 25.2353C65.412 25.1858 65.4987 25.1197 65.5681 24.6078C65.6375 24.0958 65.7242 24.0132 66.2619 23.9472C66.7997 23.8811 66.8691 23.815 66.8691 23.3691L66.8864 22.8737L68.1353 22.8241L69.4016 22.7746L69.3495 22.1635C69.2975 21.602 69.2455 21.5524 68.7424 21.5029C68.2567 21.4533 68.1874 21.3873 68.1353 20.9249L68.0833 20.3964L65.5334 20.3468L62.9662 20.2973V20.8753Z" fill="#FEFAE0"/>
<path d="M68.0659 25.4666C67.9965 25.5822 67.9271 25.8629 67.9271 26.0941C67.9098 26.441 67.8057 26.5235 67.3027 26.5896C66.765 26.6557 66.6956 26.7217 66.6956 27.1676C66.6782 27.6135 66.6088 27.6796 66.0885 27.7457C65.5507 27.8117 65.4814 27.8943 65.4293 28.3567C65.3773 28.8522 65.3252 28.9017 64.7702 28.9017C64.2151 28.9017 64.1804 28.9348 64.1804 29.4798V30.0413L62.9315 30.0908L61.6652 30.1404V30.7184C61.6652 31.2634 61.6999 31.2964 62.3244 31.346C62.9315 31.3955 62.9662 31.4286 62.9662 31.9736V32.5516L65.5334 32.5021L68.0833 32.4525L68.1353 31.9075C68.1873 31.4286 68.2394 31.379 68.7945 31.379H69.3842L69.3495 28.3567L69.2975 25.3509L68.7424 25.3014C68.4475 25.2684 68.1353 25.3344 68.0659 25.4666Z" fill="#FEFAE0"/>
<path d="M32.6106 50.4377C32.6106 50.9827 32.5759 51.0157 31.9688 51.0652L31.3096 51.1148L31.2576 53.9884C31.2056 57.0107 31.2749 57.308 31.9861 57.308C32.5239 57.308 32.7841 56.9942 32.7841 56.3666C32.7841 55.8547 32.8187 55.8216 33.3912 55.8216C33.9636 55.8216 33.9983 55.7886 33.9983 55.2436C33.9983 54.6986 34.033 54.6656 34.6054 54.6656C35.1778 54.6656 35.2125 54.6325 35.2125 54.1041C35.2125 53.559 35.2472 53.526 35.8717 53.4765C36.4788 53.4269 36.5135 53.3939 36.4961 52.8984L36.4614 52.3699L37.7103 52.3204L38.9419 52.2709L38.9939 51.6433C39.046 51.0487 39.046 51.0322 38.4389 51.0322C37.8838 51.0322 37.8318 50.9827 37.7797 50.4872L37.7277 49.9587L35.1778 49.9092L32.6106 49.8596V50.4377Z" fill="#FEFAE0"/>
<path d="M37.5889 54.9298C37.5369 54.9959 37.5369 55.2436 37.5889 55.5078C37.6756 55.9372 37.6409 55.9703 37.0165 56.0198C36.3747 56.0694 36.34 56.1024 36.34 56.5979C36.34 57.0768 36.2879 57.1429 35.9063 57.1429C35.2819 57.1429 35.0737 57.3245 35.0043 57.886C34.9696 58.1998 34.8656 58.365 34.7095 58.332C34.1891 58.2329 33.8422 58.4806 33.7901 59.0091L33.7381 59.5376L32.5239 59.6201L31.3096 59.7027V60.2808C31.3096 60.8258 31.3443 60.8588 31.9688 60.9083C32.5759 60.9579 32.6106 60.9909 32.6106 61.5359V62.114L35.1778 62.0644L37.7277 62.0149V61.5194C37.7277 61.0735 37.7971 61.0074 38.3348 60.9414L38.9419 60.8588L38.9939 57.8365L39.0286 54.8307H38.3695C38.0052 54.8307 37.6583 54.8803 37.5889 54.9298Z" fill="#FEFAE0"/>
<path d="M62.9662 50.4377C62.9662 50.9827 62.9315 51.0157 62.3244 51.0652L61.6652 51.1148L61.6132 53.8894C61.5611 56.763 61.6652 57.308 62.2723 57.308C62.9488 57.308 63.1396 57.1263 63.1396 56.4657C63.1396 55.8382 63.157 55.8216 63.7467 55.8216C64.3192 55.8216 64.3539 55.7886 64.3539 55.2436C64.3539 54.6986 64.3885 54.6656 64.961 54.6656C65.5334 54.6656 65.5681 54.6325 65.5681 54.1041C65.5681 53.559 65.6028 53.526 66.2272 53.4765C66.8343 53.4269 66.869 53.3939 66.8517 52.8819L66.817 52.3534H68.1006H69.3842V51.6928C69.3842 51.0487 69.3669 51.0322 68.7771 51.0322C68.2047 51.0322 68.17 50.9992 68.17 50.4542V49.8761H65.5681H62.9662V50.4377Z" fill="#FEFAE0"/>
<path d="M67.9965 55.3922C67.9965 55.9372 67.9618 55.9703 67.3547 56.0198C66.7303 56.0694 66.6956 56.1024 66.6956 56.5979C66.6956 57.0768 66.6435 57.1429 66.2619 57.1429C65.6028 57.1429 65.3426 57.3741 65.4293 57.8695C65.516 58.2659 65.3946 58.3815 64.9783 58.3154C64.4926 58.2329 64.1804 58.5136 64.1804 59.0421V59.6036L62.9315 59.6532L61.6652 59.7027V60.2808C61.6652 60.8258 61.6999 60.8588 62.307 60.9083C62.8794 60.9579 62.9488 61.0074 63.0009 61.4864L63.0529 62.0149H65.5681H68.0833L68.1353 61.4864C68.1873 61.0239 68.2567 60.9579 68.7424 60.9083L69.2975 60.8588L69.3495 57.8365L69.3842 54.8307H68.6904C68.0139 54.8307 67.9965 54.8472 67.9965 55.3922Z" fill="#FEFAE0"/>
<path d="M32.6973 79.4715C32.6626 79.5871 32.6106 79.8679 32.5759 80.0991C32.5412 80.3468 32.4198 80.4955 32.2637 80.4624C32.1422 80.4294 31.8474 80.4459 31.6219 80.512C31.2229 80.5946 31.2229 80.6111 31.2229 83.4517C31.2229 85.0041 31.2923 86.3914 31.379 86.507C31.4657 86.6392 31.7606 86.7052 32.1075 86.6722C32.6453 86.6226 32.6973 86.5731 32.7494 86.0116C32.8014 85.4666 32.8534 85.4005 33.3565 85.351C33.8422 85.3014 33.9115 85.2354 33.9636 84.7729C34.0156 84.3105 34.085 84.2444 34.5707 84.1949C35.0564 84.1453 35.1258 84.0793 35.1778 83.6003C35.2298 83.1379 35.2992 83.0719 35.7155 83.0719C36.3053 83.0719 36.6696 82.7085 36.5481 82.2461C36.4441 81.8828 36.4961 81.8662 37.5889 81.9158C38.7511 81.9488 39.0286 81.8167 39.0286 81.1726C39.0286 80.6111 38.8031 80.4294 38.1093 80.4294C37.7971 80.4294 37.7277 80.3303 37.7277 79.8844V79.3559L35.2472 79.3064C33.3565 79.2733 32.7667 79.3064 32.6973 79.4715Z" fill="#FEFAE0"/>
<path d="M37.6236 84.5087C37.6062 84.5912 37.5889 84.8225 37.5889 85.0537C37.5542 85.4005 37.4501 85.4831 36.9471 85.5491C36.4094 85.6152 36.34 85.6813 36.34 86.1272C36.3226 86.5731 36.2533 86.6391 35.7329 86.7052C35.1951 86.7713 35.1258 86.8538 35.0737 87.3163C35.0217 87.7787 34.9523 87.8448 34.4666 87.8943C33.9809 87.9438 33.9115 88.0099 33.8595 88.4723L33.8075 89.0008L32.5585 89.0504L31.3096 89.0999V89.6779C31.3096 90.2064 31.3617 90.256 31.9167 90.3386C32.4545 90.4046 32.5239 90.4872 32.5759 90.9496L32.6279 91.4946H35.2298H37.8491L37.7797 90.9496C37.7277 90.4377 37.7624 90.4211 38.3868 90.3716L39.0286 90.322V87.3493V84.3931H38.3348C37.9532 84.3931 37.6409 84.4426 37.6236 84.5087Z" fill="#FEFAE0"/>
<path d="M63.0529 79.4715C63.0182 79.5871 62.9662 79.8679 62.9315 80.0991C62.8968 80.4294 62.7927 80.4955 62.4805 80.4624C61.6479 80.3468 61.5785 80.5946 61.5785 83.5508C61.5785 85.0537 61.6479 86.3914 61.7346 86.507C61.8213 86.6392 62.1162 86.7052 62.4631 86.6722C63.0009 86.6226 63.0529 86.5731 63.1049 86.0116C63.157 85.4666 63.209 85.4005 63.7121 85.351C64.1977 85.3014 64.2671 85.2354 64.3192 84.7729C64.3712 84.3105 64.4406 84.2444 64.9263 84.1949C65.412 84.1453 65.4814 84.0793 65.5334 83.6003C65.5854 83.1544 65.6548 83.0719 66.0538 83.0719C66.7476 83.0719 67.0078 82.8406 66.9211 82.3452C66.817 81.8828 66.8343 81.8662 67.9445 81.9158C69.1067 81.9488 69.3842 81.8167 69.3842 81.1726C69.3842 80.6276 69.1587 80.4294 68.5169 80.4294C68.2741 80.4294 68.17 80.2808 68.1353 79.8844L68.0833 79.3559L65.6028 79.3064C63.7121 79.2733 63.1223 79.3064 63.0529 79.4715Z" fill="#FEFAE0"/>
<path d="M67.9792 84.5087C67.9618 84.5912 67.9445 84.8225 67.9445 85.0537C67.9098 85.4005 67.8057 85.4831 67.3027 85.5491C66.765 85.6152 66.6956 85.6813 66.6956 86.1272C66.6782 86.5731 66.6088 86.6391 66.0885 86.7052C65.5507 86.7713 65.4814 86.8538 65.4293 87.3163C65.3773 87.7787 65.3079 87.8448 64.8222 87.8943C64.3365 87.9438 64.2671 88.0099 64.2151 88.4723L64.1631 89.0008L62.9141 89.0504L61.6652 89.0999V89.6779C61.6652 90.2064 61.7173 90.256 62.2723 90.3386C62.8101 90.4046 62.8794 90.4872 62.9315 90.9496L62.9835 91.4946H65.5854H68.17V90.9166C68.17 90.3716 68.2047 90.3386 68.7771 90.3386H69.3842V87.3658V84.3931H68.6904C68.3088 84.3931 67.9965 84.4426 67.9792 84.5087Z" fill="#FEFAE0"/>
<path d="M128.562 24.2614C127.486 24.6248 126.758 25.1367 126.116 25.9295C124.902 27.4324 124.971 25.5992 125.023 54.5009L125.075 80.562L125.491 81.4208C126.203 82.9402 127.885 84.1128 129.689 84.3605C131.632 84.6248 133.87 83.4522 134.91 81.6025L135.309 80.8923L135.396 63.3035C135.448 53.5926 135.552 45.7313 135.639 45.7478C135.778 45.7643 137.287 47.8783 145.804 60.0005C148.076 63.221 150.157 66.0616 150.435 66.3093C151.389 67.1681 152.569 67.5975 154.026 67.5975C155.656 67.5975 156.662 67.2011 157.738 66.1111C158.154 65.6983 160.131 63.0228 162.144 60.1656C164.156 57.3085 167.278 52.8659 169.082 50.2895C170.886 47.7296 172.43 45.6322 172.517 45.6322C172.621 45.6322 172.69 51.9575 172.69 63.0063C172.69 76.3836 172.742 80.529 172.915 80.9749C173.575 82.7751 174.876 83.8485 176.888 84.2779C179.143 84.7569 181.571 83.5182 182.629 81.3217L183.011 80.562V54.1376V27.7131L182.577 26.8874C181.033 23.8981 177.044 23.0558 174.511 25.1863C173.991 25.6157 172.534 27.5315 170.452 30.5042C168.648 33.0641 165.856 37.0277 164.225 39.3234C162.595 41.6355 159.68 45.7643 157.738 48.5389C155.795 51.2969 154.147 53.543 154.043 53.543C153.956 53.543 153.28 52.6677 152.551 51.6107C151.823 50.5537 149.724 47.5645 147.885 44.9716C142.855 37.8865 138.327 31.4786 136.315 28.6215C134.286 25.7478 133.21 24.6578 131.996 24.2614C130.99 23.9476 129.481 23.9311 128.562 24.2614Z" fill="#FEFAE0"/>
<path d="M28.9591 133.347C27.953 133.809 27.3286 134.453 26.8602 135.444C25.8889 137.476 26.6868 139.788 28.7336 140.845L29.653 141.34L41.7605 141.39C49.3407 141.406 53.8507 141.489 53.8507 141.588C53.8507 141.671 53.2089 142.546 52.411 143.52C50.0866 146.394 48.1265 148.855 41.4483 157.195C40.0606 158.912 37.9964 161.522 36.8342 162.975C35.672 164.429 34.1282 166.361 33.3824 167.269C26.7041 175.576 24.6226 178.235 24.3451 178.813C23.287 181.043 24.7614 183.751 27.4153 184.495C28.4734 184.792 64.5706 184.775 65.5593 184.478C67.2245 183.999 68.352 182.876 68.7683 181.274C69.3234 179.226 67.8663 176.914 65.6287 176.287C65.195 176.154 60.6677 176.105 51.3529 176.105C43.8594 176.105 37.7189 176.072 37.7189 176.022C37.7189 175.973 38.3086 175.213 39.0198 174.338C39.731 173.446 41.2054 171.596 42.2982 170.242C43.3737 168.871 45.0736 166.757 46.0623 165.535C57.3546 151.481 67.0857 139.243 67.3286 138.78C67.502 138.434 67.6235 137.806 67.6235 137.211C67.6061 135.494 66.6694 134.073 65.0389 133.347C64.2583 133 64.189 133 46.9643 133C30.0693 133.017 29.6356 133.017 28.9591 133.347Z" fill="#FEFAE0"/>
</svg>
