<svg width="300" height="312" viewBox="0 0 300 312" fill="none" xmlns="http://www.w3.org/2000/svg">
<path d="M0 91.2334V181.582H71.4224C115.889 181.582 142.845 181.685 142.845 181.813C142.845 181.967 142.741 182.121 142.611 182.224C141.908 182.635 136.782 190.951 135.325 194.031C133.634 197.599 133.192 198.548 132.567 200.191C130.564 205.35 128.82 211.639 128.014 216.746C125.412 232.994 127.962 249.652 135.377 264.59C140.971 275.884 149.584 286.176 159.887 293.902C165.637 298.214 172.194 302.013 177.971 304.4C178.907 304.785 180.026 305.247 180.442 305.427C189.653 309.354 202.116 311.715 213.617 311.715C227.693 311.715 240.989 308.635 253.426 302.501C262.22 298.163 268.907 293.389 275.958 286.433C280.017 282.429 281.578 280.632 280.59 281.043C279.601 281.454 275.88 281.967 272.706 282.121C269.48 282.275 263.261 281.659 262.689 281.12C262.533 281.017 262.116 280.915 261.726 280.915C261.336 280.915 260.919 280.786 260.841 280.658C260.763 280.504 260.399 280.401 260.061 280.401C259.722 280.401 259.358 280.273 259.28 280.145C259.202 279.991 258.89 279.888 258.63 279.888C257.667 279.888 252.307 277.475 249.055 275.601C247.988 274.985 247.025 274.498 246.895 274.498C246.765 274.498 246.661 274.369 246.661 274.241C246.661 274.087 246.557 273.984 246.401 273.984C246.193 273.984 241.535 270.853 240.468 270.006C239.48 269.21 236.539 266.875 235.629 266.156C235.082 265.72 234.38 265.181 234.068 264.924C233.027 264.026 228.734 261.151 228.474 261.151C228.317 261.151 228.187 261.074 228.187 260.945C228.187 260.843 227.433 260.406 226.496 259.996C225.559 259.559 224.805 259.149 224.805 259.02C224.805 258.918 224.597 258.841 224.337 258.841C224.076 258.841 223.764 258.738 223.634 258.635C223.192 258.25 220.824 257.532 217.702 256.813C216.114 256.454 212.16 256.454 210.572 256.813C207.788 257.429 204.77 258.507 202.689 259.585C200.529 260.689 196.756 262.999 195.768 263.795C194.519 264.821 192.177 266.541 192.047 266.541C191.969 266.541 190.954 265.129 189.809 263.41C188.664 261.715 187.572 260.15 187.415 259.97C187.233 259.79 187.077 259.585 187.077 259.482C187.077 259.405 186.791 258.943 186.453 258.507C186.141 258.045 185.776 257.557 185.698 257.403C185.438 256.967 192.125 252.142 195.533 250.242C197.121 249.37 198.838 248.522 200.217 247.932C200.789 247.701 201.596 247.342 202.012 247.136C202.402 246.957 203.131 246.726 203.625 246.623C204.12 246.546 204.588 246.366 204.666 246.238C204.744 246.11 205.134 246.007 205.525 246.007C205.915 246.007 206.331 245.904 206.461 245.776C206.904 245.417 211.275 244.878 213.877 244.852C216.557 244.852 221.631 245.442 221.839 245.802C221.917 245.904 222.307 246.007 222.723 246.007C223.14 246.007 223.53 246.11 223.608 246.238C223.686 246.366 224.18 246.546 224.701 246.649C225.637 246.803 225.898 246.905 227.069 247.496C227.407 247.675 227.849 247.804 228.057 247.804C228.265 247.804 228.448 247.906 228.448 248.06C228.448 248.189 228.604 248.317 228.812 248.317C229.254 248.317 231.934 249.652 232.038 249.909C232.09 250.037 232.246 250.114 232.376 250.114C232.533 250.114 233.287 250.525 234.068 251.012C234.848 251.5 235.603 251.911 235.733 251.911C235.889 251.911 235.993 252.013 235.993 252.116C235.993 252.219 236.383 252.527 236.852 252.809C237.918 253.451 240.286 255.196 242.758 257.172C244.267 258.404 248.664 261.715 250.694 263.153C252.307 264.308 258.265 267.568 258.76 267.568C258.916 267.568 259.15 267.67 259.306 267.773C259.436 267.901 260.139 268.209 260.841 268.44C261.57 268.697 262.376 268.979 262.663 269.108C266.722 270.776 275.906 270.776 280.095 269.108C280.382 269.005 281.032 268.748 281.526 268.594C284.258 267.619 287.641 265.951 290.659 264.077C293.105 262.537 293.079 262.588 294.926 257.814C297.034 252.347 298.361 247.419 299.35 241.387C299.922 237.819 299.948 237.896 298.777 238.589C298.231 238.923 297.632 239.334 297.45 239.513C297.268 239.693 297.008 239.847 296.878 239.847C296.748 239.847 296.487 240.001 296.305 240.155C296.097 240.335 295.707 240.617 295.447 240.771C294.692 241.182 292.637 242.311 291.31 243.055C290.659 243.415 289.957 243.697 289.749 243.697C289.514 243.697 289.332 243.774 289.332 243.902C289.332 244.005 288.942 244.236 288.5 244.416C288.031 244.621 287.407 244.878 287.121 245.006C286.548 245.263 283.66 246.187 282.437 246.52C282.021 246.649 280.98 246.931 280.121 247.136C276.791 248.035 271.483 248.394 267.476 247.958C264.848 247.675 260.607 246.751 259.618 246.238C259.358 246.11 258.916 246.007 258.656 246.007C258.369 246.007 258.083 245.904 258.005 245.776C257.927 245.673 257.485 245.494 257.043 245.391C256.262 245.237 251.084 242.799 248.742 241.49C247.415 240.745 243.487 238.256 243.278 238.05C243.2 237.973 242.498 237.46 241.717 236.895C240.937 236.331 240.234 235.817 240.156 235.74C240.078 235.663 239.558 235.278 238.985 234.842C238.413 234.431 237.892 234.02 237.814 233.943C237.736 233.866 237.112 233.327 236.383 232.788C235.681 232.224 234.952 231.633 234.796 231.505C234.64 231.351 234.198 231.017 233.781 230.735C233.391 230.453 232.767 229.991 232.376 229.683C230.139 227.912 224.389 224.755 221.839 223.908C219.133 223.009 217.78 222.83 214.137 222.804C209.506 222.804 206.071 223.651 202.298 225.781C201.596 226.192 200.789 226.603 200.555 226.68C200.295 226.757 200.087 226.911 200.087 227.039C200.087 227.167 199.957 227.27 199.827 227.27C199.566 227.27 197.511 228.502 197.225 228.836C197.147 228.913 196.548 229.349 195.872 229.785C195.221 230.247 194.519 230.761 194.311 230.915C194.128 231.094 193.53 231.582 192.958 231.993C191.995 232.711 191.943 232.711 191.683 232.249C191.526 231.993 190.095 229.837 188.482 227.475L185.542 223.189L186.479 222.47C186.999 222.085 187.858 221.392 188.378 220.956C188.925 220.545 189.991 219.775 190.746 219.313C191.526 218.825 192.385 218.209 192.645 217.978C192.931 217.722 193.244 217.516 193.348 217.516C193.478 217.516 193.972 217.234 194.467 216.9C195.299 216.336 200.815 213.589 202.038 213.127C203.651 212.511 205.421 212.024 208.413 211.331C210.312 210.894 217.962 210.894 219.861 211.331C224.18 212.332 225.481 212.742 227.901 213.846C228.994 214.334 230.503 215.027 231.284 215.386C233.287 216.31 238.621 219.903 242.264 222.83C249.731 228.784 256.262 232.917 260.321 234.226C260.893 234.405 261.466 234.662 261.622 234.765C261.752 234.868 262.116 234.97 262.402 234.97C262.715 234.97 263.053 235.047 263.157 235.15C263.495 235.509 265.785 235.971 268.491 236.254C272.16 236.639 278.768 235.971 279.601 235.15C279.705 235.047 280.069 234.97 280.382 234.97C280.72 234.97 281.032 234.868 281.11 234.739C281.188 234.637 281.631 234.457 282.073 234.354C283.062 234.174 287.485 232.07 288.994 231.069C289.592 230.684 290.139 230.35 290.217 230.35C290.373 230.35 292.142 229.221 292.637 228.81C292.793 228.682 293.287 228.374 293.677 228.117C294.094 227.86 295.681 226.68 297.216 225.499C299.324 223.882 300 223.215 300 222.753C300 220.545 298.673 212.999 297.554 208.79C297.19 207.455 296.878 206.274 296.878 206.146C296.878 205.94 296.305 206.223 294.146 207.506C293.443 207.917 291.804 208.79 290.503 209.406C288.474 210.381 287.563 210.766 284.779 211.87C284.493 211.972 283.608 212.255 282.827 212.486C281.422 212.871 280.616 213.05 277.493 213.692C275.516 214.077 267.58 214.077 265.525 213.692C261.57 212.922 259.592 212.434 258.239 211.87C257.953 211.767 257.303 211.51 256.808 211.356C254.701 210.612 249.159 207.789 246.219 205.915C243.33 204.118 238.231 200.448 236.904 199.216C236.618 198.959 235.265 197.907 233.912 196.906C232.559 195.879 231.232 194.878 230.971 194.647C230.711 194.416 230.061 194.005 229.488 193.749C228.916 193.492 228.448 193.184 228.448 193.056C228.448 192.953 228.291 192.876 228.083 192.876C227.875 192.876 227.667 192.773 227.615 192.671C227.537 192.491 224.415 190.925 222.853 190.283C222.307 190.052 220.043 189.385 218.56 189.026C215.672 188.307 210 188.692 206.618 189.873C203.912 190.771 196.444 195.006 194.883 196.495C194.675 196.7 194.024 197.188 193.452 197.599C192.879 198.035 192.333 198.471 192.255 198.574C192.125 198.779 190.46 196.623 190.46 196.238C190.46 196.11 190.356 195.956 190.252 195.905C190.121 195.853 189.445 194.955 188.742 193.903C188.04 192.85 187.285 191.772 187.077 191.541C186.869 191.31 186.453 190.694 186.193 190.181L185.672 189.257L186.453 188.564C186.869 188.179 187.676 187.537 188.248 187.126C188.82 186.69 189.341 186.279 189.419 186.202C189.497 186.125 190.434 185.484 191.5 184.791C192.567 184.098 193.504 183.482 193.582 183.379C193.894 183.045 199.983 179.965 201.778 179.247C206.383 177.373 213.278 176.423 217.78 177.065C220.304 177.424 224.779 178.528 226.496 179.247C226.782 179.375 227.485 179.657 228.057 179.914C229.748 180.607 230.295 180.889 232.298 182.019C233.365 182.635 234.276 183.122 234.354 183.122C234.51 183.122 238.283 185.715 239.506 186.639C240.703 187.537 240.598 187.46 244.059 190.232C247.572 193.004 252.463 196.469 252.905 196.469C253.036 196.469 253.166 196.546 253.166 196.649C253.166 196.777 253.426 196.983 253.764 197.137C254.076 197.291 255.325 197.932 256.548 198.548C258.994 199.806 260.321 200.371 261.882 200.833C262.454 201.012 263.209 201.243 263.573 201.372C265.473 201.988 267.71 202.244 271.249 202.219C275.594 202.219 278.222 201.834 280.876 200.807C281.162 200.704 282.281 200.294 283.348 199.909C284.415 199.498 285.351 199.113 285.429 199.036C285.507 198.959 286.444 198.446 287.511 197.907C288.578 197.342 290.139 196.444 290.945 195.905L292.454 194.904L291.544 193.107C289.228 188.615 285.481 182.891 281.969 178.579C278.17 173.882 271.093 167.26 265.655 163.333C258.396 158.097 248.378 153.169 239.896 150.679C232.09 148.394 226.054 147.368 218.092 146.957C201.101 146.059 183.617 150.217 169.124 158.533L166.652 159.97L166.574 80.4275L166.522 0.884613H83.2611H0V91.2334ZM58.3348 29.94C58.4128 30.6843 58.5169 30.787 59.2454 30.864C59.974 30.941 60.0781 31.0437 60.1561 31.7624C60.2342 32.5067 60.3382 32.5837 61.1448 32.6607L62.0555 32.7377V41.9523V51.1668L61.1448 51.2438C60.3382 51.3208 60.2342 51.3978 60.1561 52.1422C60.0781 52.8095 59.948 52.9892 59.5056 52.9892C58.647 52.9892 58.3348 53.2972 58.2307 54.1442L58.1526 54.9142H52.6886H47.2246L47.0945 54.0159C46.9905 53.2202 46.8604 53.1175 46.1318 53.0405C45.4033 52.9635 45.2992 52.8608 45.2212 52.1422C45.1431 51.4235 45.039 51.3208 44.3105 51.2438L43.4519 51.1668V41.9266V32.712H44.3625C45.2212 32.712 45.2732 32.6607 45.2732 31.8137C45.2732 30.9667 45.3252 30.9153 46.1839 30.9153C47.0425 30.9153 47.0945 30.864 47.0945 30.017V29.1186H52.6626H58.2567L58.3348 29.94ZM77.2767 40.2839V51.4235L79.124 51.5005L80.9714 51.5775V53.2458V54.9142L75.4814 54.9912L69.9913 55.0426V53.2715V51.4748L71.8127 51.3978L73.66 51.3208V43.9286C73.66 39.8732 73.582 36.4338 73.5039 36.3055C73.3998 36.1515 72.5932 36.0488 71.6565 36.0488H69.9913V34.3804V32.712H70.902C71.7606 32.712 71.8127 32.6607 71.8127 31.8137C71.8127 30.9667 71.8647 30.9153 72.7233 30.9153C73.582 30.9153 73.634 30.864 73.634 30.017V29.1186H75.4553H77.2767V40.2839ZM103.868 29.94C103.946 30.6843 104.05 30.787 104.779 30.864C105.507 30.941 105.611 31.0437 105.69 31.7624C105.768 32.5067 105.846 32.5837 106.756 32.6607L107.719 32.7377V41.9523V51.1668L106.756 51.2438C105.846 51.3208 105.768 51.3978 105.69 52.1422C105.611 52.8095 105.481 52.9892 105.039 52.9892C104.18 52.9892 103.868 53.2972 103.764 54.1442L103.686 54.9142H98.222H92.758L92.732 54.2726C92.732 53.3229 92.4198 52.9892 91.5611 52.9892C90.8586 52.9892 90.8066 52.9122 90.8066 52.0908C90.8066 51.2438 90.7546 51.1925 89.8959 51.1925H88.9853V41.9523V32.712H89.8959C90.7546 32.712 90.8066 32.6607 90.8066 31.8137C90.8066 30.9667 90.8586 30.9153 91.7173 30.9153C92.6279 30.9153 92.732 30.787 92.6279 29.6833L92.6019 29.1186H98.196H103.79L103.868 29.94ZM123.33 40.2839V51.4492H125.152H126.999L126.921 53.1689L126.843 54.9142L121.457 54.9912L116.045 55.0426V53.2458V51.4492H117.866H119.688L119.636 43.8003L119.558 36.1771L117.814 36.1001L116.045 36.0231V34.3804V32.712H116.956C117.814 32.712 117.866 32.6607 117.866 31.8137C117.866 30.9667 117.918 30.9153 118.777 30.9153C119.636 30.9153 119.688 30.864 119.688 30.017V29.1186H121.509H123.33V40.2839ZM58.2307 75.7561C58.3088 76.4747 58.4128 76.5774 59.1414 76.6544C59.8439 76.7314 60 76.8341 60.052 77.5014C60.1561 78.3741 60.4683 78.6565 61.405 78.6565H62.0555L62.0035 87.8197L61.9254 97.0086L61.0928 97.1369C60.3643 97.2396 60.2342 97.3679 60.1561 98.0866C60.0781 98.8053 59.974 98.9079 59.2454 98.9849C58.5169 99.062 58.4128 99.1646 58.3348 99.8833L58.2567 100.73H52.6626H47.0945V99.832C47.0945 98.9849 47.0425 98.9336 46.1839 98.9336C45.3252 98.9336 45.2732 98.8823 45.2732 98.0353C45.2732 97.1882 45.2212 97.1369 44.3625 97.1369H43.4519V87.9223V78.6821L44.3105 78.6051C45.039 78.5281 45.1691 78.4255 45.2732 77.6298C45.3773 76.8341 45.5074 76.7314 46.2619 76.6544C46.9905 76.5774 47.0945 76.4747 47.0945 75.8587C47.0945 75.4737 47.1726 75.063 47.2767 74.9604C47.3807 74.8834 49.8526 74.832 52.7927 74.8577L58.1526 74.9347L58.2307 75.7561ZM77.2767 86.1L77.4068 97.2652L79.2281 97.3422L81.0494 97.4192V99.062V100.73H75.5334H69.9913V99.062V97.3936H71.8127H73.634V89.6934V81.9932H71.8127H69.9913V80.3505V78.6821L70.85 78.6051C71.5785 78.5281 71.7086 78.4255 71.8127 77.6298C71.9167 76.8341 72.0468 76.7057 72.8534 76.6031C73.5559 76.5004 73.7381 76.3721 73.686 75.9871C73.5039 74.9604 73.8161 74.7807 75.5074 74.8577L77.1466 74.9347L77.2767 86.1ZM103.764 75.7561C103.842 76.4747 103.946 76.5774 104.675 76.6544C105.377 76.7314 105.533 76.8341 105.585 77.5014C105.69 78.3998 106.002 78.6565 107.016 78.6565H107.719V87.871V97.1112L106.756 97.1882C105.846 97.2652 105.768 97.3422 105.69 98.0866C105.611 98.8053 105.507 98.9079 104.779 98.9849C104.05 99.062 103.946 99.1646 103.868 99.8833L103.79 100.73H98.196H92.6019L92.6279 100.14C92.732 99.062 92.6279 98.9336 91.7173 98.9336C90.8586 98.9336 90.8066 98.8823 90.8066 98.0353C90.8066 97.1882 90.7546 97.1369 89.8959 97.1369H88.9853V87.9223V78.6821L89.8439 78.6051C90.5724 78.5281 90.7025 78.4255 90.8066 77.6298C90.9107 76.8854 91.0408 76.7314 91.5872 76.7057C92.4718 76.7057 92.8881 76.4234 92.706 75.9614C92.6279 75.7561 92.6279 75.3967 92.732 75.1914C92.8621 74.8577 93.6427 74.8064 98.2741 74.8577L103.686 74.9347L103.764 75.7561ZM122.342 86.023L122.42 97.2652L124.319 97.3422L126.193 97.4192V99.062V100.73H120.598H115.004V99.062V97.4192L116.904 97.3422L118.777 97.2652V89.6934V82.1216L116.904 82.0445L115.004 81.9675V80.3248C115.004 78.6821 115.004 78.6565 115.733 78.6565C116.774 78.6565 117.19 78.2971 117.034 77.5528C116.904 76.8341 117.19 76.6031 118.283 76.6031C118.829 76.6031 118.907 76.4747 118.907 75.7047V74.8064H120.598H122.29L122.342 86.023ZM58.2827 121.649C58.2827 122.496 58.3348 122.548 59.1934 122.548C60.052 122.548 60.1041 122.599 60.1041 123.42C60.1041 124.242 60.1561 124.319 61.0147 124.396L61.9254 124.473L62.0035 133.636C62.0555 143.466 62.1075 143.081 60.7546 143.081C60.2602 143.081 60.1301 143.235 60.052 143.903C59.974 144.647 59.8699 144.75 59.1414 144.827C58.3608 144.904 58.2827 144.981 58.2827 145.802V146.675H52.6886H47.0945V145.802C47.0945 144.981 47.0165 144.904 46.2619 144.827C45.5074 144.75 45.4033 144.647 45.3252 143.903C45.2472 143.158 45.1691 143.081 44.3365 143.081H43.4519V133.713V124.344H44.3625C45.2212 124.344 45.2732 124.293 45.2732 123.446C45.2732 122.599 45.3252 122.548 46.1839 122.548C47.0425 122.548 47.0945 122.496 47.0945 121.649V120.751H52.6886H58.2827V121.649ZM77.2767 131.916V143.081H78.8118C81.0234 143.081 81.0494 143.107 81.0234 144.955L80.9714 146.546L75.4814 146.623L69.9913 146.675V144.904V143.107L71.8127 143.03L73.66 142.953V135.509V128.066L71.8127 127.989L69.9913 127.912V126.141V124.344H70.902C71.7606 124.344 71.8127 124.293 71.8127 123.446C71.8127 122.599 71.8647 122.548 72.7233 122.548C73.582 122.548 73.634 122.496 73.634 121.649V120.751H75.4553H77.2767V131.916ZM103.816 121.649C103.816 122.496 103.868 122.548 104.727 122.548C105.585 122.548 105.637 122.599 105.637 123.42C105.637 124.267 105.69 124.319 106.626 124.396L107.589 124.473L107.667 133.559C107.719 143.364 107.771 143.081 106.366 143.081C105.716 143.081 105.637 143.184 105.637 143.98C105.637 144.827 105.585 144.878 104.727 144.878C103.868 144.878 103.816 144.929 103.816 145.776V146.675L98.3001 146.623L92.758 146.546V145.776C92.732 145.083 92.6279 144.981 91.8474 144.878C91.0408 144.775 90.9367 144.647 90.8586 143.903C90.7806 143.158 90.7025 143.081 89.8699 143.081H88.9853V133.713V124.344H89.8959C90.7546 124.344 90.8066 124.293 90.8066 123.472C90.8066 122.625 90.8586 122.573 91.7953 122.496C92.706 122.419 92.758 122.394 92.68 121.572L92.5759 120.751H98.196H103.816V121.649ZM123.33 131.916V143.056L125.1 143.133L126.843 143.21L126.921 144.929L126.999 146.675H121.509H116.045V144.878V143.081H117.866H119.688V135.509V127.938H117.866H116.045V126.141V124.344H116.956C117.814 124.344 117.866 124.293 117.866 123.446C117.866 122.599 117.918 122.548 118.777 122.548C119.636 122.548 119.688 122.496 119.688 121.649V120.751H121.509H123.33V131.916Z" fill="#283618"/>
<path d="M48.9159 33.3279C48.9159 34.1749 48.8639 34.2262 47.9532 34.3032L46.9645 34.3802L46.8864 38.6153C46.8084 43.9541 46.8084 44.0568 48.0833 43.9541C48.994 43.8771 49.046 43.8258 49.1241 42.9274C49.2021 42.0804 49.2802 41.9778 50.0347 41.9008C50.7633 41.8238 50.8673 41.7211 50.9454 41.0024C51.0234 40.2837 51.1275 40.181 51.8561 40.104C52.5846 40.027 52.7147 39.9244 52.8188 39.1287C52.9228 38.333 53.0529 38.2047 53.8595 38.102C54.6661 37.9993 54.7702 37.8967 54.7702 37.2036L54.7962 36.4336L56.6696 36.3566L58.569 36.2796L58.4909 35.3299C58.4129 34.4572 58.3348 34.3802 57.5803 34.3032C56.8517 34.2262 56.7476 34.1236 56.6696 33.4049L56.5915 32.5835L52.7667 32.5065L48.9159 32.4295V33.3279Z" fill="#283618"/>
<path d="M56.5655 40.4633C56.4354 40.643 56.3573 41.0794 56.3573 41.4387C56.3313 41.9777 56.1752 42.1061 55.4206 42.2087C54.6141 42.3114 54.51 42.4141 54.51 43.1071C54.484 43.8001 54.3799 43.9028 53.5993 44.0054C52.7927 44.1081 52.6886 44.2364 52.6106 44.9551C52.5325 45.7251 52.4545 45.8021 51.6219 45.8021C50.7893 45.8021 50.7372 45.8535 50.7372 46.7005V47.5732L48.8638 47.6502L46.9644 47.7272V48.6255C46.9644 49.4726 47.0165 49.5239 47.9532 49.6009C48.8638 49.6779 48.9159 49.7292 48.9159 50.5763V51.4746L52.7667 51.3976L56.5915 51.3206L56.6696 50.4736C56.7476 49.7292 56.8257 49.6522 57.6583 49.6522H58.5429V45.0578C58.5429 41.105 58.4909 40.4377 58.1266 40.3093C57.4762 40.0527 56.7736 40.1297 56.5655 40.4633Z" fill="#283618"/>
<path d="M94.4493 33.3279C94.4493 34.1749 94.3973 34.2262 93.4866 34.3032L92.4979 34.3802L92.4198 38.6153C92.3417 43.9541 92.3417 44.0568 93.6167 43.9541C94.5273 43.8771 94.5794 43.8258 94.6574 42.9274C94.7355 42.0804 94.8136 41.9778 95.5681 41.9008C96.2966 41.8238 96.4007 41.7211 96.4788 41.0024C96.5568 40.2837 96.6609 40.181 97.3894 40.104C98.118 40.027 98.2481 39.9244 98.3522 39.1287C98.4562 38.333 98.5863 38.2047 99.3929 38.102C100.2 37.9993 100.304 37.8967 100.304 37.2036L100.33 36.4336L102.203 36.3566L104.102 36.2796L104.024 35.3299C103.946 34.4572 103.868 34.3802 103.114 34.3032C102.385 34.2262 102.281 34.1236 102.203 33.4049L102.125 32.5835L98.3001 32.5065L94.4493 32.4295V33.3279Z" fill="#283618"/>
<path d="M102.099 40.4633C101.995 40.643 101.891 41.0794 101.891 41.4387C101.865 41.9777 101.709 42.1061 100.954 42.2087C100.147 42.3114 100.043 42.4141 100.043 43.1071C100.017 43.8001 99.9133 43.9028 99.1327 44.0054C98.3261 44.1081 98.222 44.2364 98.144 44.9551C98.0659 45.7251 97.9879 45.8021 97.1552 45.8021C96.3226 45.8021 96.2706 45.8535 96.2706 46.7005V47.5732L94.3972 47.6502L92.4978 47.7272V48.6255C92.4978 49.4726 92.5499 49.5239 93.4866 49.6009C94.3972 49.6779 94.4493 49.7292 94.4493 50.5763V51.4746L98.3001 51.3976L102.125 51.3206L102.203 50.4736C102.281 49.7292 102.359 49.6522 103.192 49.6522H104.076L104.024 44.9551L103.946 40.2837L103.114 40.2067C102.671 40.1553 102.203 40.258 102.099 40.4633Z" fill="#283618"/>
<path d="M48.9159 79.2729C48.9159 80.1199 48.8639 80.1712 47.9532 80.2482L46.9645 80.3252L46.8864 84.7913C46.8083 89.4884 46.9124 89.9504 47.9792 89.9504C48.7858 89.9504 49.1761 89.4628 49.1761 88.4874C49.1761 87.6917 49.2281 87.6404 50.0867 87.6404C50.9454 87.6404 50.9974 87.5891 50.9974 86.742C50.9974 85.895 51.0495 85.8437 51.9081 85.8437C52.7667 85.8437 52.8188 85.7923 52.8188 84.971C52.8188 84.124 52.8708 84.0726 53.8075 83.9956C54.7181 83.9186 54.7702 83.8673 54.7442 83.0973L54.6921 82.2759L56.5655 82.1989L58.4129 82.1219L58.4909 81.1466C58.569 80.2225 58.569 80.1969 57.6583 80.1969C56.8257 80.1969 56.7476 80.1199 56.6696 79.3499L56.5915 78.5285L52.7667 78.4515L48.9159 78.3745V79.2729Z" fill="#283618"/>
<path d="M56.3834 86.2542C56.3053 86.3568 56.3053 86.7418 56.3834 87.1525C56.5134 87.8199 56.4614 87.8712 55.5247 87.9482C54.562 88.0252 54.51 88.0765 54.51 88.8466C54.51 89.5909 54.4319 89.6936 53.8595 89.6936C52.9228 89.6936 52.6106 89.9759 52.5065 90.8486C52.4545 91.3363 52.2984 91.593 52.0642 91.5416C51.2836 91.3876 50.7632 91.7726 50.6852 92.594L50.6071 93.4153L48.7858 93.5437L46.9644 93.672V94.5704C46.9644 95.4174 47.0165 95.4687 47.9532 95.5457C48.8638 95.6227 48.9159 95.6741 48.9159 96.5211V97.4194L52.7667 97.3424L56.5915 97.2654V96.4954C56.5915 95.8024 56.6956 95.6997 57.5022 95.5971L58.4128 95.4687L58.4909 90.7716L58.5429 86.1002H57.5542C57.0078 86.1002 56.4874 86.1772 56.3834 86.2542Z" fill="#283618"/>
<path d="M94.4492 79.2729C94.4492 80.1199 94.3972 80.1712 93.4865 80.2482L92.4978 80.3252L92.4198 84.6373C92.3417 89.1034 92.4978 89.9504 93.4085 89.9504C94.4232 89.9504 94.7094 89.6681 94.7094 88.6414C94.7094 87.6661 94.7355 87.6404 95.6201 87.6404C96.4787 87.6404 96.5308 87.5891 96.5308 86.742C96.5308 85.895 96.5828 85.8437 97.4414 85.8437C98.3001 85.8437 98.3521 85.7923 98.3521 84.971C98.3521 84.124 98.4041 84.0726 99.3408 83.9956C100.252 83.9186 100.304 83.8673 100.278 83.0716L100.225 82.2503H102.151H104.076V81.2236C104.076 80.2225 104.05 80.1969 103.166 80.1969C102.307 80.1969 102.255 80.1455 102.255 79.2985V78.4002H98.3521H94.4492V79.2729Z" fill="#283618"/>
<path d="M101.995 86.973C101.995 87.8201 101.943 87.8714 101.032 87.9484C100.095 88.0254 100.043 88.0767 100.043 88.8468C100.043 89.5911 99.9653 89.6938 99.3929 89.6938C98.4042 89.6938 98.0139 90.0531 98.144 90.8231C98.2741 91.4392 98.0919 91.6188 97.4675 91.5162C96.7389 91.3878 96.2706 91.8242 96.2706 92.6455V93.5182L94.3972 93.5952L92.4978 93.6722V94.5706C92.4978 95.4176 92.5499 95.4689 93.4605 95.5459C94.3192 95.6229 94.4232 95.6999 94.5013 96.4443L94.5794 97.2656H98.3521H102.125L102.203 96.4443C102.281 95.7256 102.385 95.6229 103.114 95.5459L103.946 95.4689L104.024 90.7718L104.076 86.1004H103.036C102.021 86.1004 101.995 86.126 101.995 86.973Z" fill="#283618"/>
<path d="M49.046 124.396C48.9939 124.575 48.9159 125.012 48.8638 125.371C48.8118 125.756 48.6297 125.987 48.3955 125.936C48.2134 125.884 47.771 125.91 47.4328 126.013C46.8344 126.141 46.8344 126.167 46.8344 130.581C46.8344 132.994 46.9384 135.15 47.0685 135.33C47.1986 135.535 47.6409 135.638 48.1613 135.587C48.9679 135.51 49.046 135.433 49.124 134.56C49.2021 133.713 49.2801 133.61 50.0347 133.533C50.7632 133.456 50.8673 133.353 50.9454 132.635C51.0234 131.916 51.1275 131.813 51.856 131.736C52.5846 131.659 52.6886 131.557 52.7667 130.812C52.8448 130.094 52.9488 129.991 53.5733 129.991C54.4579 129.991 55.0043 129.426 54.8222 128.708C54.6661 128.143 54.7442 128.117 56.3834 128.194C58.1266 128.246 58.5429 128.04 58.5429 127.039C58.5429 126.167 58.2047 125.884 57.1639 125.884C56.6956 125.884 56.5915 125.73 56.5915 125.037V124.216L52.8708 124.139C50.0347 124.088 49.15 124.139 49.046 124.396Z" fill="#283618"/>
<path d="M56.4354 132.224C56.4094 132.353 56.3834 132.712 56.3834 133.071C56.3313 133.61 56.1752 133.739 55.4206 133.841C54.6141 133.944 54.51 134.047 54.51 134.74C54.484 135.433 54.3799 135.535 53.5993 135.638C52.7927 135.741 52.6886 135.869 52.6106 136.588C52.5325 137.306 52.4285 137.409 51.6999 137.486C50.9714 137.563 50.8673 137.666 50.7893 138.384L50.7112 139.206L48.8378 139.283L46.9644 139.36V140.258C46.9644 141.079 47.0425 141.156 47.8751 141.285C48.6817 141.388 48.7858 141.516 48.8638 142.235L48.9419 143.082H52.8448H56.7736L56.6696 142.235C56.5915 141.439 56.6435 141.413 57.5802 141.336L58.5429 141.259V136.639V132.045H57.5022C56.9298 132.045 56.4614 132.122 56.4354 132.224Z" fill="#283618"/>
<path d="M94.5794 124.396C94.5273 124.575 94.4493 125.012 94.3972 125.371C94.3452 125.884 94.1891 125.987 93.7207 125.936C92.4718 125.756 92.3677 126.141 92.3677 130.735C92.3677 133.071 92.4718 135.15 92.6019 135.33C92.732 135.535 93.1743 135.638 93.6947 135.587C94.5013 135.51 94.5794 135.433 94.6574 134.56C94.7355 133.713 94.8135 133.61 95.5681 133.533C96.2966 133.456 96.4007 133.353 96.4788 132.635C96.5568 131.916 96.6609 131.813 97.3894 131.736C98.118 131.659 98.222 131.557 98.3001 130.812C98.3781 130.119 98.4822 129.991 99.0807 129.991C100.121 129.991 100.512 129.632 100.382 128.862C100.225 128.143 100.252 128.117 101.917 128.194C103.66 128.246 104.076 128.04 104.076 127.039C104.076 126.192 103.738 125.884 102.775 125.884C102.411 125.884 102.255 125.653 102.203 125.037L102.125 124.216L98.4042 124.139C95.5681 124.088 94.6834 124.139 94.5794 124.396Z" fill="#283618"/>
<path d="M101.969 132.224C101.943 132.353 101.917 132.712 101.917 133.071C101.865 133.61 101.709 133.739 100.954 133.841C100.147 133.944 100.043 134.047 100.043 134.74C100.017 135.433 99.9133 135.535 99.1327 135.638C98.3261 135.741 98.222 135.869 98.144 136.588C98.0659 137.306 97.9618 137.409 97.2333 137.486C96.5048 137.563 96.4007 137.666 96.3226 138.384L96.2446 139.206L94.3712 139.283L92.4978 139.36V140.258C92.4978 141.079 92.5759 141.156 93.4085 141.285C94.2151 141.388 94.3192 141.516 94.3972 142.235L94.4753 143.082H98.3781H102.255V142.183C102.255 141.336 102.307 141.285 103.166 141.285H104.076V136.665V132.045H103.036C102.463 132.045 101.995 132.122 101.969 132.224Z" fill="#283618"/>
<path d="M192.842 38.5904C191.229 39.1551 190.136 39.9508 189.174 41.1828C187.352 43.5186 187.457 40.6695 187.535 85.5872L187.613 126.09L188.237 127.425C189.304 129.786 191.828 131.609 194.534 131.994C197.448 132.404 200.804 130.582 202.365 127.707L202.964 126.604L203.094 99.2679C203.172 84.1755 203.328 71.9579 203.458 71.9836C203.666 72.0092 205.93 75.2947 218.705 94.1344C222.114 99.1396 225.236 103.554 225.653 103.939C227.084 105.274 228.853 105.941 231.038 105.941C233.484 105.941 234.993 105.325 236.607 103.631C237.231 102.99 240.197 98.8315 243.215 94.3911C246.234 89.9507 250.917 83.0462 253.623 79.0421C256.329 75.0636 258.645 71.8039 258.775 71.8039C258.931 71.8039 259.035 81.6345 259.035 98.8059C259.035 119.596 259.113 126.039 259.373 126.732C260.362 129.53 262.313 131.198 265.332 131.865C268.714 132.61 272.357 130.685 273.944 127.271L274.516 126.09V85.0226V43.9549L273.866 42.6715C271.55 38.0258 265.566 36.7167 261.767 40.0278C260.986 40.6952 258.801 43.6726 255.679 48.2927C252.973 52.2711 248.783 58.4313 246.338 61.999C243.892 65.5924 239.521 72.0092 236.607 76.3213C233.692 80.6078 231.221 84.0985 231.064 84.0985C230.934 84.0985 229.92 82.7382 228.827 81.0955C227.734 79.4528 224.586 74.807 221.828 70.7772C214.282 59.7659 207.491 49.807 204.473 45.3666C201.429 40.9005 199.816 39.2065 197.994 38.5904C196.485 38.1028 194.221 38.0771 192.842 38.5904Z" fill="#283618"/>
<path d="M43.4387 208.126C41.9296 208.845 40.9929 209.846 40.2904 211.386C38.8333 214.543 40.0302 218.136 43.1004 219.779L44.4794 220.549L62.6408 220.626C74.0111 220.652 80.7761 220.78 80.7761 220.934C80.7761 221.062 79.8134 222.423 78.6165 223.937C75.1299 228.403 72.1898 232.228 62.1724 245.19C60.0909 247.859 56.9946 251.915 55.2513 254.173C53.5081 256.432 51.1924 259.435 50.0735 260.847C40.0562 273.757 36.9339 277.89 36.5176 278.788C34.9304 282.253 37.1421 286.463 41.123 287.618C42.7101 288.08 96.8559 288.054 98.3389 287.592C100.837 286.848 102.528 285.102 103.152 282.613C103.985 279.43 101.799 275.836 98.443 274.861C97.7925 274.656 91.0016 274.579 77.0293 274.579C65.7891 274.579 56.5783 274.527 56.5783 274.45C56.5783 274.373 57.463 273.193 58.5297 271.832C59.5965 270.446 61.8081 267.572 63.4473 265.467C65.0605 263.336 67.6104 260.051 69.0935 258.152C86.0319 236.309 100.629 217.289 100.993 216.571C101.253 216.032 101.435 215.056 101.435 214.132C101.409 211.463 100.004 209.256 97.5584 208.126C96.3875 207.587 96.2834 207.587 70.4465 207.587C45.1039 207.613 44.4534 207.613 43.4387 208.126Z" fill="#283618"/>
</svg>
