<svg width="70" height="31" viewBox="0 0 70 31" fill="none" xmlns="http://www.w3.org/2000/svg">
<path d="M1 2C1 1.44772 1.44772 1 2 1H68C68.5523 1 69 1.44772 69 2V28.4348C69 28.9871 68.5523 29.4348 68 29.4348H2C1.44771 29.4348 1 28.9871 1 28.4348V2Z" stroke="#E8EDDF" stroke-width="2"/>
<path d="M12.276 19.172C12.42 19.172 12.532 19.208 12.612 19.28C12.692 19.352 12.732 19.452 12.732 19.58C12.732 19.716 12.692 19.82 12.612 19.892C12.532 19.964 12.42 20 12.276 20H6.912C6.768 20 6.652 19.96 6.564 19.88C6.484 19.8 6.444 19.7 6.444 19.58C6.444 19.46 6.488 19.336 6.576 19.208L11.376 12.368H6.912C6.768 12.368 6.656 12.332 6.576 12.26C6.496 12.188 6.456 12.088 6.456 11.96C6.456 11.824 6.496 11.72 6.576 11.648C6.656 11.576 6.768 11.54 6.912 11.54H12.144C12.288 11.54 12.4 11.58 12.48 11.66C12.568 11.74 12.612 11.84 12.612 11.96C12.612 12.072 12.568 12.192 12.48 12.32L7.668 19.172H12.276ZM18.3009 14.036C18.4529 14.036 18.5689 14.08 18.6489 14.168C18.7369 14.256 18.7809 14.372 18.7809 14.516V19.592C18.7809 19.728 18.7369 19.84 18.6489 19.928C18.5689 20.016 18.4529 20.06 18.3009 20.06C18.1569 20.06 18.0409 20.02 17.9529 19.94C17.8729 19.852 17.8329 19.74 17.8329 19.604V19.004C17.6489 19.356 17.3889 19.624 17.0529 19.808C16.7249 19.992 16.3529 20.084 15.9369 20.084C15.2409 20.084 14.7169 19.892 14.3649 19.508C14.0129 19.116 13.8369 18.54 13.8369 17.78V14.516C13.8369 14.372 13.8809 14.256 13.9689 14.168C14.0569 14.08 14.1769 14.036 14.3289 14.036C14.4809 14.036 14.5969 14.08 14.6769 14.168C14.7649 14.256 14.8089 14.372 14.8089 14.516V17.756C14.8089 18.276 14.9129 18.66 15.1209 18.908C15.3289 19.148 15.6569 19.268 16.1049 19.268C16.6169 19.268 17.0289 19.104 17.3409 18.776C17.6529 18.44 17.8089 18 17.8089 17.456V14.516C17.8089 14.372 17.8529 14.256 17.9409 14.168C18.0289 14.08 18.1489 14.036 18.3009 14.036ZM22.9995 20.084C22.4555 20.084 21.9715 19.96 21.5475 19.712C21.1315 19.464 20.8075 19.112 20.5755 18.656C20.3515 18.2 20.2395 17.672 20.2395 17.072C20.2395 16.472 20.3555 15.94 20.5875 15.476C20.8275 15.012 21.1595 14.652 21.5835 14.396C22.0075 14.14 22.4955 14.012 23.0475 14.012C23.3515 14.012 23.6515 14.056 23.9475 14.144C24.2515 14.224 24.5155 14.344 24.7395 14.504C24.8835 14.6 24.9835 14.696 25.0395 14.792C25.1035 14.88 25.1355 14.98 25.1355 15.092C25.1355 15.204 25.1035 15.296 25.0395 15.368C24.9835 15.44 24.9075 15.476 24.8115 15.476C24.7555 15.476 24.6955 15.46 24.6315 15.428C24.5675 15.396 24.5115 15.364 24.4635 15.332C24.4235 15.3 24.3955 15.28 24.3795 15.272C24.1715 15.136 23.9715 15.028 23.7795 14.948C23.5955 14.868 23.3675 14.828 23.0955 14.828C22.5115 14.828 22.0555 15.028 21.7275 15.428C21.4075 15.82 21.2475 16.368 21.2475 17.072C21.2475 17.776 21.4075 18.32 21.7275 18.704C22.0555 19.088 22.5115 19.28 23.0955 19.28C23.3675 19.28 23.5995 19.24 23.7915 19.16C23.9915 19.08 24.1915 18.972 24.3915 18.836C24.4795 18.78 24.5635 18.732 24.6435 18.692C24.7235 18.652 24.7915 18.632 24.8475 18.632C24.9355 18.632 25.0075 18.668 25.0635 18.74C25.1275 18.812 25.1595 18.904 25.1595 19.016C25.1595 19.12 25.1315 19.216 25.0755 19.304C25.0195 19.384 24.9155 19.476 24.7635 19.58C24.5395 19.732 24.2675 19.856 23.9475 19.952C23.6355 20.04 23.3195 20.084 22.9995 20.084ZM29.2817 14.012C29.9697 14.012 30.4897 14.208 30.8417 14.6C31.1937 14.984 31.3697 15.56 31.3697 16.328V19.58C31.3697 19.732 31.3257 19.852 31.2377 19.94C31.1497 20.02 31.0337 20.06 30.8897 20.06C30.7377 20.06 30.6177 20.02 30.5297 19.94C30.4417 19.852 30.3977 19.732 30.3977 19.58V16.352C30.3977 15.832 30.2897 15.448 30.0737 15.2C29.8657 14.952 29.5297 14.828 29.0657 14.828C28.5297 14.828 28.1017 14.992 27.7817 15.32C27.4617 15.648 27.3017 16.092 27.3017 16.652V19.58C27.3017 19.732 27.2577 19.852 27.1697 19.94C27.0897 20.02 26.9737 20.06 26.8217 20.06C26.6697 20.06 26.5497 20.02 26.4617 19.94C26.3737 19.852 26.3297 19.732 26.3297 19.58V11.948C26.3297 11.812 26.3737 11.7 26.4617 11.612C26.5577 11.524 26.6777 11.48 26.8217 11.48C26.9737 11.48 27.0897 11.524 27.1697 11.612C27.2577 11.692 27.3017 11.804 27.3017 11.948V15.092C27.4937 14.74 27.7617 14.472 28.1057 14.288C28.4497 14.104 28.8417 14.012 29.2817 14.012ZM37.674 18.644C37.762 18.644 37.838 18.68 37.902 18.752C37.966 18.824 37.998 18.916 37.998 19.028C37.998 19.228 37.858 19.412 37.578 19.58C37.29 19.748 36.986 19.876 36.666 19.964C36.346 20.044 36.034 20.084 35.73 20.084C34.826 20.084 34.11 19.816 33.582 19.28C33.062 18.744 32.802 18.004 32.802 17.06C32.802 16.46 32.918 15.932 33.15 15.476C33.382 15.012 33.706 14.652 34.122 14.396C34.546 14.14 35.026 14.012 35.562 14.012C36.322 14.012 36.926 14.26 37.374 14.756C37.822 15.252 38.046 15.924 38.046 16.772C38.046 16.932 38.014 17.048 37.95 17.12C37.886 17.192 37.782 17.228 37.638 17.228H33.774C33.846 18.604 34.498 19.292 35.73 19.292C36.042 19.292 36.31 19.252 36.534 19.172C36.758 19.084 36.998 18.968 37.254 18.824C37.462 18.704 37.602 18.644 37.674 18.644ZM35.574 14.768C35.062 14.768 34.65 14.928 34.338 15.248C34.034 15.568 33.854 16.02 33.798 16.604H37.194C37.178 16.012 37.03 15.56 36.75 15.248C36.47 14.928 36.078 14.768 35.574 14.768ZM39.9701 20.06C39.8261 20.06 39.7061 20.02 39.6101 19.94C39.5221 19.852 39.4781 19.732 39.4781 19.58V11.96C39.4781 11.808 39.5221 11.692 39.6101 11.612C39.7061 11.524 39.8261 11.48 39.9701 11.48C40.1061 11.48 40.2181 11.524 40.3061 11.612C40.4021 11.692 40.4501 11.808 40.4501 11.96V19.58C40.4501 19.732 40.4021 19.852 40.3061 19.94C40.2181 20.02 40.1061 20.06 39.9701 20.06ZM42.7592 20.06C42.6152 20.06 42.4952 20.02 42.3992 19.94C42.3112 19.852 42.2672 19.732 42.2672 19.58V14.516C42.2672 14.364 42.3112 14.248 42.3992 14.168C42.4952 14.08 42.6152 14.036 42.7592 14.036C42.9032 14.036 43.0192 14.08 43.1072 14.168C43.1952 14.248 43.2392 14.364 43.2392 14.516V19.58C43.2392 19.74 43.1952 19.86 43.1072 19.94C43.0192 20.02 42.9032 20.06 42.7592 20.06ZM42.7592 12.776C42.5672 12.776 42.4112 12.72 42.2912 12.608C42.1712 12.496 42.1112 12.348 42.1112 12.164C42.1112 11.988 42.1712 11.844 42.2912 11.732C42.4112 11.62 42.5672 11.564 42.7592 11.564C42.9512 11.564 43.1072 11.62 43.2272 11.732C43.3472 11.844 43.4072 11.988 43.4072 12.164C43.4072 12.348 43.3472 12.496 43.2272 12.608C43.1072 12.72 42.9512 12.776 42.7592 12.776ZM51.882 20.096C51.082 20.096 50.39 19.924 49.806 19.58C49.222 19.228 48.77 18.728 48.45 18.08C48.138 17.424 47.982 16.652 47.982 15.764C47.982 14.884 48.138 14.12 48.45 13.472C48.77 12.816 49.222 12.316 49.806 11.972C50.39 11.62 51.082 11.444 51.882 11.444C52.418 11.444 52.922 11.532 53.394 11.708C53.874 11.876 54.29 12.12 54.642 12.44C54.77 12.56 54.834 12.7 54.834 12.86C54.834 12.972 54.802 13.072 54.738 13.16C54.674 13.24 54.598 13.28 54.51 13.28C54.414 13.28 54.298 13.236 54.162 13.148C53.754 12.828 53.382 12.604 53.046 12.476C52.718 12.348 52.338 12.284 51.906 12.284C50.978 12.284 50.262 12.588 49.758 13.196C49.262 13.796 49.014 14.652 49.014 15.764C49.014 16.884 49.262 17.748 49.758 18.356C50.262 18.956 50.978 19.256 51.906 19.256C52.33 19.256 52.71 19.192 53.046 19.064C53.382 18.936 53.754 18.712 54.162 18.392C54.298 18.304 54.414 18.26 54.51 18.26C54.598 18.26 54.674 18.3 54.738 18.38C54.802 18.46 54.834 18.56 54.834 18.68C54.834 18.84 54.77 18.98 54.642 19.1C54.29 19.42 53.874 19.668 53.394 19.844C52.922 20.012 52.418 20.096 51.882 20.096ZM58.5779 20.084C58.0259 20.084 57.5379 19.96 57.1139 19.712C56.6979 19.464 56.3739 19.112 56.1419 18.656C55.9179 18.192 55.8059 17.656 55.8059 17.048C55.8059 16.44 55.9179 15.908 56.1419 15.452C56.3739 14.988 56.6979 14.632 57.1139 14.384C57.5379 14.136 58.0259 14.012 58.5779 14.012C59.1299 14.012 59.6179 14.136 60.0419 14.384C60.4659 14.632 60.7899 14.988 61.0139 15.452C61.2459 15.908 61.3619 16.44 61.3619 17.048C61.3619 17.656 61.2459 18.192 61.0139 18.656C60.7899 19.112 60.4659 19.464 60.0419 19.712C59.6179 19.96 59.1299 20.084 58.5779 20.084ZM58.5779 19.28C59.1539 19.28 59.5939 19.092 59.8979 18.716C60.2099 18.332 60.3659 17.776 60.3659 17.048C60.3659 16.336 60.2099 15.788 59.8979 15.404C59.5859 15.012 59.1459 14.816 58.5779 14.816C58.0099 14.816 57.5699 15.012 57.2579 15.404C56.9459 15.788 56.7899 16.336 56.7899 17.048C56.7899 17.768 56.9419 18.32 57.2459 18.704C57.5579 19.088 58.0019 19.28 58.5779 19.28ZM63.0909 20.06C62.8989 20.06 62.7389 20 62.6109 19.88C62.4829 19.752 62.4189 19.588 62.4189 19.388C62.4189 19.188 62.4829 19.024 62.6109 18.896C62.7389 18.768 62.8989 18.704 63.0909 18.704C63.2749 18.704 63.4269 18.768 63.5469 18.896C63.6749 19.024 63.7389 19.188 63.7389 19.388C63.7389 19.588 63.6749 19.752 63.5469 19.88C63.4269 20 63.2749 20.06 63.0909 20.06Z" fill="#E8EDDF"/>
</svg>
