<svg width="400" height="180" viewBox="0 0 400 180" fill="none" xmlns="http://www.w3.org/2000/svg">
<path d="M0 0H400V180H0V0Z" fill="#F2CC8F"/>
<path d="M102 132.443V137.471H84C83.6484 137.471 83.3203 137.541 83.0156 137.682C82.7109 137.811 82.4473 137.992 82.2246 138.227C81.9902 138.449 81.8086 138.713 81.6797 139.018C81.5508 139.322 81.4863 139.65 81.4863 140.002C81.4863 140.354 81.5508 140.682 81.6797 140.986C81.8086 141.291 81.9902 141.561 82.2246 141.795C82.4473 142.018 82.7109 142.193 83.0156 142.322C83.3203 142.451 83.6484 142.516 84 142.516H102V147.561H84C83.6484 147.561 83.3203 147.625 83.0156 147.754C82.7109 147.883 82.4473 148.064 82.2246 148.299C81.9902 148.521 81.8086 148.785 81.6797 149.09C81.5508 149.395 81.4863 149.723 81.4863 150.074C81.4863 150.426 81.5508 150.754 81.6797 151.059C81.8086 151.363 81.9902 151.633 82.2246 151.867C82.4473 152.09 82.7109 152.266 83.0156 152.395C83.3203 152.523 83.6484 152.588 84 152.588H102V157.633H84C82.957 157.633 81.9785 157.439 81.0645 157.053C80.1387 156.654 79.3359 156.115 78.6562 155.436C77.9648 154.744 77.4258 153.941 77.0391 153.027C76.6406 152.102 76.4414 151.117 76.4414 150.074C76.4414 149.137 76.6113 148.234 76.9512 147.367C77.2793 146.5 77.7598 145.721 78.3926 145.029C77.7598 144.338 77.2793 143.564 76.9512 142.709C76.6113 141.842 76.4414 140.939 76.4414 140.002C76.4414 138.959 76.6406 137.98 77.0391 137.066C77.4258 136.141 77.9648 135.338 78.6562 134.658C79.3359 133.967 80.1387 133.428 81.0645 133.041C81.9785 132.643 82.957 132.443 84 132.443H102ZM97.3945 119.358C97.4531 119.171 97.4941 118.983 97.5176 118.796C97.5293 118.608 97.5352 118.421 97.5352 118.233C97.5352 117.764 97.4707 117.313 97.3418 116.88C97.2129 116.446 97.0312 116.042 96.7969 115.667C96.5508 115.28 96.2578 114.94 95.918 114.647C95.5664 114.343 95.1797 114.096 94.7578 113.909L98.291 110.393C98.9238 110.839 99.4922 111.354 99.9961 111.94C100.5 112.514 100.928 113.141 101.279 113.821C101.631 114.489 101.895 115.198 102.07 115.948C102.258 116.686 102.352 117.448 102.352 118.233C102.352 119.557 102.105 120.805 101.613 121.977C101.121 123.138 100.436 124.157 99.5566 125.036C98.6777 125.903 97.6348 126.589 96.4277 127.093C95.209 127.596 93.873 127.848 92.4199 127.848C90.9316 127.848 89.5723 127.596 88.3418 127.093C87.1113 126.589 86.0625 125.903 85.1953 125.036C84.3281 124.157 83.6543 123.138 83.1738 121.977C82.6934 120.805 82.4531 119.557 82.4531 118.233C82.4531 117.448 82.5469 116.68 82.7344 115.93C82.9219 115.18 83.1914 114.471 83.543 113.804C83.8945 113.124 84.3281 112.491 84.8438 111.905C85.3477 111.319 85.916 110.804 86.5488 110.358L97.3945 119.358ZM87.498 116.897C87.416 117.12 87.3633 117.343 87.3398 117.565C87.3164 117.776 87.3047 117.999 87.3047 118.233C87.3047 118.889 87.4277 119.511 87.6738 120.096C87.9082 120.671 88.248 121.175 88.6934 121.608C89.1387 122.03 89.6777 122.364 90.3105 122.61C90.9316 122.856 91.6348 122.979 92.4199 122.979C92.5957 122.979 92.7949 122.973 93.0176 122.962C93.2402 122.938 93.4688 122.909 93.7031 122.874C93.9258 122.827 94.1426 122.774 94.3535 122.716C94.5645 122.657 94.752 122.581 94.916 122.487L87.498 116.897ZM102 82.191V86.9723H90.0469C89.7188 86.9723 89.4082 87.0367 89.1152 87.1656C88.8223 87.2828 88.5645 87.4527 88.3418 87.6754C88.1191 87.898 87.9492 88.1559 87.832 88.4488C87.7031 88.7418 87.6387 89.0523 87.6387 89.3805C87.6387 89.7086 87.7031 90.0191 87.832 90.3121C87.9492 90.5934 88.1191 90.8453 88.3418 91.068C88.5645 91.2789 88.8223 91.4488 89.1152 91.5777C89.4082 91.6949 89.7188 91.7535 90.0469 91.7535H102V96.5523H90.0469C89.7188 96.5523 89.4082 96.6168 89.1152 96.7457C88.8223 96.8629 88.5645 97.0328 88.3418 97.2555C88.1191 97.4781 87.9492 97.7359 87.832 98.0289C87.7031 98.3219 87.6387 98.6324 87.6387 98.9605C87.6387 99.2887 87.7031 99.5992 87.832 99.8922C87.9492 100.173 88.1191 100.425 88.3418 100.648C88.5645 100.859 88.8223 101.029 89.1152 101.158C89.4082 101.275 89.7188 101.334 90.0469 101.334H102V106.132H83.1738V104.972L84.6152 103.671C84.0527 103.004 83.6191 102.271 83.3145 101.474C82.998 100.666 82.8398 99.8277 82.8398 98.9605C82.8398 98.0816 83.0039 97.2262 83.332 96.3941C83.6602 95.5504 84.2285 94.8121 85.0371 94.1793C84.6387 93.8863 84.2988 93.5523 84.0176 93.1773C83.7363 92.8023 83.5078 92.4098 83.332 91.9996C83.1562 91.5777 83.0332 91.1441 82.9629 90.6988C82.8809 90.2535 82.8398 89.8141 82.8398 89.3805C82.8398 88.3844 83.0273 87.4527 83.4023 86.5855C83.7773 85.7066 84.293 84.9449 84.9492 84.3004C85.5938 83.6441 86.3555 83.1285 87.2344 82.7535C88.1133 82.3785 89.0508 82.191 90.0469 82.191H102ZM92.4199 58.682C93.8262 58.682 95.1387 58.934 96.3574 59.4379C97.5645 59.9418 98.6133 60.6273 99.5039 61.4945C100.383 62.3617 101.08 63.3812 101.596 64.5531C102.1 65.7133 102.352 66.9613 102.352 68.2973C102.352 69.6215 102.1 70.8695 101.596 72.0414C101.08 73.2016 100.383 74.2211 99.5039 75.1C98.6133 75.9672 97.5645 76.6527 96.3574 77.1566C95.1387 77.6605 93.8262 77.9125 92.4199 77.9125C90.9902 77.9125 89.666 77.6605 88.4473 77.1566C87.2285 76.6527 86.1797 75.9672 85.3008 75.1C84.4102 74.2211 83.7129 73.2016 83.209 72.0414C82.7051 70.8695 82.4531 69.6215 82.4531 68.2973C82.4531 66.9613 82.6934 65.7133 83.1738 64.5531C83.6426 63.3812 84.3164 62.3617 85.1953 61.4945C86.0625 60.6273 87.1113 59.9418 88.3418 59.4379C89.5605 58.934 90.9199 58.682 92.4199 58.682ZM92.4199 63.516C91.6465 63.516 90.9492 63.6449 90.3281 63.9027C89.6953 64.1488 89.1562 64.4887 88.7109 64.9223C88.2539 65.3559 87.9082 65.8656 87.6738 66.4516C87.4277 67.0258 87.3047 67.641 87.3047 68.2973C87.3047 68.9535 87.4277 69.5746 87.6738 70.1605C87.9082 70.7348 88.2539 71.2387 88.7109 71.6723C89.1562 72.0941 89.6953 72.4281 90.3281 72.6742C90.9492 72.9203 91.6465 73.0434 92.4199 73.0434C93.1465 73.0434 93.8203 72.9203 94.4414 72.6742C95.0625 72.4281 95.6016 72.0941 96.0586 71.6723C96.5156 71.2387 96.8789 70.7348 97.1484 70.1605C97.4062 69.5746 97.5352 68.9535 97.5352 68.2973C97.5352 67.641 97.4121 67.0258 97.166 66.4516C96.9199 65.8656 96.5742 65.3559 96.1289 64.9223C95.6836 64.4887 95.1445 64.1488 94.5117 63.9027C93.8789 63.6449 93.1816 63.516 92.4199 63.516ZM102 49.4289V54.2277H83.1738V53.0676L85.4062 51.4855C84.7031 50.7121 84.1641 49.8332 83.7891 48.8488C83.4023 47.8645 83.209 46.8449 83.209 45.7902V41.5539H87.9902V45.7902C87.9902 46.2941 88.084 46.7688 88.2715 47.2141C88.459 47.6594 88.7168 48.0461 89.0449 48.3742C89.373 48.7023 89.7598 48.9602 90.2051 49.1477C90.6504 49.3352 91.125 49.4289 91.6289 49.4289H102ZM109.172 33.127H104.338L104.373 30.4551C104.373 29.9863 104.297 29.5352 104.145 29.1016C103.992 28.668 103.781 28.2695 103.512 27.9062C103.242 27.5312 102.92 27.2031 102.545 26.9219C102.182 26.6406 101.783 26.4121 101.35 26.2363C101.572 26.7637 101.795 27.3027 102.018 27.8535C102.24 28.3926 102.352 28.9375 102.352 29.4883C102.352 30.6484 102.146 31.7383 101.736 32.7578C101.326 33.7773 100.746 34.6738 99.9961 35.4473C99.2344 36.209 98.3145 36.8125 97.2363 37.2578C96.1465 37.6914 94.9277 37.9082 93.5801 37.9082H83.1738V33.127H93.5801C94.248 33.127 94.834 33.0332 95.3379 32.8457C95.8301 32.6465 96.2461 32.3828 96.5859 32.0547C96.9141 31.7266 97.1602 31.3457 97.3242 30.9121C97.4883 30.4668 97.5703 29.9922 97.5703 29.4883C97.5703 28.9961 97.459 28.5332 97.2363 28.0996C97.002 27.6543 96.6973 27.2676 96.3223 26.9395C95.9473 26.6113 95.5254 26.3535 95.0566 26.166C94.5762 25.9785 94.084 25.8848 93.5801 25.8848H83.1738V21.0508H99.627C100.951 21.0625 102.193 21.3203 103.354 21.8242C104.514 22.3281 105.527 23.0195 106.395 23.8984C107.262 24.7656 107.947 25.7793 108.451 26.9395C108.955 28.0996 109.207 29.3418 109.207 30.666L109.172 33.127Z" fill="#3D405B"/>
<path d="M300.549 65.5871C299.553 64.4152 298.785 63.1086 298.246 61.6672C297.719 60.2258 297.455 58.7258 297.455 57.1672C297.455 55.9719 297.613 54.8176 297.93 53.7043C298.234 52.6027 298.668 51.5715 299.23 50.6105C299.805 49.6496 300.484 48.7707 301.27 47.9738C302.066 47.177 302.945 46.4973 303.906 45.9348C304.879 45.3723 305.922 44.9328 307.035 44.6164C308.148 44.3117 309.303 44.1594 310.498 44.1594C311.693 44.1594 312.842 44.3117 313.943 44.6164C315.045 44.9328 316.076 45.3723 317.037 45.9348C318.01 46.4973 318.889 47.177 319.674 47.9738C320.471 48.7707 321.15 49.6496 321.713 50.6105C322.275 51.5715 322.709 52.6027 323.014 53.7043C323.33 54.8176 323.488 55.9719 323.488 57.1672C323.488 58.7258 323.219 60.2258 322.68 61.6672C322.152 63.1086 321.391 64.4152 320.395 65.5871L316 62.9504C316.773 62.1887 317.377 61.3098 317.811 60.3137C318.256 59.3176 318.479 58.2687 318.479 57.1672C318.479 56.0656 318.268 55.0285 317.846 54.0559C317.424 53.0949 316.85 52.2512 316.123 51.5246C315.408 50.798 314.564 50.2238 313.592 49.802C312.631 49.3801 311.6 49.1691 310.498 49.1691C309.385 49.1691 308.342 49.3801 307.369 49.802C306.396 50.2238 305.547 50.798 304.82 51.5246C304.094 52.2512 303.52 53.0949 303.098 54.0559C302.676 55.0285 302.465 56.0656 302.465 57.1672C302.465 57.8 302.541 58.4152 302.693 59.0129C302.846 59.6105 303.057 60.1789 303.326 60.718H310.498V65.5871H300.549ZM298 88.9906V87.8305L300.584 85.9672C300.174 85.5102 299.787 85.0238 299.424 84.5082C299.072 84.0043 298.762 83.4711 298.492 82.9086C298.234 82.3461 298.029 81.766 297.877 81.1684C297.725 80.5824 297.648 79.9848 297.648 79.3754C297.648 78.0512 297.871 76.8031 298.316 75.6312C298.762 74.4711 299.406 73.4516 300.25 72.5727C301.105 71.7055 302.148 71.0199 303.379 70.516C304.609 70.0121 306.01 69.7602 307.58 69.7602C309.045 69.7602 310.387 70.0121 311.605 70.516C312.836 71.0199 313.891 71.7055 314.77 72.5727C315.648 73.4516 316.328 74.4711 316.809 75.6312C317.301 76.8031 317.547 78.0512 317.547 79.3754C317.547 79.9848 317.471 80.5883 317.318 81.1859C317.166 81.7836 316.955 82.3637 316.686 82.9262C316.416 83.4887 316.1 84.0219 315.736 84.5258C315.373 85.0414 314.98 85.5219 314.559 85.9672L316.791 87.8305V88.9906H298ZM307.58 84.1566C308.236 84.1566 308.869 84.0277 309.479 83.7699C310.1 83.5238 310.645 83.184 311.113 82.7504C311.594 82.3168 311.975 81.807 312.256 81.2211C312.549 80.6469 312.695 80.0316 312.695 79.3754C312.695 78.7191 312.584 78.098 312.361 77.5121C312.139 76.9379 311.811 76.434 311.377 76.0004C310.943 75.5785 310.404 75.2445 309.76 74.9984C309.127 74.7523 308.4 74.6293 307.58 74.6293C306.76 74.6293 306.027 74.7523 305.383 74.9984C304.75 75.2445 304.217 75.5785 303.783 76.0004C303.35 76.434 303.021 76.9379 302.799 77.5121C302.576 78.098 302.465 78.7191 302.465 79.3754C302.465 80.0316 302.605 80.6469 302.887 81.2211C303.18 81.807 303.561 82.3168 304.029 82.7504C304.51 83.184 305.055 83.5238 305.664 83.7699C306.285 84.0277 306.924 84.1566 307.58 84.1566ZM298 118.406V113.625H309.953C310.281 113.625 310.592 113.56 310.885 113.431C311.178 113.314 311.436 113.144 311.658 112.921C311.881 112.699 312.051 112.441 312.168 112.148C312.297 111.855 312.361 111.545 312.361 111.216C312.361 110.888 312.297 110.578 312.168 110.285C312.051 110.004 311.881 109.752 311.658 109.529C311.436 109.318 311.178 109.148 310.885 109.019C310.592 108.902 310.281 108.843 309.953 108.843H298V104.045H309.953C310.281 104.045 310.592 103.98 310.885 103.851C311.178 103.734 311.436 103.564 311.658 103.341C311.881 103.119 312.051 102.861 312.168 102.568C312.297 102.275 312.361 101.964 312.361 101.636C312.361 101.308 312.297 100.998 312.168 100.705C312.051 100.423 311.881 100.171 311.658 99.9488C311.436 99.7379 311.178 99.568 310.885 99.4391C310.592 99.3219 310.281 99.2633 309.953 99.2633H298V94.4645H316.826V95.6246L315.385 96.9254C315.947 97.5934 316.381 98.3258 316.686 99.1227C317.002 99.9312 317.16 100.769 317.16 101.636C317.16 102.515 316.996 103.371 316.668 104.203C316.34 105.046 315.771 105.785 314.963 106.418C315.361 106.711 315.701 107.045 315.982 107.42C316.264 107.795 316.492 108.187 316.668 108.597C316.844 109.019 316.967 109.453 317.037 109.898C317.119 110.343 317.16 110.783 317.16 111.216C317.16 112.212 316.973 113.144 316.598 114.011C316.223 114.89 315.707 115.652 315.051 116.296C314.406 116.953 313.645 117.468 312.766 117.843C311.887 118.218 310.949 118.406 309.953 118.406H298ZM302.605 131.21C302.547 131.397 302.506 131.585 302.482 131.772C302.471 131.96 302.465 132.147 302.465 132.335C302.465 132.804 302.529 133.255 302.658 133.688C302.787 134.122 302.969 134.526 303.203 134.901C303.449 135.288 303.742 135.628 304.082 135.921C304.434 136.225 304.82 136.471 305.242 136.659L301.709 140.175C301.076 139.729 300.508 139.214 300.004 138.628C299.5 138.054 299.072 137.427 298.721 136.747C298.369 136.079 298.105 135.37 297.93 134.62C297.742 133.882 297.648 133.12 297.648 132.335C297.648 131.011 297.895 129.762 298.387 128.591C298.879 127.43 299.564 126.411 300.443 125.532C301.322 124.665 302.365 123.979 303.572 123.475C304.791 122.971 306.127 122.72 307.58 122.72C309.068 122.72 310.428 122.971 311.658 123.475C312.889 123.979 313.938 124.665 314.805 125.532C315.672 126.411 316.346 127.43 316.826 128.591C317.307 129.762 317.547 131.011 317.547 132.335C317.547 133.12 317.453 133.887 317.266 134.637C317.078 135.387 316.809 136.096 316.457 136.764C316.105 137.444 315.672 138.077 315.156 138.663C314.652 139.249 314.084 139.764 313.451 140.21L302.605 131.21ZM312.502 133.671C312.584 133.448 312.637 133.225 312.66 133.003C312.684 132.792 312.695 132.569 312.695 132.335C312.695 131.679 312.572 131.057 312.326 130.471C312.092 129.897 311.752 129.393 311.307 128.96C310.861 128.538 310.322 128.204 309.689 127.958C309.068 127.712 308.365 127.589 307.58 127.589C307.404 127.589 307.205 127.595 306.982 127.606C306.76 127.63 306.531 127.659 306.297 127.694C306.074 127.741 305.857 127.794 305.646 127.852C305.436 127.911 305.248 127.987 305.084 128.081L312.502 133.671Z" fill="#3D405B"/>
<rect x="117" y="9" width="50" height="50" fill="#2A9D8F"/>
<path d="M128.929 33.8594L133.71 38.1953L131.378 40.7969L124.148 34L131.214 26.6523L133.734 29.0312L128.929 33.8594ZM140.242 43H136.785L143.746 26.1953H147.203L140.242 43ZM150.255 29.0312L152.774 26.6523L159.841 34L152.61 40.7969L150.278 38.1953L155.059 33.8594L150.255 29.0312Z" fill="#F4F1DE"/>
<rect x="175" y="9" width="50" height="50" fill="#2A9D8F"/>
<path d="M186.929 33.8594L191.71 38.1953L189.378 40.7969L182.148 34L189.214 26.6523L191.734 29.0312L186.929 33.8594ZM198.242 43H194.785L201.746 26.1953H205.203L198.242 43ZM208.255 29.0312L210.774 26.6523L217.841 34L210.61 40.7969L208.278 38.1953L213.059 33.8594L208.255 29.0312Z" fill="#F4F1DE"/>
<rect x="233" y="9" width="50" height="50" fill="#2A9D8F"/>
<path d="M244.929 33.8594L249.71 38.1953L247.378 40.7969L240.148 34L247.214 26.6523L249.734 29.0312L244.929 33.8594ZM256.242 43H252.785L259.746 26.1953H263.203L256.242 43ZM266.255 29.0312L268.774 26.6523L275.841 34L268.61 40.7969L266.278 38.1953L271.059 33.8594L266.255 29.0312Z" fill="#F4F1DE"/>
<rect x="117" y="65" width="50" height="50" fill="#2A9D8F"/>
<path d="M128.929 89.8594L133.71 94.1953L131.378 96.7969L124.148 90L131.214 82.6523L133.734 85.0312L128.929 89.8594ZM140.242 99H136.785L143.746 82.1953H147.203L140.242 99ZM150.255 85.0312L152.774 82.6523L159.841 90L152.61 96.7969L150.278 94.1953L155.059 89.8594L150.255 85.0312Z" fill="#F4F1DE"/>
<rect x="175" y="65" width="50" height="50" fill="#2A9D8F"/>
<path d="M186.929 89.8594L191.71 94.1953L189.378 96.7969L182.148 90L189.214 82.6523L191.734 85.0312L186.929 89.8594ZM198.242 99H194.785L201.746 82.1953H205.203L198.242 99ZM208.255 85.0312L210.774 82.6523L217.841 90L210.61 96.7969L208.278 94.1953L213.059 89.8594L208.255 85.0312Z" fill="#F4F1DE"/>
<rect x="233" y="65" width="50" height="50" fill="#2A9D8F"/>
<path d="M244.929 89.8594L249.71 94.1953L247.378 96.7969L240.148 90L247.214 82.6523L249.734 85.0312L244.929 89.8594ZM256.242 99H252.785L259.746 82.1953H263.203L256.242 99ZM266.255 85.0312L268.774 82.6523L275.841 90L268.61 96.7969L266.278 94.1953L271.059 89.8594L266.255 85.0312Z" fill="#F4F1DE"/>
<rect x="117" y="120" width="50" height="50" fill="#2A9D8F"/>
<path d="M128.929 144.859L133.71 149.195L131.378 151.797L124.148 145L131.214 137.652L133.734 140.031L128.929 144.859ZM140.242 154H136.785L143.746 137.195H147.203L140.242 154ZM150.255 140.031L152.774 137.652L159.841 145L152.61 151.797L150.278 149.195L155.059 144.859L150.255 140.031Z" fill="#F4F1DE"/>
<rect x="175" y="120" width="50" height="50" fill="#2A9D8F"/>
<path d="M186.929 144.859L191.71 149.195L189.378 151.797L182.148 145L189.214 137.652L191.734 140.031L186.929 144.859ZM198.242 154H194.785L201.746 137.195H205.203L198.242 154ZM208.255 140.031L210.774 137.652L217.841 145L210.61 151.797L208.278 149.195L213.059 144.859L208.255 140.031Z" fill="#F4F1DE"/>
<rect x="233" y="120" width="50" height="50" fill="#2A9D8F"/>
<path d="M244.929 144.859L249.71 149.195L247.378 151.797L240.148 145L247.214 137.652L249.734 140.031L244.929 144.859ZM256.242 154H252.785L259.746 137.195H263.203L256.242 154ZM266.255 140.031L268.774 137.652L275.841 145L268.61 151.797L266.278 149.195L271.059 144.859L266.255 140.031Z" fill="#F4F1DE"/>
</svg>
