<svg width="201" height="100" viewBox="0 0 201 100" fill="none" xmlns="http://www.w3.org/2000/svg">
<path d="M0.0135498 3C0.0135498 1.34314 1.3567 0 3.01355 0H197.014C198.67 0 200.014 1.34315 200.014 3V97C200.014 98.6569 198.67 100 197.014 100H3.01355C1.35669 100 0.0135498 98.6569 0.0135498 97V3Z" fill="#F2CC8F"/>
<path d="M56.0135 74.3574V77.1504H46.0135C45.8182 77.1504 45.6359 77.1895 45.4667 77.2676C45.2974 77.3392 45.1509 77.4401 45.0272 77.5703C44.897 77.694 44.7961 77.8405 44.7245 78.0098C44.6529 78.179 44.6171 78.3613 44.6171 78.5566C44.6171 78.752 44.6529 78.9342 44.7245 79.1035C44.7961 79.2728 44.897 79.4225 45.0272 79.5527C45.1509 79.6764 45.2974 79.7741 45.4667 79.8457C45.6359 79.9173 45.8182 79.9531 46.0135 79.9531H56.0135V82.7559H46.0135C45.8182 82.7559 45.6359 82.7917 45.4667 82.8633C45.2974 82.9349 45.1509 83.0358 45.0272 83.166C44.897 83.2897 44.7961 83.4362 44.7245 83.6055C44.6529 83.7747 44.6171 83.957 44.6171 84.1523C44.6171 84.3477 44.6529 84.5299 44.7245 84.6992C44.7961 84.8685 44.897 85.0182 45.0272 85.1484C45.1509 85.2721 45.2974 85.3698 45.4667 85.4414C45.6359 85.513 45.8182 85.5488 46.0135 85.5488H56.0135V88.3516H46.0135C45.4341 88.3516 44.8905 88.2441 44.3827 88.0293C43.8684 87.8079 43.4224 87.5085 43.0448 87.1309C42.6607 86.7467 42.3612 86.3008 42.1464 85.793C41.925 85.2786 41.8143 84.7318 41.8143 84.1523C41.8143 83.6315 41.9087 83.1302 42.0975 82.6484C42.2798 82.1667 42.5468 81.7337 42.8983 81.3496C42.5468 80.9655 42.2798 80.5358 42.0975 80.0605C41.9087 79.5788 41.8143 79.0775 41.8143 78.5566C41.8143 77.9772 41.925 77.4336 42.1464 76.9258C42.3612 76.4115 42.6607 75.9655 43.0448 75.5879C43.4224 75.2038 43.8684 74.9043 44.3827 74.6895C44.8905 74.4681 45.4341 74.3574 46.0135 74.3574H56.0135ZM53.455 67.0879C53.4875 66.9837 53.5103 66.8796 53.5233 66.7754C53.5298 66.6712 53.5331 66.5671 53.5331 66.4629C53.5331 66.2025 53.4973 65.9518 53.4257 65.7109C53.354 65.4701 53.2531 65.2454 53.1229 65.0371C52.9862 64.8223 52.8234 64.6335 52.6346 64.4707C52.4393 64.3014 52.2245 64.1647 51.9901 64.0605L53.953 62.1074C54.3046 62.3548 54.6203 62.6413 54.9003 62.9668C55.1802 63.2858 55.4178 63.6341 55.6132 64.0117C55.8085 64.3828 55.955 64.7767 56.0526 65.1934C56.1568 65.6035 56.2089 66.0267 56.2089 66.4629C56.2089 67.1986 56.0721 67.8919 55.7987 68.543C55.5253 69.1875 55.1444 69.7539 54.6561 70.2422C54.1678 70.724 53.5884 71.1048 52.9178 71.3848C52.2408 71.6647 51.4986 71.8047 50.6913 71.8047C49.8645 71.8047 49.1093 71.6647 48.4257 71.3848C47.7421 71.1048 47.1594 70.724 46.6776 70.2422C46.1958 69.7539 45.8215 69.1875 45.5546 68.543C45.2876 67.8919 45.1542 67.1986 45.1542 66.4629C45.1542 66.0267 45.2063 65.6003 45.3104 65.1836C45.4146 64.7669 45.5643 64.373 45.7596 64.002C45.955 63.6243 46.1958 63.2728 46.4823 62.9473C46.7622 62.6217 47.078 62.3353 47.4296 62.0879L53.455 67.0879ZM47.9569 65.7207C47.9113 65.8444 47.882 65.9681 47.869 66.0918C47.856 66.209 47.8495 66.3327 47.8495 66.4629C47.8495 66.8275 47.9178 67.1725 48.0546 67.498C48.1848 67.8171 48.3736 68.097 48.621 68.3379C48.8684 68.5723 49.1678 68.7578 49.5194 68.8945C49.8645 69.0312 50.2551 69.0996 50.6913 69.0996C50.7889 69.0996 50.8996 69.0964 51.0233 69.0898C51.147 69.0768 51.274 69.0605 51.4042 69.041C51.5279 69.015 51.6483 68.9857 51.7655 68.9531C51.8827 68.9206 51.9869 68.8783 52.078 68.8262L47.9569 65.7207ZM56.0135 46.4395V49.0957H49.3729C49.1906 49.0957 49.0181 49.1315 48.8553 49.2031C48.6926 49.2682 48.5494 49.3626 48.4257 49.4863C48.302 49.61 48.2076 49.7533 48.1425 49.916C48.0708 50.0788 48.035 50.2513 48.035 50.4336C48.035 50.6159 48.0708 50.7884 48.1425 50.9512C48.2076 51.1074 48.302 51.2474 48.4257 51.3711C48.5494 51.4883 48.6926 51.5827 48.8553 51.6543C49.0181 51.7194 49.1906 51.752 49.3729 51.752H56.0135V54.418H49.3729C49.1906 54.418 49.0181 54.4538 48.8553 54.5254C48.6926 54.5905 48.5494 54.6849 48.4257 54.8086C48.302 54.9323 48.2076 55.0755 48.1425 55.2383C48.0708 55.401 48.035 55.5736 48.035 55.7559C48.035 55.9382 48.0708 56.1107 48.1425 56.2734C48.2076 56.4297 48.302 56.5697 48.4257 56.6934C48.5494 56.8105 48.6926 56.9049 48.8553 56.9766C49.0181 57.0417 49.1906 57.0742 49.3729 57.0742H56.0135V59.7402H45.5546V59.0957L46.3553 58.373C46.0428 58.002 45.802 57.5951 45.6327 57.1523C45.4569 56.7031 45.369 56.2376 45.369 55.7559C45.369 55.2676 45.4602 54.7923 45.6425 54.3301C45.8247 53.8613 46.1405 53.4512 46.5897 53.0996C46.3684 52.9368 46.1796 52.7513 46.0233 52.543C45.8671 52.3346 45.7401 52.1165 45.6425 51.8887C45.5448 51.6543 45.4764 51.4134 45.4374 51.166C45.3918 50.9186 45.369 50.6745 45.369 50.4336C45.369 49.8802 45.4732 49.3626 45.6815 48.8809C45.8899 48.3926 46.1763 47.9694 46.5409 47.6113C46.899 47.2467 47.3221 46.9603 47.8104 46.752C48.2987 46.5436 48.8195 46.4395 49.3729 46.4395H56.0135ZM50.6913 33.3789C51.4725 33.3789 52.2017 33.5189 52.8788 33.7988C53.5494 34.0788 54.132 34.4596 54.6268 34.9414C55.1151 35.4232 55.5025 35.9896 55.7889 36.6406C56.0689 37.2852 56.2089 37.9785 56.2089 38.7207C56.2089 39.4564 56.0689 40.1497 55.7889 40.8008C55.5025 41.4453 55.1151 42.0117 54.6268 42.5C54.132 42.9818 53.5494 43.3626 52.8788 43.6426C52.2017 43.9225 51.4725 44.0625 50.6913 44.0625C49.897 44.0625 49.1613 43.9225 48.4843 43.6426C47.8072 43.3626 47.2245 42.9818 46.7362 42.5C46.2414 42.0117 45.854 41.4453 45.5741 40.8008C45.2941 40.1497 45.1542 39.4564 45.1542 38.7207C45.1542 37.9785 45.2876 37.2852 45.5546 36.6406C45.815 35.9896 46.1893 35.4232 46.6776 34.9414C47.1594 34.4596 47.7421 34.0788 48.4257 33.7988C49.1027 33.5189 49.858 33.3789 50.6913 33.3789ZM50.6913 36.0645C50.2616 36.0645 49.8742 36.1361 49.5292 36.2793C49.1776 36.416 48.8781 36.6048 48.6307 36.8457C48.3768 37.0866 48.1848 37.3698 48.0546 37.6953C47.9178 38.0143 47.8495 38.3561 47.8495 38.7207C47.8495 39.0853 47.9178 39.4303 48.0546 39.7559C48.1848 40.0749 48.3768 40.3548 48.6307 40.5957C48.8781 40.8301 49.1776 41.0156 49.5292 41.1523C49.8742 41.2891 50.2616 41.3574 50.6913 41.3574C51.0949 41.3574 51.4693 41.2891 51.8143 41.1523C52.1594 41.0156 52.4589 40.8301 52.7128 40.5957C52.9667 40.3548 53.1685 40.0749 53.3182 39.7559C53.4615 39.4303 53.5331 39.0853 53.5331 38.7207C53.5331 38.3561 53.4647 38.0143 53.328 37.6953C53.1913 37.3698 52.9992 37.0866 52.7518 36.8457C52.5044 36.6048 52.205 36.416 51.8534 36.2793C51.5018 36.1361 51.1145 36.0645 50.6913 36.0645ZM56.0135 28.2383V30.9043H45.5546V30.2598L46.7948 29.3809C46.4042 28.9512 46.1047 28.4629 45.8964 27.916C45.6815 27.3691 45.5741 26.8027 45.5741 26.2168V23.8633H48.2303V26.2168C48.2303 26.4967 48.2824 26.7604 48.3866 27.0078C48.4908 27.2552 48.634 27.4701 48.8163 27.6523C48.9986 27.8346 49.2134 27.9779 49.4608 28.082C49.7082 28.1862 49.9719 28.2383 50.2518 28.2383H56.0135ZM59.9979 19.1816H57.3124L57.3319 17.6973C57.3319 17.4368 57.2896 17.1862 57.205 16.9453C57.1203 16.7044 57.0031 16.4831 56.8534 16.2812C56.7037 16.0729 56.5246 15.8906 56.3163 15.7344C56.1145 15.5781 55.8931 15.4512 55.6522 15.3535C55.7759 15.6465 55.8996 15.946 56.0233 16.252C56.147 16.5514 56.2089 16.8542 56.2089 17.1602C56.2089 17.8047 56.0949 18.4102 55.8671 18.9766C55.6392 19.543 55.3169 20.041 54.9003 20.4707C54.4771 20.8939 53.966 21.2292 53.3671 21.4766C52.7616 21.7174 52.0845 21.8379 51.3358 21.8379H45.5546V19.1816H51.3358C51.7069 19.1816 52.0324 19.1296 52.3124 19.0254C52.5858 18.9147 52.8169 18.7682 53.0057 18.5859C53.188 18.4036 53.3247 18.1921 53.4159 17.9512C53.507 17.7038 53.5526 17.4401 53.5526 17.1602C53.5526 16.8867 53.4908 16.6296 53.3671 16.3887C53.2369 16.1413 53.0676 15.9264 52.8593 15.7441C52.6509 15.5618 52.4165 15.4186 52.1561 15.3145C51.8892 15.2103 51.6158 15.1582 51.3358 15.1582H45.5546V12.4727H54.6952C55.4309 12.4792 56.121 12.6224 56.7655 12.9023C57.41 13.1823 57.9732 13.5664 58.455 14.0547C58.9367 14.5365 59.3176 15.0996 59.5975 15.7441C59.8775 16.3887 60.0175 17.0788 60.0175 17.8145L59.9979 19.1816Z" fill="#3D405B"/>
<path d="M143.43 34.8262C142.876 34.1751 142.45 33.4492 142.15 32.6484C141.857 31.8477 141.711 31.0143 141.711 30.1484C141.711 29.4844 141.799 28.8431 141.974 28.2246C142.144 27.6126 142.385 27.0397 142.697 26.5059C143.016 25.972 143.394 25.4837 143.83 25.041C144.273 24.5983 144.761 24.2207 145.295 23.9082C145.835 23.5957 146.415 23.3516 147.033 23.1758C147.652 23.0065 148.293 22.9219 148.957 22.9219C149.621 22.9219 150.259 23.0065 150.871 23.1758C151.483 23.3516 152.056 23.5957 152.59 23.9082C153.13 24.2207 153.618 24.5983 154.055 25.041C154.497 25.4837 154.875 25.972 155.187 26.5059C155.5 27.0397 155.741 27.6126 155.91 28.2246C156.086 28.8431 156.174 29.4844 156.174 30.1484C156.174 31.0143 156.024 31.8477 155.724 32.6484C155.432 33.4492 155.008 34.1751 154.455 34.8262L152.014 33.3613C152.443 32.9382 152.779 32.4499 153.019 31.8965C153.267 31.3431 153.391 30.7604 153.391 30.1484C153.391 29.5365 153.273 28.9603 153.039 28.4199C152.805 27.8861 152.486 27.4173 152.082 27.0137C151.685 26.61 151.216 26.291 150.676 26.0566C150.142 25.8223 149.569 25.7051 148.957 25.7051C148.338 25.7051 147.759 25.8223 147.219 26.0566C146.678 26.291 146.206 26.61 145.803 27.0137C145.399 27.4173 145.08 27.8861 144.846 28.4199C144.611 28.9603 144.494 29.5365 144.494 30.1484C144.494 30.5 144.536 30.8418 144.621 31.1738C144.706 31.5059 144.823 31.8216 144.973 32.1211H148.957V34.8262H143.43ZM142.014 47.8281V47.1836L143.449 46.1484C143.221 45.8945 143.006 45.6243 142.805 45.3379C142.609 45.0579 142.437 44.7617 142.287 44.4492C142.144 44.1367 142.03 43.8145 141.945 43.4824C141.861 43.1569 141.818 42.8249 141.818 42.4863C141.818 41.7507 141.942 41.0573 142.189 40.4062C142.437 39.7617 142.795 39.1953 143.264 38.707C143.739 38.2253 144.318 37.8444 145.002 37.5645C145.685 37.2845 146.463 37.1445 147.336 37.1445C148.15 37.1445 148.895 37.2845 149.572 37.5645C150.256 37.8444 150.842 38.2253 151.33 38.707C151.818 39.1953 152.196 39.7617 152.463 40.4062C152.736 41.0573 152.873 41.7507 152.873 42.4863C152.873 42.8249 152.831 43.1602 152.746 43.4922C152.661 43.8242 152.544 44.1465 152.394 44.459C152.245 44.7715 152.069 45.0677 151.867 45.3477C151.665 45.6341 151.447 45.901 151.213 46.1484L152.453 47.1836V47.8281H142.014ZM147.336 45.1426C147.7 45.1426 148.052 45.071 148.391 44.9277C148.736 44.791 149.038 44.6022 149.299 44.3613C149.566 44.1204 149.777 43.8372 149.933 43.5117C150.096 43.1927 150.178 42.8509 150.178 42.4863C150.178 42.1217 150.116 41.7767 149.992 41.4512C149.868 41.1322 149.686 40.8522 149.445 40.6113C149.204 40.377 148.905 40.1914 148.547 40.0547C148.195 39.918 147.792 39.8496 147.336 39.8496C146.88 39.8496 146.473 39.918 146.115 40.0547C145.764 40.1914 145.467 40.377 145.226 40.6113C144.986 40.8522 144.803 41.1322 144.68 41.4512C144.556 41.7767 144.494 42.1217 144.494 42.4863C144.494 42.8509 144.572 43.1927 144.728 43.5117C144.891 43.8372 145.103 44.1204 145.363 44.3613C145.63 44.6022 145.933 44.791 146.271 44.9277C146.616 45.071 146.971 45.1426 147.336 45.1426ZM142.014 64.1699V61.5137H148.654C148.836 61.5137 149.009 61.4779 149.172 61.4062C149.335 61.3411 149.478 61.2467 149.601 61.123C149.725 60.9993 149.82 60.8561 149.885 60.6934C149.956 60.5306 149.992 60.3581 149.992 60.1758C149.992 59.9935 149.956 59.821 149.885 59.6582C149.82 59.502 149.725 59.362 149.601 59.2383C149.478 59.1211 149.335 59.0267 149.172 58.9551C149.009 58.89 148.836 58.8574 148.654 58.8574H142.014V56.1914H148.654C148.836 56.1914 149.009 56.1556 149.172 56.084C149.335 56.0189 149.478 55.9245 149.601 55.8008C149.725 55.6771 149.82 55.5339 149.885 55.3711C149.956 55.2083 149.992 55.0358 149.992 54.8535C149.992 54.6712 149.956 54.4987 149.885 54.3359C149.82 54.1797 149.725 54.0397 149.601 53.916C149.478 53.7988 149.335 53.7044 149.172 53.6328C149.009 53.5677 148.836 53.5352 148.654 53.5352H142.014V50.8691H152.473V51.5137L151.672 52.2363C151.984 52.6074 152.225 53.0143 152.394 53.457C152.57 53.9062 152.658 54.3717 152.658 54.8535C152.658 55.3418 152.567 55.8171 152.385 56.2793C152.202 56.748 151.887 57.1582 151.437 57.5098C151.659 57.6725 151.848 57.8581 152.004 58.0664C152.16 58.2747 152.287 58.4928 152.385 58.7207C152.482 58.9551 152.551 59.196 152.59 59.4434C152.635 59.6908 152.658 59.9349 152.658 60.1758C152.658 60.7292 152.554 61.2467 152.346 61.7285C152.137 62.2168 151.851 62.64 151.486 62.998C151.128 63.3626 150.705 63.6491 150.217 63.8574C149.728 64.0658 149.208 64.1699 148.654 64.1699H142.014ZM144.572 71.2832C144.54 71.3874 144.517 71.4915 144.504 71.5957C144.497 71.6999 144.494 71.804 144.494 71.9082C144.494 72.1686 144.53 72.4193 144.601 72.6602C144.673 72.901 144.774 73.1257 144.904 73.334C145.041 73.5488 145.204 73.7376 145.392 73.9004C145.588 74.0697 145.803 74.2064 146.037 74.3105L144.074 76.2637C143.723 76.0163 143.407 75.7298 143.127 75.4043C142.847 75.0853 142.609 74.737 142.414 74.3594C142.219 73.9883 142.072 73.5944 141.974 73.1777C141.87 72.7676 141.818 72.3444 141.818 71.9082C141.818 71.1725 141.955 70.4792 142.228 69.8281C142.502 69.1836 142.883 68.6172 143.371 68.1289C143.859 67.6471 144.439 67.2663 145.109 66.9863C145.786 66.7064 146.529 66.5664 147.336 66.5664C148.163 66.5664 148.918 66.7064 149.601 66.9863C150.285 67.2663 150.868 67.6471 151.349 68.1289C151.831 68.6172 152.206 69.1836 152.473 69.8281C152.739 70.4792 152.873 71.1725 152.873 71.9082C152.873 72.3444 152.821 72.7708 152.717 73.1875C152.613 73.6042 152.463 73.998 152.267 74.3691C152.072 74.7467 151.831 75.0983 151.545 75.4238C151.265 75.7493 150.949 76.0358 150.598 76.2832L144.572 71.2832ZM150.07 72.6504C150.116 72.5267 150.145 72.403 150.158 72.2793C150.171 72.1621 150.178 72.0384 150.178 71.9082C150.178 71.5436 150.109 71.1986 149.973 70.873C149.842 70.554 149.654 70.2741 149.406 70.0332C149.159 69.7988 148.859 69.6133 148.508 69.4766C148.163 69.3398 147.772 69.2715 147.336 69.2715C147.238 69.2715 147.127 69.2747 147.004 69.2812C146.88 69.2943 146.753 69.3105 146.623 69.3301C146.499 69.3561 146.379 69.3854 146.262 69.418C146.144 69.4505 146.04 69.4928 145.949 69.5449L150.07 72.6504Z" fill="#3D405B"/>
<rect x="65.0135" y="15" width="20" height="20" fill="#2A9D8F"/>
<path d="M69.5673 25.1914L71.5594 26.998L70.5878 28.082L67.5751 25.25L70.5194 22.1885L71.5692 23.1797L69.5673 25.1914ZM74.2811 29H72.8407L75.7411 21.998H77.1815L74.2811 29ZM78.453 23.1797L79.5028 22.1885L82.4471 25.25L79.4344 28.082L78.4628 26.998L80.455 25.1914L78.453 23.1797Z" fill="#F4F1DE"/>
<rect x="90.0135" y="15" width="20" height="20" fill="#2A9D8F"/>
<path d="M94.5673 25.1914L96.5594 26.998L95.5878 28.082L92.5751 25.25L95.5194 22.1885L96.5692 23.1797L94.5673 25.1914ZM99.2811 29H97.8407L100.741 21.998H102.182L99.2811 29ZM103.453 23.1797L104.503 22.1885L107.447 25.25L104.434 28.082L103.463 26.998L105.455 25.1914L103.453 23.1797Z" fill="#F4F1DE"/>
<rect x="115.014" y="15" width="20" height="20" fill="#2A9D8F"/>
<path d="M119.567 25.1914L121.559 26.998L120.588 28.082L117.575 25.25L120.519 22.1885L121.569 23.1797L119.567 25.1914ZM124.281 29H122.841L125.741 21.998H127.182L124.281 29ZM128.453 23.1797L129.503 22.1885L132.447 25.25L129.434 28.082L128.463 26.998L130.455 25.1914L128.453 23.1797Z" fill="#F4F1DE"/>
<rect x="65.0135" y="40" width="20" height="20" fill="#2A9D8F"/>
<path d="M69.5673 50.1914L71.5594 51.998L70.5878 53.082L67.5751 50.25L70.5194 47.1885L71.5692 48.1797L69.5673 50.1914ZM74.2811 54H72.8407L75.7411 46.998H77.1815L74.2811 54ZM78.453 48.1797L79.5028 47.1885L82.4471 50.25L79.4344 53.082L78.4628 51.998L80.455 50.1914L78.453 48.1797Z" fill="#F4F1DE"/>
<rect x="90.0135" y="40" width="20" height="20" fill="#2A9D8F"/>
<path d="M94.5673 50.1914L96.5594 51.998L95.5878 53.082L92.5751 50.25L95.5194 47.1885L96.5692 48.1797L94.5673 50.1914ZM99.2811 54H97.8407L100.741 46.998H102.182L99.2811 54ZM103.453 48.1797L104.503 47.1885L107.447 50.25L104.434 53.082L103.463 51.998L105.455 50.1914L103.453 48.1797Z" fill="#F4F1DE"/>
<rect x="115.014" y="40" width="20" height="20" fill="#2A9D8F"/>
<path d="M119.567 50.1914L121.559 51.998L120.588 53.082L117.575 50.25L120.519 47.1885L121.569 48.1797L119.567 50.1914ZM124.281 54H122.841L125.741 46.998H127.182L124.281 54ZM128.453 48.1797L129.503 47.1885L132.447 50.25L129.434 53.082L128.463 51.998L130.455 50.1914L128.453 48.1797Z" fill="#F4F1DE"/>
<rect x="65.0135" y="65" width="20" height="20" fill="#2A9D8F"/>
<path d="M69.5673 75.1914L71.5594 76.998L70.5878 78.082L67.5751 75.25L70.5194 72.1885L71.5692 73.1797L69.5673 75.1914ZM74.2811 79H72.8407L75.7411 71.998H77.1815L74.2811 79ZM78.453 73.1797L79.5028 72.1885L82.4471 75.25L79.4344 78.082L78.4628 76.998L80.455 75.1914L78.453 73.1797Z" fill="#F4F1DE"/>
<rect x="90.0135" y="65" width="20" height="20" fill="#2A9D8F"/>
<path d="M94.5673 75.1914L96.5594 76.998L95.5878 78.082L92.5751 75.25L95.5194 72.1885L96.5692 73.1797L94.5673 75.1914ZM99.2811 79H97.8407L100.741 71.998H102.182L99.2811 79ZM103.453 73.1797L104.503 72.1885L107.447 75.25L104.434 78.082L103.463 76.998L105.455 75.1914L103.453 73.1797Z" fill="#F4F1DE"/>
<rect x="115.014" y="65" width="20" height="20" fill="#2A9D8F"/>
<path d="M119.567 75.1914L121.559 76.998L120.588 78.082L117.575 75.25L120.519 72.1885L121.569 73.1797L119.567 75.1914ZM124.281 79H122.841L125.741 71.998H127.182L124.281 79ZM128.453 73.1797L129.503 72.1885L132.447 75.25L129.434 78.082L128.463 76.998L130.455 75.1914L128.453 73.1797Z" fill="#F4F1DE"/>
</svg>
