<svg width="100" height="100" viewBox="0 0 100 100" fill="none" xmlns="http://www.w3.org/2000/svg">
<path d="M0 3C0 1.34314 1.34315 0 3 0H97C98.6569 0 100 1.34315 100 3V97C100 98.6569 98.6569 100 97 100H3C1.34314 100 0 98.6569 0 97V3Z" fill="#F2CC8F"/>
<path d="M33.7998 18H31.8447V11C31.8447 10.8633 31.8174 10.7357 31.7627 10.6172C31.7126 10.4987 31.6419 10.3962 31.5508 10.3096C31.4642 10.2184 31.3617 10.1478 31.2432 10.0977C31.1247 10.0475 30.9971 10.0225 30.8604 10.0225C30.7236 10.0225 30.596 10.0475 30.4775 10.0977C30.359 10.1478 30.2542 10.2184 30.1631 10.3096C30.0765 10.3962 30.0081 10.4987 29.958 10.6172C29.9079 10.7357 29.8828 10.8633 29.8828 11V18H27.9209V11C27.9209 10.8633 27.8958 10.7357 27.8457 10.6172C27.7956 10.4987 27.7249 10.3962 27.6338 10.3096C27.5472 10.2184 27.4447 10.1478 27.3262 10.0977C27.2077 10.0475 27.0801 10.0225 26.9434 10.0225C26.8066 10.0225 26.679 10.0475 26.5605 10.0977C26.4421 10.1478 26.3372 10.2184 26.2461 10.3096C26.1595 10.3962 26.0911 10.4987 26.041 10.6172C25.9909 10.7357 25.9658 10.8633 25.9658 11V18H24.0039V11C24.0039 10.5944 24.0791 10.2139 24.2295 9.8584C24.3844 9.49837 24.5941 9.1862 24.8584 8.92188C25.1273 8.65299 25.4395 8.44336 25.7949 8.29297C26.1549 8.13802 26.5378 8.06055 26.9434 8.06055C27.3079 8.06055 27.6589 8.12663 27.9961 8.25879C28.3333 8.38639 28.6364 8.57324 28.9053 8.81934C29.1742 8.57324 29.4749 8.38639 29.8076 8.25879C30.1449 8.12663 30.4958 8.06055 30.8604 8.06055C31.266 8.06055 31.6465 8.13802 32.002 8.29297C32.362 8.44336 32.6742 8.65299 32.9385 8.92188C33.2074 9.1862 33.417 9.49837 33.5674 9.8584C33.7223 10.2139 33.7998 10.5944 33.7998 11V18ZM38.8885 16.209C38.9614 16.2318 39.0343 16.2477 39.1072 16.2568C39.1801 16.2614 39.2531 16.2637 39.326 16.2637C39.5083 16.2637 39.6837 16.2386 39.8523 16.1885C40.021 16.1383 40.1782 16.0677 40.324 15.9766C40.4744 15.8809 40.6066 15.7669 40.7205 15.6348C40.839 15.498 40.9347 15.3477 41.0076 15.1836L42.3748 16.5576C42.2016 16.8037 42.0011 17.0247 41.7732 17.2207C41.5499 17.4167 41.3061 17.583 41.0418 17.7197C40.782 17.8564 40.5063 17.959 40.2146 18.0273C39.9275 18.1003 39.6313 18.1367 39.326 18.1367C38.811 18.1367 38.3257 18.041 37.8699 17.8496C37.4187 17.6582 37.0223 17.3916 36.6805 17.0498C36.3432 16.708 36.0766 16.3024 35.8807 15.833C35.6847 15.359 35.5867 14.8395 35.5867 14.2744C35.5867 13.6956 35.6847 13.167 35.8807 12.6885C36.0766 12.21 36.3432 11.8021 36.6805 11.4648C37.0223 11.1276 37.4187 10.8656 37.8699 10.6787C38.3257 10.4919 38.811 10.3984 39.326 10.3984C39.6313 10.3984 39.9298 10.4349 40.2215 10.5078C40.5132 10.5807 40.7889 10.6855 41.0486 10.8223C41.313 10.959 41.559 11.1276 41.7869 11.3281C42.0148 11.5241 42.2153 11.7451 42.3885 11.9912L38.8885 16.209ZM39.8455 12.3604C39.7589 12.3285 39.6723 12.3079 39.5857 12.2988C39.5037 12.2897 39.4171 12.2852 39.326 12.2852C39.0708 12.2852 38.8292 12.333 38.6014 12.4287C38.3781 12.5199 38.1821 12.652 38.0135 12.8252C37.8494 12.9984 37.7195 13.208 37.6238 13.4541C37.5281 13.6956 37.4803 13.9691 37.4803 14.2744C37.4803 14.3428 37.4826 14.4202 37.4871 14.5068C37.4962 14.5934 37.5076 14.6823 37.5213 14.7734C37.5395 14.86 37.56 14.9443 37.5828 15.0264C37.6056 15.1084 37.6352 15.1813 37.6717 15.2451L39.8455 12.3604ZM53.3424 18H51.483V13.3516C51.483 13.224 51.4579 13.1032 51.4078 12.9893C51.3622 12.8753 51.2962 12.7751 51.2096 12.6885C51.123 12.6019 51.0227 12.5358 50.9088 12.4902C50.7949 12.4401 50.6741 12.415 50.5465 12.415C50.4189 12.415 50.2981 12.4401 50.1842 12.4902C50.0748 12.5358 49.9768 12.6019 49.8902 12.6885C49.8082 12.7751 49.7421 12.8753 49.692 12.9893C49.6464 13.1032 49.6236 13.224 49.6236 13.3516V18H47.7574V13.3516C47.7574 13.224 47.7324 13.1032 47.6822 12.9893C47.6367 12.8753 47.5706 12.7751 47.484 12.6885C47.3974 12.6019 47.2971 12.5358 47.1832 12.4902C47.0693 12.4401 46.9485 12.415 46.8209 12.415C46.6933 12.415 46.5725 12.4401 46.4586 12.4902C46.3492 12.5358 46.2512 12.6019 46.1646 12.6885C46.0826 12.7751 46.0165 12.8753 45.9664 12.9893C45.9208 13.1032 45.898 13.224 45.898 13.3516V18H44.0318V10.6787H44.483L44.9889 11.2393C45.2486 11.0205 45.5335 10.8519 45.8434 10.7334C46.1578 10.6104 46.4837 10.5488 46.8209 10.5488C47.1627 10.5488 47.4954 10.6126 47.8189 10.7402C48.1471 10.8678 48.4342 11.0889 48.6803 11.4033C48.7942 11.2484 48.9241 11.1162 49.0699 11.0068C49.2158 10.8975 49.3684 10.8086 49.5279 10.7402C49.692 10.6719 49.8606 10.624 50.0338 10.5967C50.207 10.5648 50.3779 10.5488 50.5465 10.5488C50.9339 10.5488 51.2962 10.6217 51.6334 10.7676C51.9752 10.9134 52.2714 11.1139 52.5221 11.3691C52.7773 11.6198 52.9778 11.916 53.1236 12.2578C53.2695 12.5996 53.3424 12.9642 53.3424 13.3516V18ZM62.4848 14.2744C62.4848 14.8213 62.3868 15.3317 62.1908 15.8057C61.9949 16.2751 61.7283 16.6829 61.391 17.0293C61.0538 17.3711 60.6573 17.6423 60.2016 17.8428C59.7504 18.0387 59.265 18.1367 58.7455 18.1367C58.2305 18.1367 57.7452 18.0387 57.2895 17.8428C56.8383 17.6423 56.4418 17.3711 56.1 17.0293C55.7628 16.6829 55.4962 16.2751 55.3002 15.8057C55.1042 15.3317 55.0063 14.8213 55.0063 14.2744C55.0063 13.7184 55.1042 13.2035 55.3002 12.7295C55.4962 12.2555 55.7628 11.8477 56.1 11.5059C56.4418 11.1595 56.8383 10.8883 57.2895 10.6924C57.7452 10.4964 58.2305 10.3984 58.7455 10.3984C59.265 10.3984 59.7504 10.4919 60.2016 10.6787C60.6573 10.861 61.0538 11.123 61.391 11.4648C61.7283 11.8021 61.9949 12.21 62.1908 12.6885C62.3868 13.1624 62.4848 13.6911 62.4848 14.2744ZM60.6049 14.2744C60.6049 13.9736 60.5548 13.7025 60.4545 13.4609C60.3588 13.2148 60.2266 13.0052 60.058 12.832C59.8894 12.6543 59.6911 12.5199 59.4633 12.4287C59.24 12.333 59.0007 12.2852 58.7455 12.2852C58.4903 12.2852 58.2488 12.333 58.0209 12.4287C57.7976 12.5199 57.6016 12.6543 57.433 12.832C57.2689 13.0052 57.1391 13.2148 57.0434 13.4609C56.9477 13.7025 56.8998 13.9736 56.8998 14.2744C56.8998 14.557 56.9477 14.819 57.0434 15.0605C57.1391 15.3021 57.2689 15.5117 57.433 15.6895C57.6016 15.8672 57.7976 16.0085 58.0209 16.1133C58.2488 16.2135 58.4903 16.2637 58.7455 16.2637C59.0007 16.2637 59.24 16.2158 59.4633 16.1201C59.6911 16.0244 59.8894 15.89 60.058 15.7168C60.2266 15.5436 60.3588 15.334 60.4545 15.0879C60.5548 14.8418 60.6049 14.5706 60.6049 14.2744ZM66.0832 18H64.217V10.6787H64.6682L65.2834 11.5469C65.5842 11.2734 65.926 11.0638 66.3088 10.918C66.6916 10.7676 67.0881 10.6924 67.4982 10.6924H69.1457V12.5518H67.4982C67.3023 12.5518 67.1177 12.5882 66.9445 12.6611C66.7714 12.734 66.621 12.8343 66.4934 12.9619C66.3658 13.0895 66.2655 13.2399 66.1926 13.4131C66.1197 13.5863 66.0832 13.7708 66.0832 13.9668V18ZM72.4229 20.7891V18.9092L73.4619 18.9229C73.6442 18.9229 73.8197 18.8932 73.9883 18.834C74.1569 18.7747 74.3118 18.6927 74.4531 18.5879C74.599 18.4831 74.7266 18.3577 74.8359 18.2119C74.9453 18.0706 75.0342 17.9157 75.1025 17.7471C74.8975 17.8337 74.6878 17.9202 74.4736 18.0068C74.264 18.0934 74.0521 18.1367 73.8379 18.1367C73.3867 18.1367 72.9629 18.057 72.5664 17.8975C72.1699 17.738 71.8213 17.5124 71.5205 17.2207C71.2243 16.9245 70.9896 16.5667 70.8164 16.1475C70.6478 15.7236 70.5635 15.2497 70.5635 14.7256V10.6787H72.4229V14.7256C72.4229 14.9854 72.4593 15.2132 72.5322 15.4092C72.6097 15.6006 72.7122 15.7624 72.8398 15.8945C72.9674 16.0221 73.1156 16.1178 73.2842 16.1816C73.4574 16.2454 73.6419 16.2773 73.8379 16.2773C74.0293 16.2773 74.2093 16.234 74.3779 16.1475C74.5511 16.0563 74.7015 15.9378 74.8291 15.792C74.9567 15.6462 75.057 15.4821 75.1299 15.2998C75.2028 15.113 75.2393 14.9215 75.2393 14.7256V10.6787H77.1191V17.0771C77.1146 17.5921 77.0143 18.0752 76.8184 18.5264C76.6224 18.9775 76.3535 19.3717 76.0117 19.709C75.6745 20.0462 75.2803 20.3128 74.8291 20.5088C74.3779 20.7048 73.8949 20.8027 73.3799 20.8027L72.4229 20.7891Z" fill="#3D405B"/>
<path d="M39.7283 91.0088C39.2726 91.3962 38.7645 91.6947 38.2039 91.9043C37.6434 92.1094 37.06 92.2119 36.4539 92.2119C35.9891 92.2119 35.5402 92.1504 35.1072 92.0273C34.6788 91.9089 34.2778 91.7402 33.9041 91.5215C33.5304 91.2982 33.1886 91.0339 32.8787 90.7285C32.5688 90.4186 32.3045 90.0768 32.0857 89.7031C31.867 89.3249 31.6961 88.9193 31.573 88.4863C31.4546 88.0534 31.3953 87.6045 31.3953 87.1396C31.3953 86.6748 31.4546 86.2282 31.573 85.7998C31.6961 85.3714 31.867 84.9704 32.0857 84.5967C32.3045 84.2184 32.5688 83.8766 32.8787 83.5713C33.1886 83.2614 33.5304 82.9971 33.9041 82.7783C34.2778 82.5596 34.6788 82.391 35.1072 82.2725C35.5402 82.1494 35.9891 82.0879 36.4539 82.0879C37.06 82.0879 37.6434 82.1927 38.2039 82.4023C38.7645 82.6074 39.2726 82.9036 39.7283 83.291L38.7029 85C38.4067 84.6992 38.0649 84.4645 37.6775 84.2959C37.2902 84.1227 36.8823 84.0361 36.4539 84.0361C36.0255 84.0361 35.6222 84.1182 35.2439 84.2822C34.8702 84.4463 34.5421 84.6696 34.2596 84.9521C33.977 85.2301 33.7537 85.5583 33.5896 85.9365C33.4256 86.3102 33.3436 86.7113 33.3436 87.1396C33.3436 87.5726 33.4256 87.9782 33.5896 88.3564C33.7537 88.7347 33.977 89.0651 34.2596 89.3477C34.5421 89.6302 34.8702 89.8535 35.2439 90.0176C35.6222 90.1816 36.0255 90.2637 36.4539 90.2637C36.7 90.2637 36.9393 90.234 37.1717 90.1748C37.4041 90.1156 37.6251 90.0335 37.8348 89.9287V87.1396H39.7283V91.0088ZM48.8297 92H48.3785L47.6539 90.9951C47.4762 91.1546 47.287 91.305 47.0865 91.4463C46.8906 91.583 46.6832 91.7038 46.4645 91.8086C46.2457 91.9089 46.0201 91.9886 45.7877 92.0479C45.5598 92.1071 45.3274 92.1367 45.0904 92.1367C44.5755 92.1367 44.0901 92.0501 43.6344 91.877C43.1832 91.7038 42.7867 91.4531 42.4449 91.125C42.1077 90.7923 41.8411 90.3867 41.6451 89.9082C41.4492 89.4297 41.3512 88.8851 41.3512 88.2744C41.3512 87.7048 41.4492 87.1829 41.6451 86.709C41.8411 86.2305 42.1077 85.8203 42.4449 85.4785C42.7867 85.1367 43.1832 84.8724 43.6344 84.6855C44.0901 84.4941 44.5755 84.3984 45.0904 84.3984C45.3274 84.3984 45.5621 84.4281 45.7945 84.4873C46.027 84.5465 46.2525 84.6286 46.4713 84.7334C46.69 84.8382 46.8974 84.9613 47.0934 85.1025C47.2939 85.2438 47.4807 85.3965 47.6539 85.5605L48.3785 84.6924H48.8297V92ZM46.9498 88.2744C46.9498 88.0192 46.8997 87.7731 46.7994 87.5361C46.7037 87.2946 46.5716 87.0827 46.4029 86.9004C46.2343 86.7135 46.0361 86.5654 45.8082 86.4561C45.5849 86.3421 45.3456 86.2852 45.0904 86.2852C44.8352 86.2852 44.5937 86.3285 44.3658 86.415C44.1425 86.5016 43.9466 86.6292 43.7779 86.7979C43.6139 86.9665 43.484 87.1761 43.3883 87.4268C43.2926 87.6729 43.2447 87.9554 43.2447 88.2744C43.2447 88.5934 43.2926 88.8783 43.3883 89.1289C43.484 89.375 43.6139 89.5824 43.7779 89.751C43.9466 89.9196 44.1425 90.0472 44.3658 90.1338C44.5937 90.2204 44.8352 90.2637 45.0904 90.2637C45.3456 90.2637 45.5849 90.209 45.8082 90.0996C46.0361 89.9857 46.2343 89.8376 46.4029 89.6553C46.5716 89.4684 46.7037 89.2565 46.7994 89.0195C46.8997 88.778 46.9498 88.5296 46.9498 88.2744ZM60.2689 92H58.4096V87.3516C58.4096 87.224 58.3845 87.1032 58.3344 86.9893C58.2888 86.8753 58.2227 86.7751 58.1361 86.6885C58.0495 86.6019 57.9493 86.5358 57.8354 86.4902C57.7214 86.4401 57.6007 86.415 57.473 86.415C57.3454 86.415 57.2247 86.4401 57.1107 86.4902C57.0014 86.5358 56.9034 86.6019 56.8168 86.6885C56.7348 86.7751 56.6687 86.8753 56.6186 86.9893C56.573 87.1032 56.5502 87.224 56.5502 87.3516V92H54.684V87.3516C54.684 87.224 54.6589 87.1032 54.6088 86.9893C54.5632 86.8753 54.4971 86.7751 54.4105 86.6885C54.324 86.6019 54.2237 86.5358 54.1098 86.4902C53.9958 86.4401 53.8751 86.415 53.7475 86.415C53.6199 86.415 53.4991 86.4401 53.3852 86.4902C53.2758 86.5358 53.1778 86.6019 53.0912 86.6885C53.0092 86.7751 52.9431 86.8753 52.893 86.9893C52.8474 87.1032 52.8246 87.224 52.8246 87.3516V92H50.9584V84.6787H51.4096L51.9154 85.2393C52.1752 85.0205 52.46 84.8519 52.7699 84.7334C53.0844 84.6104 53.4102 84.5488 53.7475 84.5488C54.0893 84.5488 54.4219 84.6126 54.7455 84.7402C55.0736 84.8678 55.3607 85.0889 55.6068 85.4033C55.7208 85.2484 55.8507 85.1162 55.9965 85.0068C56.1423 84.8975 56.295 84.8086 56.4545 84.7402C56.6186 84.6719 56.7872 84.624 56.9604 84.5967C57.1335 84.5648 57.3044 84.5488 57.473 84.5488C57.8604 84.5488 58.2227 84.6217 58.56 84.7676C58.9018 84.9134 59.198 85.1139 59.4486 85.3691C59.7038 85.6198 59.9044 85.916 60.0502 86.2578C60.196 86.5996 60.2689 86.9642 60.2689 87.3516V92ZM65.2482 90.209C65.3212 90.2318 65.3941 90.2477 65.467 90.2568C65.5399 90.2614 65.6128 90.2637 65.6857 90.2637C65.868 90.2637 66.0435 90.2386 66.2121 90.1885C66.3807 90.1383 66.538 90.0677 66.6838 89.9766C66.8342 89.8809 66.9663 89.7669 67.0803 89.6348C67.1988 89.498 67.2945 89.3477 67.3674 89.1836L68.7346 90.5576C68.5614 90.8037 68.3609 91.0247 68.133 91.2207C67.9097 91.4167 67.6659 91.583 67.4016 91.7197C67.1418 91.8564 66.8661 91.959 66.5744 92.0273C66.2873 92.1003 65.9911 92.1367 65.6857 92.1367C65.1708 92.1367 64.6854 92.041 64.2297 91.8496C63.7785 91.6582 63.382 91.3916 63.0402 91.0498C62.703 90.708 62.4364 90.3024 62.2404 89.833C62.0445 89.359 61.9465 88.8395 61.9465 88.2744C61.9465 87.6956 62.0445 87.167 62.2404 86.6885C62.4364 86.21 62.703 85.8021 63.0402 85.4648C63.382 85.1276 63.7785 84.8656 64.2297 84.6787C64.6854 84.4919 65.1708 84.3984 65.6857 84.3984C65.9911 84.3984 66.2896 84.4349 66.5813 84.5078C66.8729 84.5807 67.1486 84.6855 67.4084 84.8223C67.6727 84.959 67.9188 85.1276 68.1467 85.3281C68.3745 85.5241 68.5751 85.7451 68.7482 85.9912L65.2482 90.209ZM66.2053 86.3604C66.1187 86.3285 66.0321 86.3079 65.9455 86.2988C65.8635 86.2897 65.7769 86.2852 65.6857 86.2852C65.4305 86.2852 65.189 86.333 64.9611 86.4287C64.7378 86.5199 64.5419 86.652 64.3732 86.8252C64.2092 86.9984 64.0793 87.208 63.9836 87.4541C63.8879 87.6956 63.84 87.9691 63.84 88.2744C63.84 88.3428 63.8423 88.4202 63.8469 88.5068C63.856 88.5934 63.8674 88.6823 63.8811 88.7734C63.8993 88.86 63.9198 88.9443 63.9426 89.0264C63.9654 89.1084 63.995 89.1813 64.0314 89.2451L66.2053 86.3604Z" fill="#3D405B"/>
<rect x="23" y="23" width="15" height="15" fill="#2A9D8F"/>
<path d="M26.143 29.9531L27.7367 31.3984L26.9594 32.2656L24.5492 30L26.9047 27.5508L27.7445 28.3438L26.143 29.9531ZM29.9141 33H28.7617L31.082 27.3984H32.2344L29.9141 33ZM33.2516 28.3438L34.0914 27.5508L36.4469 30L34.0367 32.2656L33.2594 31.3984L34.8531 29.9531L33.2516 28.3438Z" fill="#F4F1DE"/>
<rect x="43" y="23" width="15" height="15" fill="#2A9D8F"/>
<path d="M46.143 29.9531L47.7367 31.3984L46.9594 32.2656L44.5492 30L46.9047 27.5508L47.7445 28.3438L46.143 29.9531ZM49.9141 33H48.7617L51.082 27.3984H52.2344L49.9141 33ZM53.2516 28.3438L54.0914 27.5508L56.4469 30L54.0367 32.2656L53.2594 31.3984L54.8531 29.9531L53.2516 28.3438Z" fill="#F4F1DE"/>
<rect x="63" y="23" width="15" height="15" fill="#2A9D8F"/>
<path d="M66.143 29.9531L67.7367 31.3984L66.9594 32.2656L64.5492 30L66.9047 27.5508L67.7445 28.3438L66.143 29.9531ZM69.9141 33H68.7617L71.082 27.3984H72.2344L69.9141 33ZM73.2516 28.3438L74.0914 27.5508L76.4469 30L74.0367 32.2656L73.2594 31.3984L74.8531 29.9531L73.2516 28.3438Z" fill="#F4F1DE"/>
<rect x="23" y="43" width="15" height="15" fill="#2A9D8F"/>
<path d="M26.143 49.9531L27.7367 51.3984L26.9594 52.2656L24.5492 50L26.9047 47.5508L27.7445 48.3438L26.143 49.9531ZM29.9141 53H28.7617L31.082 47.3984H32.2344L29.9141 53ZM33.2516 48.3438L34.0914 47.5508L36.4469 50L34.0367 52.2656L33.2594 51.3984L34.8531 49.9531L33.2516 48.3438Z" fill="#F4F1DE"/>
<rect x="43" y="43" width="15" height="15" fill="#2A9D8F"/>
<path d="M46.143 49.9531L47.7367 51.3984L46.9594 52.2656L44.5492 50L46.9047 47.5508L47.7445 48.3438L46.143 49.9531ZM49.9141 53H48.7617L51.082 47.3984H52.2344L49.9141 53ZM53.2516 48.3438L54.0914 47.5508L56.4469 50L54.0367 52.2656L53.2594 51.3984L54.8531 49.9531L53.2516 48.3438Z" fill="#F4F1DE"/>
<rect x="63" y="43" width="15" height="15" fill="#2A9D8F"/>
<path d="M66.143 49.9531L67.7367 51.3984L66.9594 52.2656L64.5492 50L66.9047 47.5508L67.7445 48.3438L66.143 49.9531ZM69.9141 53H68.7617L71.082 47.3984H72.2344L69.9141 53ZM73.2516 48.3438L74.0914 47.5508L76.4469 50L74.0367 52.2656L73.2594 51.3984L74.8531 49.9531L73.2516 48.3438Z" fill="#F4F1DE"/>
<rect x="23" y="63" width="15" height="15" fill="#2A9D8F"/>
<path d="M26.143 69.9531L27.7367 71.3984L26.9594 72.2656L24.5492 70L26.9047 67.5508L27.7445 68.3438L26.143 69.9531ZM29.9141 73H28.7617L31.082 67.3984H32.2344L29.9141 73ZM33.2516 68.3438L34.0914 67.5508L36.4469 70L34.0367 72.2656L33.2594 71.3984L34.8531 69.9531L33.2516 68.3438Z" fill="#F4F1DE"/>
<rect x="43" y="63" width="15" height="15" fill="#2A9D8F"/>
<path d="M46.143 69.9531L47.7367 71.3984L46.9594 72.2656L44.5492 70L46.9047 67.5508L47.7445 68.3438L46.143 69.9531ZM49.9141 73H48.7617L51.082 67.3984H52.2344L49.9141 73ZM53.2516 68.3438L54.0914 67.5508L56.4469 70L54.0367 72.2656L53.2594 71.3984L54.8531 69.9531L53.2516 68.3438Z" fill="#F4F1DE"/>
<rect x="63" y="63" width="15" height="15" fill="#2A9D8F"/>
<path d="M66.143 69.9531L67.7367 71.3984L66.9594 72.2656L64.5492 70L66.9047 67.5508L67.7445 68.3438L66.143 69.9531ZM69.9141 73H68.7617L71.082 67.3984H72.2344L69.9141 73ZM73.2516 68.3438L74.0914 67.5508L76.4469 70L74.0367 72.2656L73.2594 71.3984L74.8531 69.9531L73.2516 68.3438Z" fill="#F4F1DE"/>
</svg>
