<svg width="100" height="100" viewBox="0 0 100 100" fill="none" xmlns="http://www.w3.org/2000/svg">
<path d="M0 3C0 1.34314 1.34315 0 3 0H97C98.6569 0 100 1.34315 100 3V97C100 98.6569 98.6569 100 97 100H3C1.34314 100 0 98.6569 0 97V3Z" fill="#EBF2FA"/>
<line y1="-1.5" x2="80" y2="-1.5" transform="matrix(1 0 0.000720021 1 10 67)" stroke="black" stroke-width="3"/>
<line y1="-1.5" x2="80" y2="-1.5" transform="matrix(1 0 0.000720021 1 10 37)" stroke="black" stroke-width="3"/>
<line y1="-1.5" x2="80" y2="-1.5" transform="matrix(0 -1 1 0.00077214 65 90)" stroke="black" stroke-width="3"/>
<line y1="-1.5" x2="80" y2="-1.5" transform="matrix(0 -1 1 0.000772139 35 90)" stroke="black" stroke-width="3"/>
<path d="M74.25 83.75V82.5H73V78.75H74.25V77.5H80.5V78.75H81.75V81.25H75.5V82.5H80.5V83.75H74.25ZM75.5 80H79.25V78.75H75.5V80Z" fill="black"/>
<path d="M74.25 55.75V54.5H73V50.75H74.25V49.5H80.5V50.75H81.75V54.5H80.5V55.75H74.25ZM75.5 54.5H79.25V50.75H75.5V54.5Z" fill="black"/>
<path d="M76.75 26.75V21.75H74.25V20.5H76.75V18H79.25V20.5H81.75V21.75H79.25V26.75H76.75Z" fill="black"/>
<path d="M46.25 83.75V82.5H45V78.75H46.25V77.5H53.75V78.75H47.5V82.5H53.75V83.75H46.25Z" fill="black"/>
<path d="M46.25 55.75V54.5H45V53.25H46.25V52H51.25V50.75H46.25V49.5H52.5V50.75H53.75V55.75H46.25ZM47.5 54.5H51.25V53.25H47.5V54.5Z" fill="black"/>
<path d="M48.75 26.75V21.75H46.25V20.5H48.75V18H51.25V20.5H53.75V21.75H51.25V26.75H48.75Z" fill="black"/>
<path d="M17.25 83.75V82.5H16V78.75H17.25V77.5H24.75V78.75H18.5V82.5H24.75V83.75H17.25Z" fill="black"/>
<path d="M19.75 49.25V48H22.25V49.25H19.75ZM17.25 56.75V55.5H19.75V51.75H18.5V50.5H22.25V55.5H24.75V56.75H17.25Z" fill="black"/>
<path d="M19.75 26.75V21.75H17.25V20.5H19.75V18H22.25V20.5H24.75V21.75H22.25V26.75H19.75Z" fill="black"/>
</svg>
