<svg width="400" height="180" viewBox="0 0 400 180" fill="none" xmlns="http://www.w3.org/2000/svg">
<path d="M0 0H400V180H0V0Z" fill="#EBF2FA"/>
<line y1="-2.5" x2="156.25" y2="-2.5" transform="matrix(1 0 0.000720021 1 122 120)" stroke="black" stroke-width="5"/>
<line y1="-2.5" x2="156.25" y2="-2.5" transform="matrix(1 0 0.000720021 1 122 70)" stroke="black" stroke-width="5"/>
<line y1="-2.5" x2="127.775" y2="-2.5" transform="matrix(-0.000659835 1 -0.999999 -0.00143197 223.168 26)" stroke="black" stroke-width="5"/>
<line y1="-2.5" x2="127.775" y2="-2.5" transform="matrix(-0.000659835 1 -0.999999 -0.00143197 173.084 26)" stroke="black" stroke-width="5"/>
<path d="M246.25 140.75V138.5H244V131.75H246.25V129.5H257.5V131.75H259.75V136.25H248.5V138.5H257.5V140.75H246.25ZM248.5 134H255.25V131.75H248.5V134Z" fill="black"/>
<path d="M247.25 94.75V92.5H245V85.75H247.25V83.5H258.5V85.75H260.75V92.5H258.5V94.75H247.25ZM249.5 92.5H256.25V85.75H249.5V92.5Z" fill="black"/>
<path d="M249.75 52.75V43.75H245.25V41.5H249.75V37H254.25V41.5H258.75V43.75H254.25V52.75H249.75Z" fill="black"/>
<path d="M194.25 140.75V138.5H192V131.75H194.25V129.5H207.75V131.75H196.5V138.5H207.75V140.75H194.25Z" fill="black"/>
<path d="M194.25 94.75V92.5H192V90.25H194.25V88H203.25V85.75H194.25V83.5H205.5V85.75H207.75V94.75H194.25ZM196.5 92.5H203.25V90.25H196.5V92.5Z" fill="black"/>
<path d="M198.75 52.75V43.75H194.25V41.5H198.75V37H203.25V41.5H207.75V43.75H203.25V52.75H198.75Z" fill="black"/>
<path d="M142.25 140.75V138.5H140V131.75H142.25V129.5H155.75V131.75H144.5V138.5H155.75V140.75H142.25Z" fill="black"/>
<path d="M146.75 84.25V82H151.25V84.25H146.75ZM142.25 97.75V95.5H146.75V88.75H144.5V86.5H151.25V95.5H155.75V97.75H142.25Z" fill="black"/>
<path d="M144.75 52.75V43.75H140.25V41.5H144.75V37H149.25V41.5H153.75V43.75H149.25V52.75H144.75Z" fill="black"/>
</svg>
