<svg width="201" height="100" viewBox="0 0 201 100" fill="none" xmlns="http://www.w3.org/2000/svg">
<path d="M0.0135498 3C0.0135498 1.34314 1.3567 0 3.01355 0H197.014C198.67 0 200.014 1.34315 200.014 3V97C200.014 98.6569 198.67 100 197.014 100H3.01355C1.35669 100 0.0135498 98.6569 0.0135498 97V3Z" fill="#EBF2FA"/>
<line y1="-1.5" x2="80" y2="-1.5" transform="matrix(1 0 0.000720021 1 60.0135 67)" stroke="black" stroke-width="3"/>
<line y1="-1.5" x2="80" y2="-1.5" transform="matrix(1 0 0.000720021 1 60.0135 37)" stroke="black" stroke-width="3"/>
<line y1="-1.5" x2="80" y2="-1.5" transform="matrix(0 -1 1 0.00077214 115.014 90)" stroke="black" stroke-width="3"/>
<line y1="-1.5" x2="80" y2="-1.5" transform="matrix(0 -1 1 0.000772139 85.0135 90)" stroke="black" stroke-width="3"/>
<path d="M124.264 83.75V82.5H123.014V78.75H124.264V77.5H130.514V78.75H131.764V81.25H125.514V82.5H130.514V83.75H124.264ZM125.514 80H129.264V78.75H125.514V80Z" fill="black"/>
<path d="M124.264 55.75V54.5H123.014V50.75H124.264V49.5H130.514V50.75H131.764V54.5H130.514V55.75H124.264ZM125.514 54.5H129.264V50.75H125.514V54.5Z" fill="black"/>
<path d="M126.764 26.75V21.75H124.264V20.5H126.764V18H129.264V20.5H131.764V21.75H129.264V26.75H126.764Z" fill="black"/>
<path d="M96.2635 83.75V82.5H95.0135V78.75H96.2635V77.5H103.764V78.75H97.5135V82.5H103.764V83.75H96.2635Z" fill="black"/>
<path d="M96.2635 55.75V54.5H95.0135V53.25H96.2635V52H101.264V50.75H96.2635V49.5H102.514V50.75H103.764V55.75H96.2635ZM97.5135 54.5H101.264V53.25H97.5135V54.5Z" fill="black"/>
<path d="M98.7636 26.75V21.75H96.2635V20.5H98.7636V18H101.264V20.5H103.764V21.75H101.264V26.75H98.7636Z" fill="black"/>
<path d="M67.2635 83.75V82.5H66.0135V78.75H67.2635V77.5H74.7636V78.75H68.5135V82.5H74.7636V83.75H67.2635Z" fill="black"/>
<path d="M69.7636 49.25V48H72.2635V49.25H69.7636ZM67.2635 56.75V55.5H69.7636V51.75H68.5135V50.5H72.2635V55.5H74.7636V56.75H67.2635Z" fill="black"/>
<path d="M69.7636 26.75V21.75H67.2635V20.5H69.7636V18H72.2635V20.5H74.7636V21.75H72.2635V26.75H69.7636Z" fill="black"/>
</svg>
